<svg width="512" height="512" viewBox="0 0 512 512" fill="none" xmlns="http://www.w3.org/2000/svg">
<rect width="512" height="512" fill="#FFFAEB"/>
<path d="M119.844 270.44C117.468 270.44 115.239 269.985 113.156 269.076C111.103 268.167 109.284 266.905 107.7 265.292C106.145 263.679 104.928 261.816 104.048 259.704C103.197 257.563 102.772 255.26 102.772 252.796C102.772 250.361 103.197 248.088 104.048 245.976C104.928 243.835 106.145 241.972 107.7 240.388C109.255 238.775 111.059 237.513 113.112 236.604C115.195 235.665 117.439 235.196 119.844 235.196C121.985 235.196 123.907 235.504 125.608 236.12C127.309 236.707 128.967 237.675 130.58 239.024C130.844 239.229 131.005 239.464 131.064 239.728C131.152 239.963 131.152 240.197 131.064 240.432C131.005 240.667 130.903 240.872 130.756 241.048C130.697 241.371 130.521 241.635 130.228 241.84C129.964 242.016 129.641 242.104 129.26 242.104C128.879 242.104 128.497 241.957 128.116 241.664C127.001 240.667 125.799 239.933 124.508 239.464C123.217 238.965 121.663 238.716 119.844 238.716C117.996 238.716 116.251 239.097 114.608 239.86C112.995 240.593 111.572 241.605 110.34 242.896C109.108 244.187 108.14 245.683 107.436 247.384C106.761 249.085 106.424 250.889 106.424 252.796C106.424 254.761 106.761 256.595 107.436 258.296C108.14 259.997 109.108 261.493 110.34 262.784C111.572 264.075 112.995 265.087 114.608 265.82C116.251 266.553 117.996 266.92 119.844 266.92C121.399 266.92 122.88 266.656 124.288 266.128C125.696 265.6 127.045 264.852 128.336 263.884C128.747 263.561 129.157 263.429 129.568 263.488C130.008 263.547 130.375 263.737 130.668 264.06C130.991 264.353 131.152 264.764 131.152 265.292C131.152 265.556 131.108 265.791 131.02 265.996C130.932 266.201 130.8 266.421 130.624 266.656C129.099 267.976 127.412 268.944 125.564 269.56C123.745 270.147 121.839 270.44 119.844 270.44ZM139.797 260.496C139.211 260.496 138.741 260.32 138.389 259.968C138.067 259.616 137.905 259.176 137.905 258.648V237.528C137.905 236.941 138.067 236.487 138.389 236.164C138.741 235.812 139.211 235.636 139.797 235.636C140.355 235.636 140.795 235.812 141.117 236.164C141.469 236.487 141.645 236.941 141.645 237.528V258.648C141.645 259.176 141.469 259.616 141.117 259.968C140.795 260.32 140.355 260.496 139.797 260.496ZM158.453 270C157.896 270 157.441 269.824 157.089 269.472C156.737 269.12 156.561 268.68 156.561 268.152V256.932C156.561 255.143 156.224 253.691 155.549 252.576C154.904 251.432 154.009 250.581 152.865 250.024C151.721 249.437 150.416 249.144 148.949 249.144C147.571 249.144 146.324 249.423 145.209 249.98C144.124 250.508 143.259 251.241 142.613 252.18C141.968 253.089 141.645 254.145 141.645 255.348H139.093C139.152 253.5 139.636 251.857 140.545 250.42C141.484 248.953 142.731 247.795 144.285 246.944C145.84 246.093 147.571 245.668 149.477 245.668C151.531 245.668 153.364 246.108 154.977 246.988C156.62 247.839 157.911 249.1 158.849 250.772C159.817 252.444 160.301 254.497 160.301 256.932V268.152C160.301 268.68 160.125 269.12 159.773 269.472C159.421 269.824 158.981 270 158.453 270ZM139.797 270C139.211 270 138.741 269.839 138.389 269.516C138.067 269.164 137.905 268.709 137.905 268.152V247.824C137.905 247.237 138.067 246.783 138.389 246.46C138.741 246.108 139.211 245.932 139.797 245.932C140.355 245.932 140.795 246.108 141.117 246.46C141.469 246.783 141.645 247.237 141.645 247.824V268.152C141.645 268.709 141.469 269.164 141.117 269.516C140.795 269.839 140.355 270 139.797 270ZM169.397 255.084C169.455 253.295 169.91 251.696 170.761 250.288C171.641 248.851 172.785 247.721 174.193 246.9C175.63 246.079 177.199 245.668 178.901 245.668C180.397 245.668 181.526 245.888 182.289 246.328C183.081 246.768 183.374 247.369 183.169 248.132C183.081 248.543 182.89 248.836 182.597 249.012C182.333 249.188 182.01 249.276 181.629 249.276C181.277 249.276 180.866 249.247 180.397 249.188C178.666 248.983 177.126 249.1 175.777 249.54C174.457 249.951 173.401 250.64 172.609 251.608C171.817 252.576 171.421 253.735 171.421 255.084H169.397ZM169.617 270C169.03 270 168.575 269.839 168.253 269.516C167.93 269.193 167.769 268.739 167.769 268.152V247.78C167.769 247.193 167.93 246.739 168.253 246.416C168.575 246.093 169.03 245.932 169.617 245.932C170.203 245.932 170.643 246.093 170.937 246.416C171.259 246.739 171.421 247.193 171.421 247.78V268.152C171.421 268.739 171.259 269.193 170.937 269.516C170.643 269.839 170.203 270 169.617 270ZM197.502 270.22C195.126 270.22 193.014 269.692 191.166 268.636C189.347 267.58 187.91 266.128 186.854 264.28C185.798 262.432 185.27 260.335 185.27 257.988C185.27 255.612 185.798 253.5 186.854 251.652C187.91 249.804 189.347 248.352 191.166 247.296C193.014 246.24 195.126 245.712 197.502 245.712C199.849 245.712 201.931 246.24 203.75 247.296C205.569 248.352 207.006 249.804 208.062 251.652C209.118 253.5 209.661 255.612 209.69 257.988C209.69 260.335 209.162 262.432 208.106 264.28C207.05 266.128 205.598 267.58 203.75 268.636C201.931 269.692 199.849 270.22 197.502 270.22ZM197.502 266.876C199.145 266.876 200.611 266.495 201.902 265.732C203.193 264.94 204.205 263.884 204.938 262.564C205.671 261.215 206.038 259.689 206.038 257.988C206.038 256.287 205.671 254.761 204.938 253.412C204.205 252.063 203.193 251.007 201.902 250.244C200.611 249.452 199.145 249.056 197.502 249.056C195.859 249.056 194.378 249.452 193.058 250.244C191.767 251.007 190.741 252.063 189.978 253.412C189.245 254.761 188.878 256.287 188.878 257.988C188.878 259.689 189.245 261.215 189.978 262.564C190.741 263.884 191.767 264.94 193.058 265.732C194.378 266.495 195.859 266.876 197.502 266.876ZM236.828 270C236.271 270 235.816 269.824 235.464 269.472C235.112 269.12 234.936 268.68 234.936 268.152V256.932C234.936 255.143 234.599 253.691 233.924 252.576C233.279 251.432 232.384 250.581 231.24 250.024C230.096 249.437 228.791 249.144 227.324 249.144C225.946 249.144 224.699 249.423 223.584 249.98C222.499 250.508 221.634 251.241 220.988 252.18C220.343 253.089 220.02 254.145 220.02 255.348H217.468C217.527 253.5 218.011 251.857 218.92 250.42C219.859 248.953 221.106 247.795 222.66 246.944C224.215 246.093 225.946 245.668 227.852 245.668C229.906 245.668 231.739 246.108 233.352 246.988C234.995 247.839 236.286 249.1 237.224 250.772C238.192 252.444 238.676 254.497 238.676 256.932V268.152C238.676 268.68 238.5 269.12 238.148 269.472C237.796 269.824 237.356 270 236.828 270ZM218.172 270C217.586 270 217.116 269.839 216.764 269.516C216.442 269.164 216.28 268.709 216.28 268.152V247.824C216.28 247.237 216.442 246.783 216.764 246.46C217.116 246.108 217.586 245.932 218.172 245.932C218.73 245.932 219.17 246.108 219.492 246.46C219.844 246.783 220.02 247.237 220.02 247.824V268.152C220.02 268.709 219.844 269.164 219.492 269.516C219.17 269.839 218.73 270 218.172 270ZM257.1 270.22C254.724 270.22 252.612 269.692 250.764 268.636C248.945 267.58 247.508 266.128 246.452 264.28C245.396 262.432 244.868 260.335 244.868 257.988C244.868 255.612 245.396 253.5 246.452 251.652C247.508 249.804 248.945 248.352 250.764 247.296C252.612 246.24 254.724 245.712 257.1 245.712C259.446 245.712 261.529 246.24 263.348 247.296C265.166 248.352 266.604 249.804 267.66 251.652C268.716 253.5 269.258 255.612 269.288 257.988C269.288 260.335 268.76 262.432 267.704 264.28C266.648 266.128 265.196 267.58 263.348 268.636C261.529 269.692 259.446 270.22 257.1 270.22ZM257.1 266.876C258.742 266.876 260.209 266.495 261.5 265.732C262.79 264.94 263.802 263.884 264.536 262.564C265.269 261.215 265.636 259.689 265.636 257.988C265.636 256.287 265.269 254.761 264.536 253.412C263.802 252.063 262.79 251.007 261.5 250.244C260.209 249.452 258.742 249.056 257.1 249.056C255.457 249.056 253.976 249.452 252.656 250.244C251.365 251.007 250.338 252.063 249.576 253.412C248.842 254.761 248.476 256.287 248.476 257.988C248.476 259.689 248.842 261.215 249.576 262.564C250.338 263.884 251.365 264.94 252.656 265.732C253.976 266.495 255.457 266.876 257.1 266.876ZM278.21 270C277.682 270 277.227 269.824 276.846 269.472C276.494 269.12 276.318 268.665 276.318 268.108V237.528C276.318 237 276.494 236.56 276.846 236.208C277.227 235.827 277.682 235.636 278.21 235.636C278.738 235.636 279.178 235.827 279.53 236.208C279.911 236.56 280.102 237 280.102 237.528V266.348H296.91C297.438 266.348 297.878 266.524 298.23 266.876C298.611 267.228 298.802 267.653 298.802 268.152C298.802 268.68 298.611 269.12 298.23 269.472C297.878 269.824 297.438 270 296.91 270H278.21ZM314.279 270.22C312.049 270.22 310.055 269.692 308.295 268.636C306.535 267.551 305.141 266.084 304.115 264.236C303.088 262.388 302.575 260.305 302.575 257.988C302.575 255.641 303.103 253.544 304.159 251.696C305.244 249.848 306.711 248.396 308.559 247.34C310.407 246.255 312.489 245.712 314.807 245.712C317.095 245.712 319.148 246.255 320.967 247.34C322.815 248.396 324.267 249.848 325.323 251.696C326.408 253.544 326.965 255.641 326.995 257.988L325.499 258.736C325.499 260.907 325 262.857 324.003 264.588C323.035 266.319 321.7 267.697 319.999 268.724C318.327 269.721 316.42 270.22 314.279 270.22ZM314.807 266.876C316.449 266.876 317.901 266.495 319.163 265.732C320.453 264.94 321.465 263.869 322.199 262.52C322.961 261.171 323.343 259.66 323.343 257.988C323.343 256.287 322.961 254.776 322.199 253.456C321.465 252.107 320.453 251.036 319.163 250.244C317.901 249.452 316.449 249.056 314.807 249.056C313.193 249.056 311.727 249.452 310.407 250.244C309.116 251.036 308.089 252.107 307.327 253.456C306.564 254.776 306.183 256.287 306.183 257.988C306.183 259.66 306.564 261.171 307.327 262.52C308.089 263.869 309.116 264.94 310.407 265.732C311.727 266.495 313.193 266.876 314.807 266.876ZM325.103 270C324.575 270 324.12 269.839 323.739 269.516C323.387 269.164 323.211 268.709 323.211 268.152V260.892L324.047 257.064L326.995 257.988V268.152C326.995 268.709 326.819 269.164 326.467 269.516C326.115 269.839 325.66 270 325.103 270ZM335.477 280.296C334.89 280.296 334.421 280.12 334.069 279.768C333.746 279.445 333.585 278.991 333.585 278.404V257.856C333.614 255.568 334.157 253.515 335.213 251.696C336.298 249.848 337.75 248.396 339.569 247.34C341.388 246.255 343.441 245.712 345.729 245.712C348.076 245.712 350.158 246.255 351.977 247.34C353.825 248.396 355.277 249.848 356.333 251.696C357.418 253.544 357.961 255.641 357.961 257.988C357.961 260.305 357.448 262.388 356.421 264.236C355.424 266.084 354.045 267.551 352.285 268.636C350.525 269.692 348.53 270.22 346.301 270.22C344.394 270.22 342.664 269.824 341.109 269.032C339.554 268.211 338.293 267.14 337.325 265.82V278.404C337.325 278.991 337.149 279.445 336.797 279.768C336.445 280.12 336.005 280.296 335.477 280.296ZM345.729 266.876C347.372 266.876 348.838 266.495 350.129 265.732C351.449 264.94 352.476 263.869 353.209 262.52C353.972 261.171 354.353 259.66 354.353 257.988C354.353 256.287 353.972 254.776 353.209 253.456C352.476 252.107 351.449 251.036 350.129 250.244C348.838 249.452 347.372 249.056 345.729 249.056C344.145 249.056 342.693 249.452 341.373 250.244C340.082 251.036 339.07 252.107 338.337 253.456C337.604 254.776 337.237 256.287 337.237 257.988C337.237 259.66 337.604 261.171 338.337 262.52C339.07 263.869 340.082 264.94 341.373 265.732C342.664 266.495 344.116 266.876 345.729 266.876ZM373.143 270.22C371.325 270.22 369.55 269.927 367.819 269.34C366.118 268.724 364.754 267.859 363.727 266.744C363.375 266.363 363.229 265.923 363.287 265.424C363.346 264.925 363.581 264.515 363.991 264.192C364.461 263.84 364.93 263.693 365.399 263.752C365.898 263.811 366.309 264.016 366.631 264.368C367.277 265.131 368.171 265.747 369.315 266.216C370.459 266.656 371.721 266.876 373.099 266.876C375.123 266.876 376.605 266.539 377.543 265.864C378.511 265.16 379.01 264.295 379.039 263.268C379.039 262.271 378.555 261.435 377.587 260.76C376.649 260.085 375.035 259.557 372.747 259.176C369.785 258.677 367.614 257.841 366.235 256.668C364.886 255.495 364.211 254.087 364.211 252.444C364.211 250.948 364.622 249.701 365.443 248.704C366.265 247.707 367.335 246.959 368.655 246.46C370.005 245.961 371.457 245.712 373.011 245.712C374.977 245.712 376.678 246.049 378.115 246.724C379.553 247.369 380.711 248.249 381.591 249.364C381.914 249.775 382.046 250.215 381.987 250.684C381.958 251.124 381.723 251.476 381.283 251.74C380.902 252.004 380.447 252.092 379.919 252.004C379.421 251.916 378.995 251.681 378.643 251.3C377.91 250.508 377.074 249.936 376.135 249.584C375.197 249.203 374.126 249.012 372.923 249.012C371.398 249.012 370.166 249.32 369.227 249.936C368.289 250.523 367.819 251.285 367.819 252.224C367.819 252.869 367.981 253.427 368.303 253.896C368.655 254.365 369.257 254.791 370.107 255.172C370.987 255.524 372.234 255.847 373.847 256.14C376.047 256.521 377.778 257.064 379.039 257.768C380.33 258.443 381.239 259.235 381.767 260.144C382.325 261.053 382.603 262.065 382.603 263.18C382.603 264.559 382.207 265.776 381.415 266.832C380.653 267.859 379.567 268.68 378.159 269.296C376.751 269.912 375.079 270.22 373.143 270.22ZM399.457 270.22C397.052 270.22 394.925 269.707 393.077 268.68C391.229 267.624 389.777 266.172 388.721 264.324C387.665 262.476 387.137 260.364 387.137 257.988C387.137 255.583 387.636 253.471 388.633 251.652C389.63 249.804 390.994 248.352 392.725 247.296C394.485 246.24 396.509 245.712 398.797 245.712C401.026 245.712 402.962 246.225 404.605 247.252C406.277 248.249 407.553 249.643 408.433 251.432C409.342 253.221 409.797 255.26 409.797 257.548C409.797 258.047 409.636 258.457 409.313 258.78C408.99 259.073 408.58 259.22 408.081 259.22H389.689V256.184H408.301L406.409 257.504C406.438 255.891 406.145 254.439 405.529 253.148C404.913 251.857 404.033 250.845 402.889 250.112C401.745 249.379 400.381 249.012 398.797 249.012C397.125 249.012 395.658 249.393 394.397 250.156C393.165 250.919 392.212 251.989 391.537 253.368C390.892 254.717 390.569 256.257 390.569 257.988C390.569 259.719 390.95 261.259 391.713 262.608C392.476 263.957 393.517 265.013 394.837 265.776C396.186 266.539 397.726 266.92 399.457 266.92C400.454 266.92 401.466 266.744 402.493 266.392C403.549 266.04 404.385 265.6 405.001 265.072C405.353 264.808 405.749 264.676 406.189 264.676C406.658 264.647 407.04 264.764 407.333 265.028C407.773 265.409 407.993 265.82 407.993 266.26C408.022 266.7 407.832 267.081 407.421 267.404C406.453 268.225 405.221 268.9 403.725 269.428C402.229 269.956 400.806 270.22 399.457 270.22Z" fill="#D4AF37"/>
<path d="M113.156 269.076L112.954 269.533L112.956 269.534L113.156 269.076ZM107.7 265.292L107.34 265.639L107.343 265.642L107.7 265.292ZM104.048 259.704L103.583 259.889L103.586 259.896L104.048 259.704ZM104.048 245.976L103.586 245.786L103.584 245.789L104.048 245.976ZM107.7 240.388L108.057 240.738L108.06 240.735L107.7 240.388ZM113.112 236.604L113.314 237.061L113.317 237.06L113.112 236.604ZM125.608 236.12L125.438 236.59L125.445 236.593L125.608 236.12ZM130.58 239.024L130.259 239.408L130.266 239.413L130.273 239.419L130.58 239.024ZM131.064 239.728L130.576 239.836L130.584 239.871L130.596 239.904L131.064 239.728ZM131.064 240.432L130.596 240.256L130.586 240.283L130.579 240.311L131.064 240.432ZM130.756 241.048L130.372 240.728L130.288 240.829L130.264 240.959L130.756 241.048ZM130.228 241.84L130.505 242.256L130.515 242.25L130.228 241.84ZM128.116 241.664L127.783 242.037L127.796 242.049L127.811 242.06L128.116 241.664ZM124.508 239.464L124.328 239.93L124.337 239.934L124.508 239.464ZM114.608 239.86L114.815 240.315L114.819 240.314L114.608 239.86ZM110.34 242.896L109.978 242.551L109.978 242.551L110.34 242.896ZM107.436 247.384L106.974 247.193L106.971 247.2L107.436 247.384ZM107.436 258.296L106.971 258.48L106.974 258.487L107.436 258.296ZM110.34 262.784L110.702 262.439L110.702 262.439L110.34 262.784ZM114.608 265.82L114.401 266.275L114.404 266.277L114.608 265.82ZM124.288 266.128L124.464 266.596L124.464 266.596L124.288 266.128ZM128.336 263.884L128.636 264.284L128.645 264.277L128.336 263.884ZM129.568 263.488L129.497 263.983L129.502 263.984L129.568 263.488ZM130.668 264.06L130.298 264.396L130.314 264.414L130.332 264.43L130.668 264.06ZM131.02 265.996L131.48 266.193L131.48 266.193L131.02 265.996ZM130.624 266.656L130.951 267.034L130.992 266.999L131.024 266.956L130.624 266.656ZM125.564 269.56L125.718 270.036L125.722 270.034L125.564 269.56ZM119.844 270.44V269.94C117.534 269.94 115.373 269.498 113.356 268.618L113.156 269.076L112.956 269.534C115.105 270.472 117.402 270.94 119.844 270.94V270.44ZM113.156 269.076L113.358 268.619C111.363 267.735 109.597 266.51 108.057 264.942L107.7 265.292L107.343 265.642C108.971 267.3 110.842 268.598 112.954 269.533L113.156 269.076ZM107.7 265.292L108.06 264.945C106.549 263.377 105.366 261.568 104.51 259.512L104.048 259.704L103.586 259.896C104.49 262.064 105.741 263.98 107.34 265.639L107.7 265.292ZM104.048 259.704L104.513 259.519C103.687 257.441 103.272 255.201 103.272 252.796H102.772H102.272C102.272 255.319 102.708 257.685 103.583 259.889L104.048 259.704ZM102.772 252.796H103.272C103.272 250.421 103.687 248.211 104.512 246.163L104.048 245.976L103.584 245.789C102.708 247.965 102.272 250.302 102.272 252.796H102.772ZM104.048 245.976L104.51 246.166C105.367 244.082 106.549 242.274 108.057 240.738L107.7 240.388L107.343 240.038C105.741 241.67 104.489 243.588 103.586 245.786L104.048 245.976ZM107.7 240.388L108.06 240.735C109.57 239.168 111.32 237.944 113.314 237.061L113.112 236.604L112.91 236.147C110.797 237.082 108.94 238.381 107.34 240.041L107.7 240.388ZM113.112 236.604L113.317 237.06C115.332 236.152 117.506 235.696 119.844 235.696V235.196V234.696C117.372 234.696 115.057 235.179 112.907 236.148L113.112 236.604ZM119.844 235.196V235.696C121.938 235.696 123.8 235.997 125.438 236.59L125.608 236.12L125.778 235.65C124.013 235.011 122.033 234.696 119.844 234.696V235.196ZM125.608 236.12L125.445 236.593C127.08 237.156 128.685 238.091 130.259 239.408L130.58 239.024L130.901 238.64C129.248 237.259 127.539 236.257 125.771 235.647L125.608 236.12ZM130.58 239.024L130.273 239.419C130.468 239.57 130.548 239.711 130.576 239.836L131.064 239.728L131.552 239.62C131.463 239.217 131.22 238.889 130.887 238.629L130.58 239.024ZM131.064 239.728L130.596 239.904C130.641 240.025 130.641 240.135 130.596 240.256L131.064 240.432L131.532 240.608C131.663 240.26 131.663 239.9 131.532 239.552L131.064 239.728ZM131.064 240.432L130.579 240.311C130.537 240.477 130.468 240.613 130.372 240.728L130.756 241.048L131.14 241.368C131.338 241.131 131.473 240.857 131.549 240.553L131.064 240.432ZM130.756 241.048L130.264 240.959C130.231 241.139 130.138 241.293 129.941 241.43L130.228 241.84L130.515 242.25C130.905 241.976 131.163 241.602 131.248 241.137L130.756 241.048ZM130.228 241.84L129.951 241.424C129.784 241.535 129.563 241.604 129.26 241.604V242.104V242.604C129.72 242.604 130.144 242.497 130.505 242.256L130.228 241.84ZM129.26 242.104V241.604C129.015 241.604 128.738 241.512 128.421 241.268L128.116 241.664L127.811 242.06C128.257 242.403 128.742 242.604 129.26 242.604V242.104ZM128.116 241.664L128.449 241.291C127.292 240.255 126.035 239.487 124.679 238.994L124.508 239.464L124.337 239.934C125.563 240.38 126.711 241.078 127.783 242.037L128.116 241.664ZM124.508 239.464L124.688 238.998C123.325 238.471 121.706 238.216 119.844 238.216V238.716V239.216C121.619 239.216 123.11 239.46 124.328 239.93L124.508 239.464ZM119.844 238.716V238.216C117.925 238.216 116.107 238.613 114.397 239.406L114.608 239.86L114.819 240.314C116.394 239.582 118.067 239.216 119.844 239.216V238.716ZM114.608 239.86L114.401 239.405C112.729 240.165 111.254 241.214 109.978 242.551L110.34 242.896L110.702 243.241C111.89 241.996 113.26 241.022 114.815 240.315L114.608 239.86ZM110.34 242.896L109.978 242.551C108.702 243.888 107.701 245.436 106.974 247.193L107.436 247.384L107.898 247.575C108.579 245.929 109.514 244.486 110.702 243.241L110.34 242.896ZM107.436 247.384L106.971 247.2C106.272 248.962 105.924 250.829 105.924 252.796H106.424H106.924C106.924 250.95 107.25 249.209 107.901 247.568L107.436 247.384ZM106.424 252.796H105.924C105.924 254.82 106.272 256.716 106.971 258.48L107.436 258.296L107.901 258.112C107.251 256.473 106.924 254.703 106.924 252.796H106.424ZM107.436 258.296L106.974 258.487C107.701 260.244 108.702 261.792 109.978 263.129L110.34 262.784L110.702 262.439C109.514 261.194 108.579 259.751 107.898 258.105L107.436 258.296ZM110.34 262.784L109.978 263.129C111.254 264.466 112.729 265.515 114.401 266.275L114.608 265.82L114.815 265.365C113.26 264.658 111.89 263.684 110.702 262.439L110.34 262.784ZM114.608 265.82L114.404 266.277C116.113 267.039 117.928 267.42 119.844 267.42V266.92V266.42C118.064 266.42 116.389 266.067 114.812 265.363L114.608 265.82ZM119.844 266.92V267.42C121.457 267.42 122.998 267.146 124.464 266.596L124.288 266.128L124.112 265.66C122.762 266.166 121.341 266.42 119.844 266.42V266.92ZM124.288 266.128L124.464 266.596C125.919 266.05 127.31 265.278 128.636 264.284L128.336 263.884L128.036 263.484C126.781 264.426 125.473 265.15 124.112 265.66L124.288 266.128ZM128.336 263.884L128.645 264.277C128.978 264.016 129.255 263.948 129.497 263.983L129.568 263.488L129.639 262.993C129.06 262.91 128.516 263.107 128.027 263.491L128.336 263.884ZM129.568 263.488L129.502 263.984C129.827 264.027 130.086 264.163 130.298 264.396L130.668 264.06L131.038 263.724C130.664 263.312 130.189 263.066 129.634 262.992L129.568 263.488ZM130.668 264.06L130.332 264.43C130.528 264.609 130.652 264.873 130.652 265.292H131.152H131.652C131.652 264.655 131.453 264.098 131.004 263.69L130.668 264.06ZM131.152 265.292H130.652C130.652 265.5 130.617 265.666 130.56 265.799L131.02 265.996L131.48 266.193C131.599 265.915 131.652 265.612 131.652 265.292H131.152ZM131.02 265.996L130.56 265.799C130.492 265.958 130.383 266.144 130.224 266.356L130.624 266.656L131.024 266.956C131.217 266.699 131.372 266.444 131.48 266.193L131.02 265.996ZM130.624 266.656L130.297 266.278C128.819 267.557 127.19 268.491 125.406 269.086L125.564 269.56L125.722 270.034C127.634 269.397 129.378 268.395 130.951 267.034L130.624 266.656ZM125.564 269.56L125.41 269.084C123.644 269.654 121.789 269.94 119.844 269.94V270.44V270.94C121.888 270.94 123.847 270.639 125.718 270.036L125.564 269.56ZM138.389 259.968L138.021 260.306L138.028 260.314L138.036 260.322L138.389 259.968ZM138.389 236.164L138.036 235.81L138.036 235.81L138.389 236.164ZM141.117 236.164L140.749 236.502L140.763 236.518L140.779 236.533L141.117 236.164ZM141.117 259.968L140.764 259.614L140.756 259.622L140.749 259.63L141.117 259.968ZM155.549 252.576L155.114 252.822L155.118 252.828L155.122 252.835L155.549 252.576ZM152.865 250.024L152.637 250.469L152.646 250.473L152.865 250.024ZM145.209 249.98L145.428 250.43L145.433 250.427L145.209 249.98ZM142.613 252.18L143.021 252.469L143.025 252.463L142.613 252.18ZM141.645 255.348V255.848H142.145V255.348H141.645ZM139.093 255.348L138.594 255.332L138.577 255.848H139.093V255.348ZM140.545 250.42L140.124 250.15L140.123 250.153L140.545 250.42ZM144.285 246.944L144.045 246.505L144.045 246.505L144.285 246.944ZM154.977 246.988L154.738 247.427L154.747 247.432L154.977 246.988ZM158.849 250.772L158.413 251.017L158.417 251.023L158.849 250.772ZM159.773 269.472L159.42 269.118L159.42 269.118L159.773 269.472ZM138.389 269.516L138.021 269.854L138.035 269.87L138.051 269.885L138.389 269.516ZM138.389 246.46L138.743 246.814L138.743 246.814L138.389 246.46ZM141.117 246.46L140.749 246.798L140.763 246.814L140.779 246.829L141.117 246.46ZM141.117 269.516L140.764 269.162L140.764 269.162L141.117 269.516ZM139.797 260.496V259.996C139.318 259.996 138.984 259.856 138.743 259.614L138.389 259.968L138.036 260.322C138.498 260.784 139.104 260.996 139.797 260.996V260.496ZM138.389 259.968L138.758 259.63C138.529 259.38 138.405 259.065 138.405 258.648H137.905H137.405C137.405 259.287 137.604 259.852 138.021 260.306L138.389 259.968ZM137.905 258.648H138.405V237.528H137.905H137.405V258.648H137.905ZM137.905 237.528H138.405C138.405 237.034 138.539 236.722 138.743 236.518L138.389 236.164L138.036 235.81C137.595 236.252 137.405 236.848 137.405 237.528H137.905ZM138.389 236.164L138.743 236.518C138.984 236.276 139.318 236.136 139.797 236.136V235.636V235.136C139.104 235.136 138.498 235.348 138.036 235.81L138.389 236.164ZM139.797 235.636V236.136C140.24 236.136 140.537 236.271 140.749 236.502L141.117 236.164L141.486 235.826C141.052 235.353 140.469 235.136 139.797 235.136V235.636ZM141.117 236.164L140.779 236.533C141.005 236.739 141.145 237.047 141.145 237.528H141.645H142.145C142.145 236.836 141.933 236.234 141.455 235.795L141.117 236.164ZM141.645 237.528H141.145V258.648H141.645H142.145V237.528H141.645ZM141.645 258.648H141.145C141.145 259.052 141.016 259.362 140.764 259.614L141.117 259.968L141.471 260.322C141.923 259.87 142.145 259.3 142.145 258.648H141.645ZM141.117 259.968L140.749 259.63C140.537 259.861 140.24 259.996 139.797 259.996V260.496V260.996C140.469 260.996 141.052 260.779 141.486 260.306L141.117 259.968ZM158.453 270V269.5C158.011 269.5 157.69 269.365 157.443 269.118L157.089 269.472L156.736 269.826C157.193 270.283 157.781 270.5 158.453 270.5V270ZM157.089 269.472L157.443 269.118C157.191 268.866 157.061 268.556 157.061 268.152H156.561H156.061C156.061 268.804 156.284 269.374 156.736 269.826L157.089 269.472ZM156.561 268.152H157.061V256.932H156.561H156.061V268.152H156.561ZM156.561 256.932H157.061C157.061 255.084 156.713 253.534 155.977 252.317L155.549 252.576L155.122 252.835C155.734 253.848 156.061 255.201 156.061 256.932H156.561ZM155.549 252.576L155.985 252.33C155.291 251.101 154.323 250.178 153.084 249.575L152.865 250.024L152.646 250.473C153.696 250.985 154.517 251.763 155.114 252.822L155.549 252.576ZM152.865 250.024L153.093 249.579C151.869 248.951 150.484 248.644 148.949 248.644V249.144V249.644C150.348 249.644 151.573 249.923 152.637 250.469L152.865 250.024ZM148.949 249.144V248.644C147.501 248.644 146.177 248.937 144.986 249.533L145.209 249.98L145.433 250.427C146.471 249.908 147.64 249.644 148.949 249.644V249.144ZM145.209 249.98L144.991 249.53C143.832 250.094 142.899 250.883 142.201 251.897L142.613 252.18L143.025 252.463C143.619 251.6 144.416 250.922 145.428 250.43L145.209 249.98ZM142.613 252.18L142.206 251.891C141.495 252.891 141.145 254.05 141.145 255.348H141.645H142.145C142.145 254.24 142.441 253.287 143.021 252.469L142.613 252.18ZM141.645 255.348V254.848H139.093V255.348V255.848H141.645V255.348ZM139.093 255.348L139.593 255.364C139.649 253.597 140.11 252.043 140.968 250.687L140.545 250.42L140.123 250.153C139.162 251.672 138.655 253.403 138.594 255.332L139.093 255.348ZM140.545 250.42L140.966 250.69C141.859 249.295 143.043 248.194 144.525 247.383L144.285 246.944L144.045 246.505C142.418 247.396 141.109 248.612 140.124 250.15L140.545 250.42ZM144.285 246.944L144.525 247.383C146.001 246.575 147.648 246.168 149.477 246.168V245.668V245.168C147.493 245.168 145.679 245.611 144.045 246.505L144.285 246.944ZM149.477 245.668V246.168C151.457 246.168 153.206 246.592 154.738 247.427L154.977 246.988L155.217 246.549C153.522 245.624 151.604 245.168 149.477 245.168V245.668ZM154.977 246.988L154.747 247.432C156.3 248.236 157.521 249.427 158.413 251.017L158.849 250.772L159.285 250.527C158.301 248.773 156.94 247.441 155.207 246.544L154.977 246.988ZM158.849 250.772L158.417 251.023C159.33 252.601 159.801 254.563 159.801 256.932H160.301H160.801C160.801 254.432 160.304 252.287 159.282 250.521L158.849 250.772ZM160.301 256.932H159.801V268.152H160.301H160.801V256.932H160.301ZM160.301 268.152H159.801C159.801 268.556 159.672 268.866 159.42 269.118L159.773 269.472L160.127 269.826C160.579 269.374 160.801 268.804 160.801 268.152H160.301ZM159.773 269.472L159.42 269.118C159.168 269.371 158.858 269.5 158.453 269.5V270V270.5C159.105 270.5 159.675 270.277 160.127 269.826L159.773 269.472ZM139.797 270V269.5C139.306 269.5 138.967 269.367 138.727 269.147L138.389 269.516L138.051 269.885C138.516 270.31 139.116 270.5 139.797 270.5V270ZM138.389 269.516L138.758 269.178C138.534 268.934 138.405 268.607 138.405 268.152H137.905H137.405C137.405 268.812 137.6 269.394 138.021 269.854L138.389 269.516ZM137.905 268.152H138.405V247.824H137.905H137.405V268.152H137.905ZM137.905 247.824H138.405C138.405 247.33 138.539 247.018 138.743 246.814L138.389 246.46L138.036 246.106C137.595 246.548 137.405 247.144 137.405 247.824H137.905ZM138.389 246.46L138.743 246.814C138.984 246.572 139.318 246.432 139.797 246.432V245.932V245.432C139.104 245.432 138.498 245.644 138.036 246.106L138.389 246.46ZM139.797 245.932V246.432C140.24 246.432 140.537 246.567 140.749 246.798L141.117 246.46L141.486 246.122C141.052 245.649 140.469 245.432 139.797 245.432V245.932ZM141.117 246.46L140.779 246.829C141.005 247.035 141.145 247.343 141.145 247.824H141.645H142.145C142.145 247.132 141.933 246.53 141.455 246.091L141.117 246.46ZM141.645 247.824H141.145V268.152H141.645H142.145V247.824H141.645ZM141.645 268.152H141.145C141.145 268.594 141.01 268.916 140.764 269.162L141.117 269.516L141.471 269.87C141.928 269.412 142.145 268.825 142.145 268.152H141.645ZM141.117 269.516L140.764 269.162C140.555 269.371 140.253 269.5 139.797 269.5V270V270.5C140.456 270.5 141.034 270.306 141.471 269.87L141.117 269.516ZM169.397 255.084L168.897 255.068L168.88 255.584H169.397V255.084ZM170.761 250.288L170.334 250.027L170.333 250.029L170.761 250.288ZM174.193 246.9L173.945 246.466L173.941 246.468L174.193 246.9ZM182.289 246.328L182.039 246.761L182.046 246.765L182.289 246.328ZM183.169 248.132L182.686 248.002L182.682 248.015L182.68 248.027L183.169 248.132ZM182.597 249.012L182.339 248.583L182.329 248.589L182.319 248.596L182.597 249.012ZM180.397 249.188L180.459 248.692L180.456 248.691L180.397 249.188ZM175.777 249.54L175.925 250.017L175.932 250.015L175.777 249.54ZM172.609 251.608L172.996 251.925L172.996 251.925L172.609 251.608ZM171.421 255.084V255.584H171.921V255.084H171.421ZM168.253 246.416L168.606 246.77L168.606 246.77L168.253 246.416ZM170.937 246.416L170.567 246.752L170.575 246.761L170.583 246.77L170.937 246.416ZM170.937 269.516L170.583 269.162L170.575 269.171L170.567 269.18L170.937 269.516ZM169.397 255.084L169.896 255.1C169.952 253.389 170.386 251.875 171.189 250.547L170.761 250.288L170.333 250.029C169.434 251.517 168.958 253.201 168.897 255.068L169.397 255.084ZM170.761 250.288L171.187 250.549C172.025 249.18 173.11 248.11 174.445 247.332L174.193 246.9L173.941 246.468C172.459 247.333 171.256 248.522 170.334 250.027L170.761 250.288ZM174.193 246.9L174.441 247.334C175.8 246.557 177.284 246.168 178.901 246.168V245.668V245.168C177.115 245.168 175.46 245.6 173.945 246.466L174.193 246.9ZM178.901 245.668V246.168C180.363 246.168 181.388 246.386 182.039 246.761L182.289 246.328L182.538 245.895C181.664 245.39 180.43 245.168 178.901 245.168V245.668ZM182.289 246.328L182.046 246.765C182.383 246.953 182.565 247.147 182.653 247.328C182.738 247.501 182.763 247.715 182.686 248.002L183.169 248.132L183.651 248.262C183.779 247.786 183.761 247.318 183.552 246.89C183.347 246.47 182.986 246.143 182.531 245.891L182.289 246.328ZM183.169 248.132L182.68 248.027C182.614 248.336 182.488 248.494 182.339 248.583L182.597 249.012L182.854 249.441C183.292 249.178 183.548 248.75 183.657 248.237L183.169 248.132ZM182.597 249.012L182.319 248.596C182.153 248.707 181.931 248.776 181.629 248.776V249.276V249.776C182.088 249.776 182.512 249.669 182.874 249.428L182.597 249.012ZM181.629 249.276V248.776C181.303 248.776 180.914 248.749 180.459 248.692L180.397 249.188L180.335 249.684C180.818 249.745 181.25 249.776 181.629 249.776V249.276ZM180.397 249.188L180.456 248.691C178.669 248.48 177.054 248.598 175.622 249.065L175.777 249.54L175.932 250.015C177.198 249.602 178.663 249.486 180.338 249.685L180.397 249.188ZM175.777 249.54L175.628 249.063C174.225 249.499 173.082 250.24 172.222 251.291L172.609 251.608L172.996 251.925C173.719 251.04 174.688 250.402 175.925 250.017L175.777 249.54ZM172.609 251.608L172.222 251.291C171.351 252.356 170.921 253.629 170.921 255.084H171.421H171.921C171.921 253.84 172.283 252.796 172.996 251.925L172.609 251.608ZM171.421 255.084V254.584H169.397V255.084V255.584H171.421V255.084ZM169.617 270V269.5C169.123 269.5 168.81 269.367 168.606 269.162L168.253 269.516L167.899 269.87C168.34 270.311 168.937 270.5 169.617 270.5V270ZM168.253 269.516L168.606 269.162C168.402 268.958 168.269 268.646 168.269 268.152H167.769H167.269C167.269 268.832 167.458 269.428 167.899 269.87L168.253 269.516ZM167.769 268.152H168.269V247.78H167.769H167.269V268.152H167.769ZM167.769 247.78H168.269C168.269 247.286 168.402 246.974 168.606 246.77L168.253 246.416L167.899 246.062C167.458 246.504 167.269 247.1 167.269 247.78H167.769ZM168.253 246.416L168.606 246.77C168.81 246.565 169.123 246.432 169.617 246.432V245.932V245.432C168.937 245.432 168.34 245.621 167.899 246.062L168.253 246.416ZM169.617 245.932V246.432C170.113 246.432 170.398 246.566 170.567 246.752L170.937 246.416L171.307 246.08C170.889 245.62 170.293 245.432 169.617 245.432V245.932ZM170.937 246.416L170.583 246.77C170.787 246.974 170.921 247.286 170.921 247.78H171.421H171.921C171.921 247.1 171.731 246.504 171.29 246.062L170.937 246.416ZM171.421 247.78H170.921V268.152H171.421H171.921V247.78H171.421ZM171.421 268.152H170.921C170.921 268.646 170.787 268.958 170.583 269.162L170.937 269.516L171.29 269.87C171.731 269.428 171.921 268.832 171.921 268.152H171.421ZM170.937 269.516L170.567 269.18C170.398 269.366 170.113 269.5 169.617 269.5V270V270.5C170.293 270.5 170.889 270.312 171.307 269.852L170.937 269.516ZM191.166 268.636L190.915 269.068L190.918 269.07L191.166 268.636ZM186.854 264.28L187.288 264.032L187.288 264.032L186.854 264.28ZM186.854 251.652L186.42 251.404L186.42 251.404L186.854 251.652ZM191.166 247.296L190.918 246.862L190.915 246.864L191.166 247.296ZM203.75 247.296L203.499 247.728L203.75 247.296ZM208.062 251.652L208.496 251.404L208.496 251.404L208.062 251.652ZM209.69 257.988H210.19L210.19 257.982L209.69 257.988ZM208.106 264.28L207.672 264.032L207.672 264.032L208.106 264.28ZM203.75 268.636L203.502 268.202L203.499 268.204L203.75 268.636ZM201.902 265.732L202.156 266.163L202.163 266.158L201.902 265.732ZM204.938 262.564L205.375 262.807L205.377 262.803L204.938 262.564ZM204.938 253.412L204.499 253.651L204.499 253.651L204.938 253.412ZM201.902 250.244L201.64 250.67L201.648 250.674L201.902 250.244ZM193.058 250.244L193.312 250.674L193.315 250.673L193.058 250.244ZM189.978 253.412L189.543 253.166L189.539 253.173L189.978 253.412ZM189.978 262.564L189.538 262.803L189.545 262.814L189.978 262.564ZM193.058 265.732L192.796 266.158L192.808 266.165L193.058 265.732ZM197.502 270.22V269.72C195.203 269.72 193.178 269.21 191.414 268.202L191.166 268.636L190.918 269.07C192.85 270.174 195.049 270.72 197.502 270.72V270.22ZM191.166 268.636L191.417 268.204C189.675 267.192 188.301 265.804 187.288 264.032L186.854 264.28L186.42 264.528C187.519 266.452 189.019 267.968 190.915 269.068L191.166 268.636ZM186.854 264.28L187.288 264.032C186.28 262.267 185.77 260.257 185.77 257.988H185.27H184.77C184.77 260.413 185.316 262.597 186.42 264.528L186.854 264.28ZM185.27 257.988H185.77C185.77 255.689 186.28 253.664 187.288 251.9L186.854 251.652L186.42 251.404C185.316 253.336 184.77 255.535 184.77 257.988H185.27ZM186.854 251.652L187.288 251.9C188.301 250.128 189.675 248.74 191.417 247.728L191.166 247.296L190.915 246.864C189.019 247.964 187.519 249.48 186.42 251.404L186.854 251.652ZM191.166 247.296L191.414 247.73C193.178 246.722 195.203 246.212 197.502 246.212V245.712V245.212C195.049 245.212 192.85 245.758 190.918 246.862L191.166 247.296ZM197.502 245.712V246.212C199.771 246.212 201.765 246.722 203.499 247.728L203.75 247.296L204.001 246.864C202.098 245.758 199.926 245.212 197.502 245.212V245.712ZM203.75 247.296L203.499 247.728C205.24 248.74 206.615 250.128 207.628 251.9L208.062 251.652L208.496 251.404C207.397 249.48 205.897 247.964 204.001 246.864L203.75 247.296ZM208.062 251.652L207.628 251.9C208.637 253.666 209.162 255.693 209.19 257.994L209.69 257.988L210.19 257.982C210.16 255.531 209.599 253.334 208.496 251.404L208.062 251.652ZM209.69 257.988H209.19C209.19 260.257 208.68 262.267 207.672 264.032L208.106 264.28L208.54 264.528C209.644 262.597 210.19 260.413 210.19 257.988H209.69ZM208.106 264.28L207.672 264.032C206.66 265.802 205.272 267.19 203.502 268.202L203.75 268.636L203.998 269.07C205.924 267.97 207.44 266.454 208.54 264.528L208.106 264.28ZM203.75 268.636L203.499 268.204C201.765 269.21 199.771 269.72 197.502 269.72V270.22V270.72C199.926 270.72 202.098 270.174 204.001 269.068L203.75 268.636ZM197.502 266.876V267.376C199.225 267.376 200.781 266.975 202.156 266.162L201.902 265.732L201.648 265.302C200.441 266.014 199.064 266.376 197.502 266.376V266.876ZM201.902 265.732L202.163 266.158C203.527 265.321 204.6 264.202 205.375 262.807L204.938 262.564L204.501 262.321C203.809 263.566 202.858 264.559 201.64 265.306L201.902 265.732ZM204.938 262.564L205.377 262.803C206.155 261.372 206.538 259.764 206.538 257.988H206.038H205.538C205.538 259.615 205.188 261.057 204.499 262.325L204.938 262.564ZM206.038 257.988H206.538C206.538 256.212 206.155 254.604 205.377 253.173L204.938 253.412L204.499 253.651C205.188 254.919 205.538 256.361 205.538 257.988H206.038ZM204.938 253.412L205.377 253.173C204.602 251.746 203.527 250.623 202.156 249.814L201.902 250.244L201.648 250.674C202.858 251.39 203.807 252.379 204.499 253.651L204.938 253.412ZM201.902 250.244L202.163 249.818C200.787 248.973 199.229 248.556 197.502 248.556V249.056V249.556C199.06 249.556 200.435 249.931 201.64 250.67L201.902 250.244ZM197.502 249.056V248.556C195.775 248.556 194.204 248.973 192.801 249.815L193.058 250.244L193.315 250.673C194.552 249.931 195.944 249.556 197.502 249.556V249.056ZM193.058 250.244L192.804 249.814C191.435 250.622 190.347 251.743 189.543 253.166L189.978 253.412L190.413 253.658C191.134 252.382 192.1 251.391 193.312 250.674L193.058 250.244ZM189.978 253.412L189.539 253.173C188.761 254.604 188.378 256.212 188.378 257.988H188.878H189.378C189.378 256.361 189.728 254.919 190.417 253.651L189.978 253.412ZM188.878 257.988H188.378C188.378 259.764 188.761 261.372 189.539 262.803L189.978 262.564L190.417 262.325C189.728 261.057 189.378 259.615 189.378 257.988H188.878ZM189.978 262.564L189.545 262.814C190.349 264.206 191.434 265.322 192.796 266.158L193.058 265.732L193.319 265.306C192.1 264.558 191.132 263.562 190.411 262.314L189.978 262.564ZM193.058 265.732L192.808 266.165C194.21 266.975 195.778 267.376 197.502 267.376V266.876V266.376C195.94 266.376 194.546 266.014 193.308 265.299L193.058 265.732ZM233.924 252.576L233.489 252.822L233.493 252.828L233.497 252.835L233.924 252.576ZM231.24 250.024L231.012 250.469L231.021 250.473L231.24 250.024ZM223.584 249.98L223.803 250.43L223.808 250.427L223.584 249.98ZM220.988 252.18L221.396 252.469L221.4 252.463L220.988 252.18ZM220.02 255.348V255.848H220.52V255.348H220.02ZM217.468 255.348L216.969 255.332L216.952 255.848H217.468V255.348ZM218.92 250.42L218.499 250.15L218.498 250.153L218.92 250.42ZM222.66 246.944L222.42 246.505L222.42 246.505L222.66 246.944ZM233.352 246.988L233.113 247.427L233.122 247.432L233.352 246.988ZM237.224 250.772L236.788 251.017L236.792 251.023L237.224 250.772ZM238.148 269.472L237.795 269.118L237.795 269.118L238.148 269.472ZM216.764 269.516L216.396 269.854L216.41 269.87L216.426 269.885L216.764 269.516ZM216.764 246.46L217.118 246.814L217.118 246.814L216.764 246.46ZM219.492 246.46L219.124 246.798L219.138 246.814L219.154 246.829L219.492 246.46ZM219.492 269.516L219.139 269.162L219.139 269.162L219.492 269.516ZM236.828 270V269.5C236.386 269.5 236.065 269.365 235.818 269.118L235.464 269.472L235.111 269.826C235.568 270.283 236.156 270.5 236.828 270.5V270ZM235.464 269.472L235.818 269.118C235.566 268.866 235.436 268.556 235.436 268.152H234.936H234.436C234.436 268.804 234.659 269.374 235.111 269.826L235.464 269.472ZM234.936 268.152H235.436V256.932H234.936H234.436V268.152H234.936ZM234.936 256.932H235.436C235.436 255.084 235.088 253.534 234.352 252.317L233.924 252.576L233.497 252.835C234.109 253.848 234.436 255.201 234.436 256.932H234.936ZM233.924 252.576L234.36 252.33C233.666 251.101 232.698 250.178 231.459 249.575L231.24 250.024L231.021 250.473C232.071 250.985 232.892 251.763 233.489 252.822L233.924 252.576ZM231.24 250.024L231.468 249.579C230.244 248.951 228.859 248.644 227.324 248.644V249.144V249.644C228.723 249.644 229.948 249.923 231.012 250.469L231.24 250.024ZM227.324 249.144V248.644C225.876 248.644 224.552 248.937 223.361 249.533L223.584 249.98L223.808 250.427C224.846 249.908 226.015 249.644 227.324 249.644V249.144ZM223.584 249.98L223.366 249.53C222.207 250.094 221.274 250.883 220.576 251.897L220.988 252.18L221.4 252.463C221.994 251.6 222.791 250.922 223.803 250.43L223.584 249.98ZM220.988 252.18L220.581 251.891C219.87 252.891 219.52 254.05 219.52 255.348H220.02H220.52C220.52 254.24 220.816 253.287 221.396 252.469L220.988 252.18ZM220.02 255.348V254.848H217.468V255.348V255.848H220.02V255.348ZM217.468 255.348L217.968 255.364C218.024 253.597 218.485 252.043 219.343 250.687L218.92 250.42L218.498 250.153C217.537 251.672 217.03 253.403 216.969 255.332L217.468 255.348ZM218.92 250.42L219.341 250.69C220.234 249.295 221.418 248.194 222.9 247.383L222.66 246.944L222.42 246.505C220.793 247.396 219.484 248.612 218.499 250.15L218.92 250.42ZM222.66 246.944L222.9 247.383C224.376 246.575 226.023 246.168 227.852 246.168V245.668V245.168C225.868 245.168 224.054 245.611 222.42 246.505L222.66 246.944ZM227.852 245.668V246.168C229.832 246.168 231.581 246.592 233.113 247.427L233.352 246.988L233.592 246.549C231.897 245.624 229.979 245.168 227.852 245.168V245.668ZM233.352 246.988L233.122 247.432C234.675 248.236 235.896 249.427 236.788 251.017L237.224 250.772L237.66 250.527C236.676 248.773 235.315 247.441 233.582 246.544L233.352 246.988ZM237.224 250.772L236.792 251.023C237.705 252.601 238.176 254.563 238.176 256.932H238.676H239.176C239.176 254.432 238.679 252.287 237.657 250.521L237.224 250.772ZM238.676 256.932H238.176V268.152H238.676H239.176V256.932H238.676ZM238.676 268.152H238.176C238.176 268.556 238.047 268.866 237.795 269.118L238.148 269.472L238.502 269.826C238.954 269.374 239.176 268.804 239.176 268.152H238.676ZM238.148 269.472L237.795 269.118C237.543 269.371 237.233 269.5 236.828 269.5V270V270.5C237.48 270.5 238.05 270.277 238.502 269.826L238.148 269.472ZM218.172 270V269.5C217.681 269.5 217.342 269.367 217.102 269.147L216.764 269.516L216.426 269.885C216.891 270.31 217.491 270.5 218.172 270.5V270ZM216.764 269.516L217.133 269.178C216.909 268.934 216.78 268.607 216.78 268.152H216.28H215.78C215.78 268.812 215.975 269.394 216.396 269.854L216.764 269.516ZM216.28 268.152H216.78V247.824H216.28H215.78V268.152H216.28ZM216.28 247.824H216.78C216.78 247.33 216.914 247.018 217.118 246.814L216.764 246.46L216.411 246.106C215.97 246.548 215.78 247.144 215.78 247.824H216.28ZM216.764 246.46L217.118 246.814C217.359 246.572 217.693 246.432 218.172 246.432V245.932V245.432C217.479 245.432 216.873 245.644 216.411 246.106L216.764 246.46ZM218.172 245.932V246.432C218.615 246.432 218.912 246.567 219.124 246.798L219.492 246.46L219.861 246.122C219.427 245.649 218.844 245.432 218.172 245.432V245.932ZM219.492 246.46L219.154 246.829C219.38 247.035 219.52 247.343 219.52 247.824H220.02H220.52C220.52 247.132 220.308 246.53 219.83 246.091L219.492 246.46ZM220.02 247.824H219.52V268.152H220.02H220.52V247.824H220.02ZM220.02 268.152H219.52C219.52 268.594 219.385 268.916 219.139 269.162L219.492 269.516L219.846 269.87C220.303 269.412 220.52 268.825 220.52 268.152H220.02ZM219.492 269.516L219.139 269.162C218.93 269.371 218.628 269.5 218.172 269.5V270V270.5C218.831 270.5 219.409 270.306 219.846 269.87L219.492 269.516ZM250.764 268.636L250.513 269.068L250.516 269.07L250.764 268.636ZM246.452 264.28L246.886 264.032L246.886 264.032L246.452 264.28ZM246.452 251.652L246.017 251.404L246.017 251.404L246.452 251.652ZM250.764 247.296L250.516 246.862L250.513 246.864L250.764 247.296ZM263.348 247.296L263.097 247.728L263.348 247.296ZM267.66 251.652L268.094 251.404L268.094 251.404L267.66 251.652ZM269.288 257.988H269.788L269.788 257.982L269.288 257.988ZM267.704 264.28L267.269 264.032L267.269 264.032L267.704 264.28ZM263.348 268.636L263.1 268.202L263.097 268.204L263.348 268.636ZM261.5 265.732L261.754 266.163L261.761 266.158L261.5 265.732ZM264.536 262.564L264.973 262.807L264.975 262.803L264.536 262.564ZM264.536 253.412L264.096 253.651L264.096 253.651L264.536 253.412ZM261.5 250.244L261.238 250.67L261.245 250.674L261.5 250.244ZM252.656 250.244L252.91 250.674L252.913 250.673L252.656 250.244ZM249.576 253.412L249.14 253.166L249.136 253.173L249.576 253.412ZM249.576 262.564L249.136 262.803L249.143 262.814L249.576 262.564ZM252.656 265.732L252.394 266.158L252.405 266.165L252.656 265.732ZM257.1 270.22V269.72C254.8 269.72 252.776 269.21 251.012 268.202L250.764 268.636L250.516 269.07C252.448 270.174 254.647 270.72 257.1 270.72V270.22ZM250.764 268.636L251.015 268.204C249.273 267.192 247.899 265.804 246.886 264.032L246.452 264.28L246.017 264.528C247.117 266.452 248.617 267.968 250.513 269.068L250.764 268.636ZM246.452 264.28L246.886 264.032C245.877 262.267 245.368 260.257 245.368 257.988H244.868H244.368C244.368 260.413 244.914 262.597 246.017 264.528L246.452 264.28ZM244.868 257.988H245.368C245.368 255.689 245.878 253.664 246.886 251.9L246.452 251.652L246.017 251.404C244.913 253.336 244.368 255.535 244.368 257.988H244.868ZM246.452 251.652L246.886 251.9C247.899 250.128 249.273 248.74 251.015 247.728L250.764 247.296L250.513 246.864C248.617 247.964 247.117 249.48 246.017 251.404L246.452 251.652ZM250.764 247.296L251.012 247.73C252.776 246.722 254.8 246.212 257.1 246.212V245.712V245.212C254.647 245.212 252.448 245.758 250.516 246.862L250.764 247.296ZM257.1 245.712V246.212C259.369 246.212 261.363 246.722 263.097 247.728L263.348 247.296L263.599 246.864C261.695 245.758 259.524 245.212 257.1 245.212V245.712ZM263.348 247.296L263.097 247.728C264.838 248.74 266.213 250.128 267.225 251.9L267.66 251.652L268.094 251.404C266.995 249.48 265.494 247.964 263.599 246.864L263.348 247.296ZM267.66 251.652L267.225 251.9C268.235 253.666 268.759 255.693 268.788 257.994L269.288 257.988L269.788 257.982C269.757 255.531 269.197 253.334 268.094 251.404L267.66 251.652ZM269.288 257.988H268.788C268.788 260.257 268.278 262.267 267.269 264.032L267.704 264.28L268.138 264.528C269.241 262.597 269.788 260.413 269.788 257.988H269.288ZM267.704 264.28L267.269 264.032C266.258 265.802 264.87 267.19 263.1 268.202L263.348 268.636L263.596 269.07C265.521 267.97 267.037 266.454 268.138 264.528L267.704 264.28ZM263.348 268.636L263.097 268.204C261.363 269.21 259.369 269.72 257.1 269.72V270.22V270.72C259.524 270.72 261.695 270.174 263.599 269.068L263.348 268.636ZM257.1 266.876V267.376C258.823 267.376 260.379 266.975 261.754 266.162L261.5 265.732L261.245 265.302C260.039 266.014 258.662 266.376 257.1 266.376V266.876ZM261.5 265.732L261.761 266.158C263.125 265.321 264.197 264.202 264.973 262.807L264.536 262.564L264.099 262.321C263.407 263.566 262.456 264.559 261.238 265.306L261.5 265.732ZM264.536 262.564L264.975 262.803C265.752 261.372 266.136 259.764 266.136 257.988H265.636H265.136C265.136 259.615 264.786 261.057 264.096 262.325L264.536 262.564ZM265.636 257.988H266.136C266.136 256.212 265.752 254.604 264.975 253.173L264.536 253.412L264.096 253.651C264.786 254.919 265.136 256.361 265.136 257.988H265.636ZM264.536 253.412L264.975 253.173C264.2 251.746 263.124 250.623 261.754 249.814L261.5 250.244L261.245 250.674C262.456 251.39 263.405 252.379 264.096 253.651L264.536 253.412ZM261.5 250.244L261.761 249.818C260.385 248.973 258.826 248.556 257.1 248.556V249.056V249.556C258.658 249.556 260.033 249.931 261.238 250.67L261.5 250.244ZM257.1 249.056V248.556C255.373 248.556 253.801 248.973 252.398 249.815L252.656 250.244L252.913 250.673C254.15 249.931 255.541 249.556 257.1 249.556V249.056ZM252.656 250.244L252.401 249.814C251.033 250.622 249.945 251.743 249.14 253.166L249.576 253.412L250.011 253.658C250.732 252.382 251.697 251.391 252.91 250.674L252.656 250.244ZM249.576 253.412L249.136 253.173C248.359 254.604 247.976 256.212 247.976 257.988H248.476H248.976C248.976 256.361 249.326 254.919 250.015 253.651L249.576 253.412ZM248.476 257.988H247.976C247.976 259.764 248.359 261.372 249.136 262.803L249.576 262.564L250.015 262.325C249.326 261.057 248.976 259.615 248.976 257.988H248.476ZM249.576 262.564L249.143 262.814C249.947 264.206 251.032 265.322 252.394 266.158L252.656 265.732L252.917 265.306C251.698 264.558 250.73 263.562 250.009 262.314L249.576 262.564ZM252.656 265.732L252.405 266.165C253.807 266.975 255.376 267.376 257.1 267.376V266.876V266.376C255.538 266.376 254.144 266.014 252.906 265.299L252.656 265.732ZM276.846 269.472L276.492 269.826L276.499 269.833L276.507 269.839L276.846 269.472ZM276.846 236.208L277.2 236.562L277.2 236.562L276.846 236.208ZM279.53 236.208L279.163 236.547L279.176 236.562L279.191 236.575L279.53 236.208ZM280.102 266.348H279.602V266.848H280.102V266.348ZM298.23 266.876L297.876 267.23L297.883 267.237L297.891 267.243L298.23 266.876ZM298.23 269.472L297.891 269.105L297.883 269.111L297.876 269.118L298.23 269.472ZM278.21 270V269.5C277.805 269.5 277.472 269.37 277.185 269.105L276.846 269.472L276.507 269.839C276.982 270.278 277.559 270.5 278.21 270.5V270ZM276.846 269.472L277.2 269.118C276.953 268.872 276.818 268.55 276.818 268.108H276.318H275.818C275.818 268.781 276.035 269.368 276.492 269.826L276.846 269.472ZM276.318 268.108H276.818V237.528H276.318H275.818V268.108H276.318ZM276.318 237.528H276.818C276.818 237.124 276.947 236.814 277.2 236.562L276.846 236.208L276.492 235.854C276.041 236.306 275.818 236.876 275.818 237.528H276.318ZM276.846 236.208L277.2 236.562C277.489 236.272 277.818 236.136 278.21 236.136V235.636V235.136C277.546 235.136 276.965 235.382 276.492 235.854L276.846 236.208ZM278.21 235.636V236.136C278.601 236.136 278.907 236.27 279.163 236.547L279.53 236.208L279.897 235.869C279.449 235.383 278.875 235.136 278.21 235.136V235.636ZM279.53 236.208L279.191 236.575C279.468 236.831 279.602 237.137 279.602 237.528H280.102H280.602C280.602 236.863 280.355 236.289 279.869 235.841L279.53 236.208ZM280.102 237.528H279.602V266.348H280.102H280.602V237.528H280.102ZM280.102 266.348V266.848H296.91V266.348V265.848H280.102V266.348ZM296.91 266.348V266.848C297.314 266.848 297.624 266.977 297.876 267.23L298.23 266.876L298.584 266.522C298.132 266.071 297.562 265.848 296.91 265.848V266.348ZM298.23 266.876L297.891 267.243C298.174 267.505 298.302 267.799 298.302 268.152H298.802H299.302C299.302 267.507 299.048 266.951 298.569 266.509L298.23 266.876ZM298.802 268.152H298.302C298.302 268.543 298.168 268.849 297.891 269.105L298.23 269.472L298.569 269.839C299.055 269.391 299.302 268.817 299.302 268.152H298.802ZM298.23 269.472L297.876 269.118C297.624 269.371 297.314 269.5 296.91 269.5V270V270.5C297.562 270.5 298.132 270.277 298.584 269.826L298.23 269.472ZM296.91 270V269.5H278.21V270V270.5H296.91V270ZM308.295 268.636L308.032 269.062L308.037 269.065L308.295 268.636ZM304.115 264.236L303.678 264.479L303.678 264.479L304.115 264.236ZM304.159 251.696L303.727 251.443L303.725 251.448L304.159 251.696ZM308.559 247.34L308.807 247.774L308.812 247.771L308.559 247.34ZM320.967 247.34L320.71 247.769L320.719 247.774L320.967 247.34ZM325.323 251.696L324.888 251.944L324.891 251.949L325.323 251.696ZM326.995 257.988L327.218 258.435L327.499 258.295L327.495 257.982L326.995 257.988ZM325.499 258.736L325.275 258.289L324.999 258.427V258.736H325.499ZM324.003 264.588L323.569 264.338L323.566 264.344L324.003 264.588ZM319.999 268.724L320.255 269.153L320.257 269.152L319.999 268.724ZM319.163 265.732L319.421 266.16L319.424 266.158L319.163 265.732ZM322.199 262.52L321.763 262.274L321.759 262.281L322.199 262.52ZM322.199 253.456L321.759 253.695L321.766 253.706L322.199 253.456ZM319.163 250.244L318.897 250.667L318.901 250.67L319.163 250.244ZM310.407 250.244L310.149 249.815L310.145 249.818L310.407 250.244ZM307.327 253.456L307.76 253.706L307.762 253.702L307.327 253.456ZM307.327 262.52L307.762 262.274L307.762 262.274L307.327 262.52ZM310.407 265.732L310.145 266.158L310.156 266.165L310.407 265.732ZM323.739 269.516L323.385 269.87L323.4 269.884L323.416 269.898L323.739 269.516ZM323.211 260.892L322.722 260.785L322.711 260.838V260.892H323.211ZM324.047 257.064L324.196 256.587L323.675 256.423L323.558 256.957L324.047 257.064ZM326.995 257.988H327.495V257.621L327.144 257.511L326.995 257.988ZM326.467 269.516L326.804 269.885L326.812 269.877L326.82 269.87L326.467 269.516ZM314.279 270.22V269.72C312.132 269.72 310.228 269.213 308.552 268.207L308.295 268.636L308.037 269.065C309.882 270.171 311.967 270.72 314.279 270.72V270.22ZM308.295 268.636L308.557 268.21C306.872 267.171 305.538 265.768 304.552 263.993L304.115 264.236L303.678 264.479C304.745 266.4 306.198 267.93 308.032 269.062L308.295 268.636ZM304.115 264.236L304.552 263.993C303.57 262.226 303.075 260.229 303.075 257.988H302.575H302.075C302.075 260.382 302.606 262.55 303.678 264.479L304.115 264.236ZM302.575 257.988H303.075C303.075 255.719 303.584 253.709 304.593 251.944L304.159 251.696L303.725 251.448C302.621 253.379 302.075 255.563 302.075 257.988H302.575ZM304.159 251.696L304.59 251.949C305.631 250.176 307.035 248.787 308.807 247.774L308.559 247.34L308.311 246.906C306.386 248.005 304.857 249.52 303.727 251.443L304.159 251.696ZM308.559 247.34L308.812 247.771C310.577 246.735 312.571 246.212 314.807 246.212V245.712V245.212C312.408 245.212 310.236 245.775 308.305 246.909L308.559 247.34ZM314.807 245.712V246.212C317.012 246.212 318.975 246.734 320.71 247.769L320.967 247.34L321.223 246.911C319.321 245.775 317.177 245.212 314.807 245.212V245.712ZM320.967 247.34L320.719 247.774C322.489 248.786 323.877 250.174 324.889 251.944L325.323 251.696L325.757 251.448C324.656 249.522 323.14 248.006 321.215 246.906L320.967 247.34ZM325.323 251.696L324.891 251.949C325.929 253.715 326.466 255.726 326.495 257.994L326.995 257.988L327.495 257.982C327.464 255.557 326.887 253.373 325.754 251.443L325.323 251.696ZM326.995 257.988L326.771 257.541L325.275 258.289L325.499 258.736L325.722 259.183L327.218 258.435L326.995 257.988ZM325.499 258.736H324.999C324.999 260.827 324.519 262.69 323.569 264.338L324.003 264.588L324.436 264.838C325.481 263.025 325.999 260.986 325.999 258.736H325.499ZM324.003 264.588L323.566 264.344C322.641 265.999 321.367 267.314 319.74 268.296L319.999 268.724L320.257 269.152C322.032 268.081 323.429 266.639 324.439 264.832L324.003 264.588ZM319.999 268.724L319.742 268.295C318.156 269.241 316.339 269.72 314.279 269.72V270.22V270.72C316.501 270.72 318.498 270.201 320.255 269.153L319.999 268.724ZM314.807 266.876V267.376C316.53 267.376 318.073 266.975 319.421 266.16L319.163 265.732L318.904 265.304C317.729 266.014 316.369 266.376 314.807 266.376V266.876ZM319.163 265.732L319.424 266.158C320.791 265.32 321.863 264.184 322.638 262.759L322.199 262.52L321.759 262.281C321.067 263.555 320.116 264.56 318.901 265.306L319.163 265.732ZM322.199 262.52L322.634 262.766C323.442 261.336 323.843 259.739 323.843 257.988H323.343H322.843C322.843 259.581 322.48 261.006 321.763 262.274L322.199 262.52ZM323.343 257.988H323.843C323.843 256.209 323.443 254.61 322.632 253.206L322.199 253.456L321.766 253.706C322.479 254.942 322.843 256.364 322.843 257.988H323.343ZM322.199 253.456L322.638 253.217C321.863 251.792 320.791 250.656 319.424 249.818L319.163 250.244L318.901 250.67C320.116 251.416 321.067 252.421 321.759 253.695L322.199 253.456ZM319.163 250.244L319.429 249.821C318.079 248.973 316.533 248.556 314.807 248.556V249.056V249.556C316.365 249.556 317.723 249.931 318.897 250.667L319.163 250.244ZM314.807 249.056V248.556C313.107 248.556 311.551 248.974 310.149 249.815L310.407 250.244L310.664 250.673C311.902 249.93 313.279 249.556 314.807 249.556V249.056ZM310.407 250.244L310.145 249.818C308.78 250.655 307.695 251.789 306.891 253.21L307.327 253.456L307.762 253.702C308.484 252.425 309.451 251.417 310.668 250.67L310.407 250.244ZM307.327 253.456L306.894 253.206C306.082 254.61 305.683 256.209 305.683 257.988H306.183H306.683C306.683 256.364 307.046 254.942 307.76 253.706L307.327 253.456ZM306.183 257.988H305.683C305.683 259.739 306.083 261.336 306.891 262.766L307.327 262.52L307.762 262.274C307.045 261.006 306.683 259.581 306.683 257.988H306.183ZM307.327 262.52L306.891 262.766C307.695 264.187 308.78 265.321 310.145 266.158L310.407 265.732L310.668 265.306C309.451 264.559 308.484 263.551 307.762 262.274L307.327 262.52ZM310.407 265.732L310.156 266.165C311.557 266.974 313.111 267.376 314.807 267.376V266.876V266.376C313.276 266.376 311.896 266.015 310.657 265.299L310.407 265.732ZM325.103 270V269.5C324.686 269.5 324.347 269.376 324.062 269.134L323.739 269.516L323.416 269.898C323.893 270.301 324.464 270.5 325.103 270.5V270ZM323.739 269.516L324.092 269.162C323.846 268.916 323.711 268.594 323.711 268.152H323.211H322.711C322.711 268.825 322.928 269.412 323.385 269.87L323.739 269.516ZM323.211 268.152H323.711V260.892H323.211H322.711V268.152H323.211ZM323.211 260.892L323.699 260.999L324.535 257.171L324.047 257.064L323.558 256.957L322.722 260.785L323.211 260.892ZM324.047 257.064L323.897 257.541L326.845 258.465L326.995 257.988L327.144 257.511L324.196 256.587L324.047 257.064ZM326.995 257.988H326.495V268.152H326.995H327.495V257.988H326.995ZM326.995 268.152H326.495C326.495 268.594 326.36 268.916 326.113 269.162L326.467 269.516L326.82 269.87C327.278 269.412 327.495 268.825 327.495 268.152H326.995ZM326.467 269.516L326.129 269.147C325.884 269.372 325.557 269.5 325.103 269.5V270V270.5C325.763 270.5 326.345 270.306 326.804 269.885L326.467 269.516ZM334.069 279.768L333.715 280.122L333.715 280.122L334.069 279.768ZM333.585 257.856L333.085 257.85V257.856H333.585ZM335.213 251.696L334.782 251.443L334.781 251.445L335.213 251.696ZM339.569 247.34L339.82 247.772L339.825 247.769L339.569 247.34ZM351.977 247.34L351.721 247.769L351.729 247.774L351.977 247.34ZM356.333 251.696L355.899 251.944L355.902 251.949L356.333 251.696ZM356.421 264.236L355.984 263.993L355.981 263.999L356.421 264.236ZM352.285 268.636L352.542 269.065L352.547 269.062L352.285 268.636ZM341.109 269.032L340.875 269.474L340.882 269.478L341.109 269.032ZM337.325 265.82L337.728 265.524L336.825 264.293V265.82H337.325ZM336.797 279.768L336.459 279.399L336.451 279.407L336.443 279.414L336.797 279.768ZM350.129 265.732L350.383 266.162L350.386 266.161L350.129 265.732ZM353.209 262.52L352.774 262.274L352.77 262.281L353.209 262.52ZM353.209 253.456L352.77 253.695L352.776 253.706L353.209 253.456ZM350.129 250.244L349.867 250.67L349.872 250.673L350.129 250.244ZM341.373 250.244L341.116 249.815L341.111 249.818L341.373 250.244ZM338.337 253.456L338.774 253.699L338.776 253.695L338.337 253.456ZM338.337 262.52L338.776 262.281L338.776 262.281L338.337 262.52ZM341.373 265.732L341.111 266.158L341.119 266.162L341.373 265.732ZM335.477 280.296V279.796C334.997 279.796 334.664 279.656 334.423 279.414L334.069 279.768L333.715 280.122C334.178 280.584 334.783 280.796 335.477 280.796V280.296ZM334.069 279.768L334.423 279.414C334.218 279.21 334.085 278.898 334.085 278.404H333.585H333.085C333.085 279.084 333.274 279.68 333.715 280.122L334.069 279.768ZM333.585 278.404H334.085V257.856H333.585H333.085V278.404H333.585ZM333.585 257.856L334.085 257.862C334.113 255.653 334.636 253.685 335.645 251.947L335.213 251.696L334.781 251.445C333.678 253.344 333.115 255.483 333.085 257.85L333.585 257.856ZM335.213 251.696L335.644 251.949C336.687 250.174 338.077 248.784 339.82 247.772L339.569 247.34L339.318 246.908C337.423 248.008 335.91 249.522 334.782 251.443L335.213 251.696ZM339.569 247.34L339.825 247.769C341.56 246.734 343.524 246.212 345.729 246.212V245.712V245.212C343.358 245.212 341.215 245.775 339.313 246.911L339.569 247.34ZM345.729 245.712V246.212C347.995 246.212 349.988 246.735 351.721 247.769L351.977 247.34L352.233 246.911C350.329 245.774 348.156 245.212 345.729 245.212V245.712ZM351.977 247.34L351.729 247.774C353.499 248.786 354.887 250.174 355.899 251.944L356.333 251.696L356.767 251.448C355.667 249.522 354.151 248.006 352.225 246.906L351.977 247.34ZM356.333 251.696L355.902 251.949C356.938 253.713 357.461 255.722 357.461 257.988H357.961H358.461C358.461 255.561 357.899 253.375 356.764 251.443L356.333 251.696ZM357.961 257.988H357.461C357.461 260.229 356.965 262.226 355.984 263.993L356.421 264.236L356.858 264.479C357.93 262.55 358.461 260.382 358.461 257.988H357.961ZM356.421 264.236L355.981 263.999C355.025 265.771 353.707 267.172 352.023 268.21L352.285 268.636L352.547 269.062C354.383 267.929 355.823 266.397 356.861 264.473L356.421 264.236ZM352.285 268.636L352.028 268.207C350.352 269.213 348.448 269.72 346.301 269.72V270.22V270.72C348.613 270.72 350.698 270.171 352.542 269.065L352.285 268.636ZM346.301 270.22V269.72C344.466 269.72 342.814 269.339 341.336 268.586L341.109 269.032L340.882 269.478C342.513 270.309 344.323 270.72 346.301 270.72V270.22ZM341.109 269.032L341.343 268.59C339.85 267.801 338.648 266.779 337.728 265.524L337.325 265.82L336.922 266.116C337.938 267.501 339.259 268.62 340.875 269.474L341.109 269.032ZM337.325 265.82H336.825V278.404H337.325H337.825V265.82H337.325ZM337.325 278.404H336.825C336.825 278.885 336.685 279.193 336.459 279.399L336.797 279.768L337.135 280.137C337.613 279.698 337.825 279.096 337.825 278.404H337.325ZM336.797 279.768L336.443 279.414C336.191 279.667 335.881 279.796 335.477 279.796V280.296V280.796C336.129 280.796 336.699 280.573 337.151 280.122L336.797 279.768ZM345.729 266.876V267.376C347.452 267.376 349.008 266.975 350.383 266.162L350.129 265.732L349.875 265.302C348.668 266.014 347.291 266.376 345.729 266.376V266.876ZM350.129 265.732L350.386 266.161C351.783 265.323 352.872 264.187 353.648 262.759L353.209 262.52L352.77 262.281C352.079 263.552 351.115 264.557 349.872 265.303L350.129 265.732ZM353.209 262.52L353.644 262.766C354.453 261.336 354.853 259.739 354.853 257.988H354.353H353.853C353.853 259.581 353.491 261.006 352.774 262.274L353.209 262.52ZM354.353 257.988H354.853C354.853 256.209 354.453 254.61 353.642 253.206L353.209 253.456L352.776 253.706C353.49 254.942 353.853 256.364 353.853 257.988H354.353ZM353.209 253.456L353.648 253.217C352.872 251.789 351.783 250.653 350.386 249.815L350.129 250.244L349.872 250.673C351.115 251.419 352.079 252.424 352.77 253.695L353.209 253.456ZM350.129 250.244L350.391 249.818C349.015 248.973 347.456 248.556 345.729 248.556V249.056V249.556C347.287 249.556 348.662 249.931 349.867 250.67L350.129 250.244ZM345.729 249.056V248.556C344.057 248.556 342.516 248.975 341.116 249.815L341.373 250.244L341.63 250.673C342.87 249.929 344.233 249.556 345.729 249.556V249.056ZM341.373 250.244L341.111 249.818C339.745 250.656 338.672 251.792 337.898 253.217L338.337 253.456L338.776 253.695C339.468 252.421 340.42 251.416 341.635 250.67L341.373 250.244ZM338.337 253.456L337.9 253.213C337.12 254.616 336.737 256.213 336.737 257.988H337.237H337.737C337.737 256.361 338.087 254.936 338.774 253.699L338.337 253.456ZM337.237 257.988H336.737C336.737 259.736 337.121 261.33 337.898 262.759L338.337 262.52L338.776 262.281C338.086 261.012 337.737 259.584 337.737 257.988H337.237ZM338.337 262.52L337.898 262.759C338.672 264.184 339.745 265.32 341.111 266.158L341.373 265.732L341.635 265.306C340.42 264.56 339.468 263.555 338.776 262.281L338.337 262.52ZM341.373 265.732L341.119 266.162C342.492 266.974 344.033 267.376 345.729 267.376V266.876V266.376C344.198 266.376 342.835 266.015 341.627 265.302L341.373 265.732ZM367.819 269.34L367.649 269.81L367.659 269.814L367.819 269.34ZM363.727 266.744L364.095 266.405L364.095 266.405L363.727 266.744ZM363.287 265.424L363.784 265.482L363.784 265.482L363.287 265.424ZM363.991 264.192L363.691 263.792L363.682 263.799L363.991 264.192ZM365.399 263.752L365.337 264.248L365.341 264.249L365.399 263.752ZM366.631 264.368L367.013 264.045L367.007 264.037L367 264.03L366.631 264.368ZM369.315 266.216L369.126 266.679L369.136 266.683L369.315 266.216ZM377.543 265.864L377.835 266.27L377.837 266.268L377.543 265.864ZM379.039 263.268L379.539 263.282L379.539 263.275V263.268H379.039ZM377.587 260.76L377.296 261.166L377.302 261.17L377.587 260.76ZM372.747 259.176L372.664 259.669L372.665 259.669L372.747 259.176ZM366.235 256.668L365.907 257.045L365.911 257.049L366.235 256.668ZM365.443 248.704L365.057 248.386L365.057 248.386L365.443 248.704ZM368.655 246.46L368.482 245.991L368.479 245.992L368.655 246.46ZM378.115 246.724L377.903 247.177L377.911 247.18L378.115 246.724ZM381.591 249.364L381.985 249.055L381.984 249.054L381.591 249.364ZM381.987 250.684L381.491 250.622L381.489 250.636L381.489 250.651L381.987 250.684ZM381.283 251.74L381.026 251.311L381.012 251.32L380.999 251.329L381.283 251.74ZM379.919 252.004L379.833 252.496L379.837 252.497L379.919 252.004ZM378.643 251.3L379.011 250.961L379.01 250.96L378.643 251.3ZM376.135 249.584L375.947 250.047L375.96 250.052L376.135 249.584ZM369.227 249.936L369.492 250.36L369.502 250.354L369.227 249.936ZM368.303 253.896L367.891 254.179L367.897 254.188L367.903 254.196L368.303 253.896ZM370.107 255.172L369.903 255.628L369.912 255.632L369.922 255.636L370.107 255.172ZM373.847 256.14L373.758 256.632L373.762 256.633L373.847 256.14ZM379.039 257.768L378.796 258.205L378.808 258.211L379.039 257.768ZM381.767 260.144L381.335 260.395L381.341 260.405L381.767 260.144ZM381.415 266.832L381.015 266.532L381.014 266.534L381.415 266.832ZM378.159 269.296L377.959 268.838L377.959 268.838L378.159 269.296ZM373.143 270.22V269.72C371.38 269.72 369.659 269.436 367.98 268.866L367.819 269.34L367.659 269.814C369.441 270.418 371.27 270.72 373.143 270.72V270.22ZM367.819 269.34L367.99 268.87C366.349 268.276 365.058 267.45 364.095 266.405L363.727 266.744L363.36 267.083C364.45 268.267 365.887 269.172 367.649 269.81L367.819 269.34ZM363.727 266.744L364.095 266.405C363.838 266.127 363.743 265.831 363.784 265.482L363.287 265.424L362.791 265.366C362.714 266.015 362.913 266.599 363.36 267.083L363.727 266.744ZM363.287 265.424L363.784 265.482C363.826 265.122 363.99 264.829 364.3 264.585L363.991 264.192L363.682 263.799C363.172 264.2 362.866 264.729 362.791 265.366L363.287 265.424ZM363.991 264.192L364.291 264.592C364.683 264.298 365.026 264.209 365.337 264.248L365.399 263.752L365.461 263.256C364.834 263.177 364.238 263.382 363.691 263.792L363.991 264.192ZM365.399 263.752L365.341 264.249C365.727 264.294 366.026 264.447 366.263 264.706L366.631 264.368L367 264.03C366.592 263.585 366.069 263.327 365.458 263.255L365.399 263.752ZM366.631 264.368L366.25 264.691C366.958 265.528 367.925 266.186 369.126 266.679L369.315 266.216L369.505 265.753C368.418 265.307 367.596 264.734 367.013 264.045L366.631 264.368ZM369.315 266.216L369.136 266.683C370.344 267.147 371.667 267.376 373.099 267.376V266.876V266.376C371.774 266.376 370.575 266.165 369.495 265.749L369.315 266.216ZM373.099 266.876V267.376C375.158 267.376 376.769 267.037 377.835 266.27L377.543 265.864L377.252 265.458C376.441 266.041 375.088 266.376 373.099 266.376V266.876ZM377.543 265.864L377.837 266.268C378.907 265.49 379.505 264.491 379.539 263.282L379.039 263.268L378.54 263.254C378.515 264.099 378.115 264.83 377.249 265.46L377.543 265.864ZM379.039 263.268H379.539C379.539 262.076 378.947 261.098 377.873 260.35L377.587 260.76L377.302 261.17C378.163 261.771 378.539 262.466 378.539 263.268H379.039ZM377.587 260.76L377.879 260.354C376.842 259.609 375.132 259.067 372.83 258.683L372.747 259.176L372.665 259.669C374.939 260.048 376.455 260.562 377.296 261.166L377.587 260.76ZM372.747 259.176L372.83 258.683C369.904 258.19 367.838 257.375 366.559 256.287L366.235 256.668L365.911 257.049C367.39 258.307 369.665 259.164 372.664 259.669L372.747 259.176ZM366.235 256.668L366.563 256.291C365.312 255.203 364.711 253.928 364.711 252.444H364.211H363.711C363.711 254.245 364.46 255.786 365.907 257.045L366.235 256.668ZM364.211 252.444H364.711C364.711 251.045 365.093 249.916 365.829 249.022L365.443 248.704L365.057 248.386C364.151 249.487 363.711 250.851 363.711 252.444H364.211ZM365.443 248.704L365.829 249.022C366.59 248.098 367.586 247.398 368.832 246.928L368.655 246.46L368.479 245.992C367.085 246.519 365.939 247.315 365.057 248.386L365.443 248.704ZM368.655 246.46L368.829 246.929C370.118 246.452 371.511 246.212 373.011 246.212V245.712V245.212C371.402 245.212 369.891 245.47 368.482 245.991L368.655 246.46ZM373.011 245.712V246.212C374.92 246.212 376.546 246.54 377.903 247.177L378.115 246.724L378.328 246.271C376.81 245.559 375.033 245.212 373.011 245.212V245.712ZM378.115 246.724L377.911 247.18C379.283 247.796 380.374 248.629 381.199 249.674L381.591 249.364L381.984 249.054C381.049 247.87 379.823 246.942 378.32 246.268L378.115 246.724ZM381.591 249.364L381.198 249.673C381.448 249.991 381.532 250.3 381.491 250.622L381.987 250.684L382.484 250.746C382.561 250.13 382.38 249.559 381.985 249.055L381.591 249.364ZM381.987 250.684L381.489 250.651C381.472 250.899 381.352 251.116 381.026 251.311L381.283 251.74L381.541 252.169C382.095 251.836 382.444 251.349 382.486 250.717L381.987 250.684ZM381.283 251.74L380.999 251.329C380.741 251.507 380.423 251.581 380.002 251.511L379.919 252.004L379.837 252.497C380.472 252.603 381.063 252.501 381.568 252.151L381.283 251.74ZM379.919 252.004L380.006 251.512C379.618 251.443 379.291 251.264 379.011 250.961L378.643 251.3L378.276 251.639C378.7 252.099 379.223 252.389 379.833 252.496L379.919 252.004ZM378.643 251.3L379.01 250.96C378.228 250.116 377.328 249.497 376.311 249.116L376.135 249.584L375.96 250.052C376.82 250.375 377.592 250.9 378.277 251.64L378.643 251.3ZM376.135 249.584L376.324 249.121C375.315 248.711 374.179 248.512 372.923 248.512V249.012V249.512C374.073 249.512 375.078 249.694 375.947 250.047L376.135 249.584ZM372.923 249.012V248.512C371.335 248.512 369.998 248.832 368.953 249.518L369.227 249.936L369.502 250.354C370.335 249.808 371.462 249.512 372.923 249.512V249.012ZM369.227 249.936L368.962 249.512C367.908 250.171 367.319 251.08 367.319 252.224H367.819H368.319C368.319 251.491 368.669 250.874 369.492 250.36L369.227 249.936ZM367.819 252.224H367.319C367.319 252.957 367.504 253.616 367.891 254.179L368.303 253.896L368.715 253.613C368.457 253.238 368.319 252.782 368.319 252.224H367.819ZM368.303 253.896L367.903 254.196C368.328 254.762 369.016 255.231 369.903 255.628L370.107 255.172L370.312 254.716C369.498 254.351 368.983 253.969 368.703 253.596L368.303 253.896ZM370.107 255.172L369.922 255.636C370.847 256.006 372.132 256.336 373.758 256.632L373.847 256.14L373.937 255.648C372.336 255.357 371.128 255.042 370.293 254.708L370.107 255.172ZM373.847 256.14L373.762 256.633C375.933 257.009 377.603 257.539 378.796 258.205L379.039 257.768L379.283 257.331C377.953 256.589 376.161 256.034 373.933 255.647L373.847 256.14ZM379.039 257.768L378.808 258.211C380.046 258.858 380.869 259.593 381.335 260.395L381.767 260.144L382.2 259.893C381.609 258.876 380.614 258.027 379.271 257.325L379.039 257.768ZM381.767 260.144L381.341 260.405C381.848 261.232 382.103 262.153 382.103 263.18H382.603H383.103C383.103 261.977 382.801 260.874 382.194 259.883L381.767 260.144ZM382.603 263.18H382.103C382.103 264.456 381.739 265.567 381.015 266.532L381.415 266.832L381.815 267.132C382.675 265.985 383.103 264.662 383.103 263.18H382.603ZM381.415 266.832L381.014 266.534C380.313 267.478 379.303 268.25 377.959 268.838L378.159 269.296L378.36 269.754C379.832 269.11 380.993 268.24 381.817 267.13L381.415 266.832ZM378.159 269.296L377.959 268.838C376.628 269.42 375.028 269.72 373.143 269.72V270.22V270.72C375.131 270.72 376.874 270.404 378.36 269.754L378.159 269.296ZM393.077 268.68L392.829 269.114L392.834 269.117L393.077 268.68ZM388.721 264.324L389.155 264.076L389.155 264.076L388.721 264.324ZM388.633 251.652L389.072 251.892L389.073 251.889L388.633 251.652ZM392.725 247.296L392.468 246.867L392.465 246.869L392.725 247.296ZM404.605 247.252L404.34 247.676L404.349 247.681L404.605 247.252ZM408.433 251.432L407.984 251.653L407.987 251.659L408.433 251.432ZM409.313 258.78L409.649 259.15L409.658 259.142L409.667 259.134L409.313 258.78ZM389.689 259.22H389.189V259.72H389.689V259.22ZM389.689 256.184V255.684H389.189V256.184H389.689ZM408.301 256.184L408.587 256.594L409.892 255.684H408.301V256.184ZM406.409 257.504L405.909 257.495L405.891 258.475L406.695 257.914L406.409 257.504ZM405.529 253.148L405.98 252.933L405.98 252.933L405.529 253.148ZM394.397 250.156L394.138 249.728L394.134 249.731L394.397 250.156ZM391.537 253.368L391.088 253.148L391.086 253.152L391.537 253.368ZM391.713 262.608L391.278 262.854L391.278 262.854L391.713 262.608ZM394.837 265.776L394.587 266.209L394.591 266.211L394.837 265.776ZM402.493 266.392L402.335 265.918L402.331 265.919L402.493 266.392ZM405.001 265.072L404.701 264.672L404.688 264.682L404.676 264.692L405.001 265.072ZM406.189 264.676V265.176H406.205L406.22 265.175L406.189 264.676ZM407.333 265.028L406.999 265.4L407.006 265.406L407.333 265.028ZM407.993 266.26H407.493V266.277L407.494 266.293L407.993 266.26ZM407.421 267.404L407.112 267.011L407.105 267.017L407.098 267.023L407.421 267.404ZM403.725 269.428L403.892 269.899L403.725 269.428ZM399.457 270.22V269.72C397.125 269.72 395.084 269.223 393.32 268.243L393.077 268.68L392.834 269.117C394.766 270.19 396.979 270.72 399.457 270.72V270.22ZM393.077 268.68L393.325 268.246C391.555 267.234 390.167 265.846 389.155 264.076L388.721 264.324L388.287 264.572C389.387 266.498 390.904 268.014 392.829 269.114L393.077 268.68ZM388.721 264.324L389.155 264.076C388.147 262.312 387.637 260.287 387.637 257.988H387.137H386.637C386.637 260.441 387.183 262.64 388.287 264.572L388.721 264.324ZM387.137 257.988H387.637C387.637 255.653 388.121 253.626 389.072 251.892L388.633 251.652L388.195 251.412C387.151 253.315 386.637 255.512 386.637 257.988H387.137ZM388.633 251.652L389.073 251.889C390.03 250.116 391.333 248.731 392.986 247.723L392.725 247.296L392.465 246.869C390.656 247.973 389.231 249.492 388.193 251.415L388.633 251.652ZM392.725 247.296L392.982 247.725C394.656 246.721 396.589 246.212 398.797 246.212V245.712V245.212C396.429 245.212 394.314 245.759 392.468 246.867L392.725 247.296ZM398.797 245.712V246.212C400.947 246.212 402.788 246.706 404.34 247.676L404.605 247.252L404.87 246.828C403.137 245.745 401.106 245.212 398.797 245.212V245.712ZM404.605 247.252L404.349 247.681C405.936 248.628 407.146 249.948 407.984 251.653L408.433 251.432L408.882 251.211C407.96 249.338 406.618 247.871 404.861 246.823L404.605 247.252ZM408.433 251.432L407.987 251.659C408.856 253.368 409.297 255.328 409.297 257.548H409.797H410.297C410.297 255.192 409.829 253.074 408.879 251.205L408.433 251.432ZM409.797 257.548H409.297C409.297 257.928 409.179 258.207 408.96 258.426L409.313 258.78L409.667 259.134C410.092 258.708 410.297 258.166 410.297 257.548H409.797ZM409.313 258.78L408.977 258.41C408.759 258.608 408.475 258.72 408.081 258.72V259.22V259.72C408.685 259.72 409.222 259.539 409.649 259.15L409.313 258.78ZM408.081 259.22V258.72H389.689V259.22V259.72H408.081V259.22ZM389.689 259.22H390.189V256.184H389.689H389.189V259.22H389.689ZM389.689 256.184V256.684H408.301V256.184V255.684H389.689V256.184ZM408.301 256.184L408.015 255.774L406.123 257.094L406.409 257.504L406.695 257.914L408.587 256.594L408.301 256.184ZM406.409 257.504L406.909 257.513C406.94 255.832 406.634 254.302 405.98 252.933L405.529 253.148L405.078 253.363C405.656 254.575 405.937 255.949 405.909 257.495L406.409 257.504ZM405.529 253.148L405.98 252.933C405.326 251.562 404.386 250.477 403.159 249.691L402.889 250.112L402.619 250.533C403.681 251.213 404.5 252.152 405.078 253.363L405.529 253.148ZM402.889 250.112L403.159 249.691C401.922 248.898 400.461 248.512 398.797 248.512V249.012V249.512C400.302 249.512 401.568 249.859 402.619 250.533L402.889 250.112ZM398.797 249.012V248.512C397.046 248.512 395.488 248.912 394.138 249.728L394.397 250.156L394.656 250.584C395.829 249.874 397.204 249.512 398.797 249.512V249.012ZM394.397 250.156L394.134 249.731C392.817 250.546 391.802 251.69 391.088 253.148L391.537 253.368L391.986 253.588C392.622 252.288 393.513 251.291 394.66 250.581L394.397 250.156ZM391.537 253.368L391.086 253.152C390.404 254.579 390.069 256.194 390.069 257.988H390.569H391.069C391.069 256.32 391.38 254.856 391.988 253.584L391.537 253.368ZM390.569 257.988H390.069C390.069 259.795 390.468 261.421 391.278 262.854L391.713 262.608L392.148 262.362C391.433 261.096 391.069 259.643 391.069 257.988H390.569ZM391.713 262.608L391.278 262.854C392.084 264.28 393.188 265.401 394.587 266.209L394.837 265.776L395.087 265.343C393.846 264.626 392.868 263.635 392.148 262.362L391.713 262.608ZM394.837 265.776L394.591 266.211C396.024 267.021 397.651 267.42 399.457 267.42V266.92V266.42C397.802 266.42 396.349 266.056 395.083 265.341L394.837 265.776ZM399.457 266.92V267.42C400.514 267.42 401.581 267.233 402.655 266.865L402.493 266.392L402.331 265.919C401.352 266.255 400.395 266.42 399.457 266.42V266.92ZM402.493 266.392L402.651 266.866C403.747 266.501 404.647 266.034 405.327 265.452L405.001 265.072L404.676 264.692C404.123 265.166 403.351 265.579 402.335 265.918L402.493 266.392ZM405.001 265.072L405.301 265.472C405.567 265.273 405.857 265.176 406.189 265.176V264.676V264.176C405.641 264.176 405.14 264.343 404.701 264.672L405.001 265.072ZM406.189 264.676L406.22 265.175C406.583 265.152 406.824 265.242 406.999 265.4L407.333 265.028L407.668 264.656C407.256 264.286 406.734 264.141 406.158 264.177L406.189 264.676ZM407.333 265.028L407.006 265.406C407.374 265.725 407.493 266.008 407.493 266.26H407.993H408.493C408.493 265.632 408.173 265.094 407.661 264.65L407.333 265.028ZM407.993 266.26L407.494 266.293C407.51 266.536 407.421 266.769 407.112 267.011L407.421 267.404L407.73 267.797C408.243 267.394 408.534 266.864 408.492 266.227L407.993 266.26ZM407.421 267.404L407.098 267.023C406.186 267.796 405.011 268.444 403.559 268.957L403.725 269.428L403.892 269.899C405.431 269.356 406.72 268.654 407.745 267.785L407.421 267.404ZM403.725 269.428L403.559 268.957C402.107 269.469 400.741 269.72 399.457 269.72V270.22V270.72C400.872 270.72 402.351 270.443 403.892 269.899L403.725 269.428Z" fill="#D4AF37"/>
</svg>
