<svg width="512" height="512" viewBox="0 0 512 512" fill="none" xmlns="http://www.w3.org/2000/svg">
<rect width="512" height="512" fill="white"/>
<path d="M106.6 224.48C104.008 224.48 101.576 224 99.304 223.04C97.064 222.048 95.096 220.688 93.4 218.96C91.736 217.2 90.424 215.152 89.464 212.816C88.536 210.48 88.072 207.952 88.072 205.232C88.072 202.544 88.536 200.048 89.464 197.744C90.424 195.408 91.736 193.376 93.4 191.648C95.096 189.888 97.064 188.512 99.304 187.52C101.544 186.528 103.976 186.032 106.6 186.032C109.064 186.032 111.176 186.352 112.936 186.992C114.728 187.632 116.52 188.688 118.312 190.16C118.568 190.352 118.76 190.56 118.888 190.784C119.048 190.976 119.144 191.184 119.176 191.408C119.24 191.6 119.272 191.84 119.272 192.128C119.272 192.736 119.048 193.248 118.6 193.664C118.184 194.048 117.672 194.272 117.064 194.336C116.456 194.368 115.864 194.16 115.288 193.712C114.104 192.688 112.872 191.904 111.592 191.36C110.344 190.816 108.68 190.544 106.6 190.544C104.712 190.544 102.936 190.928 101.272 191.696C99.608 192.464 98.136 193.52 96.856 194.864C95.608 196.208 94.632 197.776 93.928 199.568C93.224 201.328 92.872 203.216 92.872 205.232C92.872 207.28 93.224 209.2 93.928 210.992C94.632 212.752 95.608 214.304 96.856 215.648C98.136 216.992 99.608 218.048 101.272 218.816C102.936 219.552 104.712 219.92 106.6 219.92C108.232 219.92 109.768 219.648 111.208 219.104C112.68 218.528 114.088 217.744 115.432 216.752C116.008 216.336 116.568 216.16 117.112 216.224C117.688 216.256 118.168 216.48 118.552 216.896C118.936 217.28 119.128 217.824 119.128 218.528C119.128 218.848 119.064 219.168 118.936 219.488C118.808 219.776 118.616 220.048 118.36 220.304C116.632 221.68 114.776 222.72 112.792 223.424C110.84 224.128 108.776 224.48 106.6 224.48ZM129.081 214.448C128.377 214.448 127.785 214.224 127.305 213.776C126.857 213.296 126.633 212.704 126.633 212V188.96C126.633 188.224 126.857 187.632 127.305 187.184C127.785 186.736 128.377 186.512 129.081 186.512C129.817 186.512 130.409 186.736 130.857 187.184C131.305 187.632 131.529 188.224 131.529 188.96V212C131.529 212.704 131.305 213.296 130.857 213.776C130.409 214.224 129.817 214.448 129.081 214.448ZM148.809 224.048C148.105 224.048 147.513 223.824 147.033 223.376C146.585 222.896 146.361 222.304 146.361 221.6V209.792C146.361 207.968 146.025 206.48 145.353 205.328C144.681 204.176 143.769 203.328 142.617 202.784C141.497 202.208 140.201 201.92 138.729 201.92C137.385 201.92 136.169 202.192 135.081 202.736C133.993 203.28 133.129 204.016 132.489 204.944C131.849 205.84 131.529 206.88 131.529 208.064H128.505C128.505 206.048 128.985 204.256 129.945 202.688C130.937 201.088 132.281 199.824 133.977 198.896C135.673 197.968 137.577 197.504 139.689 197.504C141.897 197.504 143.865 197.984 145.593 198.944C147.353 199.872 148.729 201.248 149.721 203.072C150.745 204.896 151.257 207.136 151.257 209.792V221.6C151.257 222.304 151.017 222.896 150.536 223.376C150.089 223.824 149.513 224.048 148.809 224.048ZM129.081 224.048C128.377 224.048 127.785 223.824 127.305 223.376C126.857 222.896 126.633 222.304 126.633 221.6V200.192C126.633 199.456 126.857 198.864 127.305 198.416C127.785 197.968 128.377 197.744 129.081 197.744C129.817 197.744 130.409 197.968 130.857 198.416C131.305 198.864 131.529 199.456 131.529 200.192V221.6C131.529 222.304 131.305 222.896 130.857 223.376C130.409 223.824 129.817 224.048 129.081 224.048ZM161.75 207.584C161.75 205.664 162.214 203.952 163.142 202.448C164.102 200.912 165.382 199.696 166.982 198.8C168.582 197.904 170.342 197.456 172.262 197.456C174.182 197.456 175.606 197.776 176.534 198.416C177.494 199.024 177.862 199.76 177.638 200.624C177.542 201.072 177.35 201.424 177.062 201.68C176.806 201.904 176.502 202.048 176.15 202.112C175.798 202.176 175.414 202.16 174.998 202.064C172.95 201.648 171.11 201.616 169.478 201.968C167.846 202.32 166.55 202.976 165.59 203.936C164.662 204.896 164.198 206.112 164.198 207.584H161.75ZM161.798 224C161.03 224 160.438 223.808 160.022 223.424C159.606 223.008 159.398 222.4 159.398 221.6V200.144C159.398 199.376 159.606 198.784 160.022 198.368C160.438 197.952 161.03 197.744 161.798 197.744C162.598 197.744 163.19 197.952 163.574 198.368C163.99 198.752 164.198 199.344 164.198 200.144V221.6C164.198 222.368 163.99 222.96 163.574 223.376C163.19 223.792 162.598 224 161.798 224ZM192.724 224.192C190.132 224.192 187.844 223.632 185.86 222.512C183.876 221.36 182.308 219.792 181.156 217.808C180.036 215.792 179.476 213.488 179.476 210.896C179.476 208.272 180.036 205.968 181.156 203.984C182.308 201.968 183.876 200.4 185.86 199.28C187.844 198.128 190.132 197.552 192.724 197.552C195.284 197.552 197.556 198.128 199.54 199.28C201.524 200.4 203.076 201.968 204.196 203.984C205.348 205.968 205.924 208.272 205.924 210.896C205.924 213.488 205.364 215.792 204.244 217.808C203.124 219.792 201.572 221.36 199.588 222.512C197.604 223.632 195.316 224.192 192.724 224.192ZM192.724 219.872C194.388 219.872 195.86 219.488 197.14 218.72C198.42 217.952 199.412 216.896 200.116 215.552C200.852 214.208 201.22 212.656 201.22 210.896C201.22 209.136 200.852 207.584 200.116 206.24C199.412 204.864 198.42 203.792 197.14 203.024C195.86 202.256 194.388 201.872 192.724 201.872C191.06 201.872 189.588 202.256 188.308 203.024C187.028 203.792 186.02 204.864 185.284 206.24C184.548 207.584 184.18 209.136 184.18 210.896C184.18 212.656 184.548 214.208 185.284 215.552C186.02 216.896 187.028 217.952 188.308 218.72C189.588 219.488 191.06 219.872 192.724 219.872ZM235.387 224.048C234.683 224.048 234.091 223.824 233.611 223.376C233.163 222.896 232.939 222.304 232.939 221.6V209.792C232.939 207.968 232.603 206.48 231.931 205.328C231.259 204.176 230.347 203.328 229.195 202.784C228.075 202.208 226.779 201.92 225.307 201.92C223.963 201.92 222.747 202.192 221.659 202.736C220.571 203.28 219.707 204.016 219.067 204.944C218.427 205.84 218.107 206.88 218.107 208.064H215.083C215.083 206.048 215.563 204.256 216.523 202.688C217.515 201.088 218.859 199.824 220.555 198.896C222.251 197.968 224.155 197.504 226.267 197.504C228.475 197.504 230.443 197.984 232.171 198.944C233.931 199.872 235.307 201.248 236.299 203.072C237.323 204.896 237.835 207.136 237.835 209.792V221.6C237.835 222.304 237.595 222.896 237.115 223.376C236.667 223.824 236.091 224.048 235.387 224.048ZM215.659 224.048C214.955 224.048 214.363 223.824 213.883 223.376C213.435 222.896 213.211 222.304 213.211 221.6V200.192C213.211 199.456 213.435 198.864 213.883 198.416C214.363 197.968 214.955 197.744 215.659 197.744C216.395 197.744 216.987 197.968 217.435 198.416C217.883 198.864 218.107 199.456 218.107 200.192V221.6C218.107 222.304 217.883 222.896 217.435 223.376C216.987 223.824 216.395 224.048 215.659 224.048ZM257.833 224.192C255.241 224.192 252.953 223.632 250.969 222.512C248.985 221.36 247.417 219.792 246.265 217.808C245.145 215.792 244.585 213.488 244.585 210.896C244.585 208.272 245.145 205.968 246.265 203.984C247.417 201.968 248.985 200.4 250.969 199.28C252.953 198.128 255.241 197.552 257.833 197.552C260.393 197.552 262.665 198.128 264.649 199.28C266.633 200.4 268.185 201.968 269.305 203.984C270.457 205.968 271.033 208.272 271.033 210.896C271.033 213.488 270.473 215.792 269.353 217.808C268.233 219.792 266.681 221.36 264.697 222.512C262.713 223.632 260.425 224.192 257.833 224.192ZM257.833 219.872C259.497 219.872 260.969 219.488 262.249 218.72C263.529 217.952 264.521 216.896 265.225 215.552C265.961 214.208 266.329 212.656 266.329 210.896C266.329 209.136 265.961 207.584 265.225 206.24C264.521 204.864 263.529 203.792 262.249 203.024C260.969 202.256 259.497 201.872 257.833 201.872C256.169 201.872 254.697 202.256 253.417 203.024C252.137 203.792 251.129 204.864 250.393 206.24C249.657 207.584 249.289 209.136 249.289 210.896C249.289 212.656 249.657 214.208 250.393 215.552C251.129 216.896 252.137 217.952 253.417 218.72C254.697 219.488 256.169 219.872 257.833 219.872ZM281.248 224C280.544 224 279.952 223.76 279.472 223.28C279.024 222.8 278.8 222.208 278.8 221.504V189.008C278.8 188.304 279.04 187.712 279.52 187.232C280 186.752 280.576 186.512 281.248 186.512C281.952 186.512 282.544 186.752 283.024 187.232C283.504 187.712 283.744 188.304 283.744 189.008V219.008H301.12C301.824 219.008 302.416 219.248 302.896 219.728C303.376 220.208 303.616 220.8 303.616 221.504C303.616 222.208 303.376 222.8 302.896 223.28C302.416 223.76 301.824 224 301.12 224H281.248ZM320.061 224.192C317.725 224.192 315.629 223.616 313.773 222.464C311.917 221.28 310.445 219.696 309.357 217.712C308.301 215.696 307.773 213.424 307.773 210.896C307.773 208.368 308.349 206.096 309.501 204.08C310.685 202.064 312.269 200.48 314.253 199.328C316.269 198.144 318.525 197.552 321.021 197.552C323.517 197.552 325.757 198.144 327.741 199.328C329.725 200.48 331.293 202.064 332.445 204.08C333.629 206.096 334.221 208.368 334.221 210.896H332.349C332.349 213.424 331.805 215.696 330.717 217.712C329.661 219.696 328.205 221.28 326.349 222.464C324.493 223.616 322.397 224.192 320.061 224.192ZM321.021 219.872C322.653 219.872 324.109 219.488 325.389 218.72C326.669 217.92 327.677 216.848 328.413 215.504C329.149 214.128 329.517 212.592 329.517 210.896C329.517 209.168 329.149 207.632 328.413 206.288C327.677 204.912 326.669 203.84 325.389 203.072C324.109 202.272 322.653 201.872 321.021 201.872C319.421 201.872 317.965 202.272 316.653 203.072C315.373 203.84 314.349 204.912 313.581 206.288C312.845 207.632 312.477 209.168 312.477 210.896C312.477 212.592 312.845 214.128 313.581 215.504C314.349 216.848 315.373 217.92 316.653 218.72C317.965 219.488 319.421 219.872 321.021 219.872ZM331.773 224.048C331.069 224.048 330.477 223.824 329.997 223.376C329.549 222.896 329.325 222.304 329.325 221.6V214.256L330.237 209.168L334.221 210.896V221.6C334.221 222.304 333.981 222.896 333.501 223.376C333.053 223.824 332.477 224.048 331.773 224.048ZM343.956 235.232C343.252 235.232 342.66 234.992 342.18 234.512C341.732 234.064 341.508 233.488 341.508 232.784V210.896C341.54 208.368 342.132 206.096 343.284 204.08C344.436 202.064 346.004 200.48 347.988 199.328C349.972 198.144 352.212 197.552 354.708 197.552C357.236 197.552 359.492 198.144 361.476 199.328C363.46 200.48 365.028 202.064 366.18 204.08C367.364 206.096 367.956 208.368 367.956 210.896C367.956 213.424 367.412 215.696 366.324 217.712C365.268 219.696 363.812 221.28 361.956 222.464C360.1 223.616 358.004 224.192 355.668 224.192C353.78 224.192 352.036 223.808 350.436 223.04C348.868 222.24 347.524 221.168 346.404 219.824V232.784C346.404 233.488 346.18 234.064 345.732 234.512C345.284 234.992 344.692 235.232 343.956 235.232ZM354.708 219.872C356.34 219.872 357.796 219.488 359.076 218.72C360.356 217.92 361.364 216.848 362.1 215.504C362.868 214.128 363.252 212.592 363.252 210.896C363.252 209.168 362.868 207.632 362.1 206.288C361.364 204.912 360.356 203.84 359.076 203.072C357.796 202.272 356.34 201.872 354.708 201.872C353.108 201.872 351.652 202.272 350.34 203.072C349.06 203.84 348.052 204.912 347.316 206.288C346.58 207.632 346.212 209.168 346.212 210.896C346.212 212.592 346.58 214.128 347.316 215.504C348.052 216.848 349.06 217.92 350.34 218.72C351.652 219.488 353.108 219.872 354.708 219.872ZM384.81 224.192C382.57 224.192 380.49 223.856 378.57 223.184C376.682 222.48 375.21 221.6 374.154 220.544C373.674 220.032 373.466 219.456 373.53 218.816C373.626 218.144 373.946 217.6 374.49 217.184C375.13 216.672 375.754 216.464 376.362 216.56C377.002 216.624 377.546 216.896 377.993 217.376C378.538 217.984 379.402 218.56 380.586 219.104C381.802 219.616 383.146 219.872 384.618 219.872C386.474 219.872 387.882 219.568 388.842 218.96C389.834 218.352 390.346 217.568 390.378 216.608C390.41 215.648 389.946 214.816 388.986 214.112C388.058 213.408 386.346 212.832 383.85 212.384C380.618 211.744 378.266 210.784 376.794 209.504C375.354 208.224 374.634 206.656 374.634 204.8C374.634 203.168 375.114 201.824 376.074 200.768C377.034 199.68 378.266 198.88 379.77 198.368C381.274 197.824 382.842 197.552 384.474 197.552C386.586 197.552 388.458 197.888 390.09 198.56C391.722 199.232 393.018 200.16 393.978 201.344C394.426 201.856 394.634 202.4 394.602 202.976C394.57 203.52 394.298 203.984 393.786 204.368C393.274 204.72 392.666 204.832 391.962 204.704C391.258 204.576 390.666 204.288 390.186 203.84C389.386 203.072 388.522 202.544 387.594 202.256C386.666 201.968 385.594 201.824 384.378 201.824C382.97 201.824 381.77 202.064 380.778 202.544C379.818 203.024 379.338 203.728 379.338 204.656C379.338 205.232 379.482 205.76 379.77 206.24C380.09 206.688 380.698 207.104 381.594 207.488C382.49 207.84 383.802 208.192 385.53 208.544C387.93 209.024 389.818 209.632 391.194 210.368C392.602 211.104 393.61 211.968 394.218 212.96C394.826 213.92 395.13 215.04 395.13 216.32C395.13 217.792 394.73 219.12 393.93 220.304C393.162 221.488 392.01 222.432 390.474 223.136C388.97 223.84 387.082 224.192 384.81 224.192ZM413.656 224.192C411 224.192 408.632 223.632 406.552 222.512C404.504 221.36 402.888 219.792 401.704 217.808C400.552 215.792 399.976 213.488 399.976 210.896C399.976 208.272 400.52 205.968 401.608 203.984C402.728 201.968 404.264 200.4 406.216 199.28C408.168 198.128 410.408 197.552 412.936 197.552C415.432 197.552 417.576 198.112 419.368 199.232C421.16 200.32 422.52 201.84 423.448 203.792C424.408 205.712 424.888 207.936 424.888 210.464C424.888 211.072 424.68 211.584 424.264 212C423.848 212.384 423.32 212.576 422.68 212.576H403.336V208.736H422.536L420.568 210.08C420.536 208.48 420.216 207.056 419.608 205.808C419 204.528 418.136 203.52 417.016 202.784C415.896 202.048 414.536 201.68 412.936 201.68C411.112 201.68 409.544 202.08 408.232 202.88C406.952 203.68 405.976 204.784 405.304 206.192C404.632 207.568 404.296 209.136 404.296 210.896C404.296 212.656 404.696 214.224 405.496 215.6C406.296 216.976 407.4 218.064 408.808 218.864C410.216 219.664 411.832 220.064 413.656 220.064C414.648 220.064 415.656 219.888 416.68 219.536C417.736 219.152 418.584 218.72 419.224 218.24C419.704 217.888 420.216 217.712 420.76 217.712C421.336 217.68 421.832 217.84 422.248 218.192C422.792 218.672 423.08 219.2 423.112 219.776C423.144 220.352 422.888 220.848 422.344 221.264C421.256 222.128 419.896 222.832 418.264 223.376C416.664 223.92 415.128 224.192 413.656 224.192Z" fill="#D4AF37"/>
<path d="M256 299C262.627 299 268 293.627 268 287C268 280.373 262.627 275 256 275C249.373 275 244 280.373 244 287C244 293.627 249.373 299 256 299Z" stroke="#D4AF37" stroke-width="5"/>
<path d="M247.112 319H264.888C277.372 319 283.616 319 288.1 316.06C290.035 314.793 291.702 313.156 293.004 311.244C296 306.844 296 300.712 296 288.456C296 276.2 296 270.068 293.004 265.668C291.702 263.756 290.035 262.119 288.1 260.852C285.22 258.96 281.612 258.284 276.088 258.044C273.452 258.044 271.184 256.084 270.668 253.544C270.274 251.683 269.249 250.016 267.767 248.824C266.286 247.631 264.438 246.987 262.536 247H249.464C245.512 247 242.108 249.74 241.332 253.544C240.816 256.084 238.548 258.044 235.912 258.044C230.392 258.284 226.784 258.964 223.9 260.852C221.966 262.12 220.301 263.756 219 265.668C216 270.068 216 276.196 216 288.456C216 300.716 216 306.84 218.996 311.244C220.292 313.148 221.956 314.784 223.9 316.06C228.384 319 234.628 319 247.112 319Z" stroke="#D4AF37" stroke-width="5"/>
<path d="M284 275H280" stroke="#D4AF37" stroke-width="5" stroke-linecap="round"/>
</svg>
