<svg width="512" height="512" viewBox="0 0 512 512" fill="none" xmlns="http://www.w3.org/2000/svg">
<rect width="512" height="512" fill="white"/>
<path d="M43.6 278.68C39.928 278.68 36.4827 278 33.264 276.64C30.0907 275.235 27.3027 273.308 24.9 270.86C22.5427 268.367 20.684 265.465 19.324 262.156C18.0093 258.847 17.352 255.265 17.352 251.412C17.352 247.604 18.0093 244.068 19.324 240.804C20.684 237.495 22.5427 234.616 24.9 232.168C27.3027 229.675 30.0907 227.725 33.264 226.32C36.4373 224.915 39.8827 224.212 43.6 224.212C47.0907 224.212 50.0827 224.665 52.576 225.572C55.1147 226.479 57.6533 227.975 60.192 230.06C60.5547 230.332 60.8267 230.627 61.008 230.944C61.2347 231.216 61.3707 231.511 61.416 231.828C61.5067 232.1 61.552 232.44 61.552 232.848C61.552 233.709 61.2347 234.435 60.6 235.024C60.0107 235.568 59.2853 235.885 58.424 235.976C57.5627 236.021 56.724 235.727 55.908 235.092C54.2307 233.641 52.4853 232.531 50.672 231.76C48.904 230.989 46.5467 230.604 43.6 230.604C40.9253 230.604 38.4093 231.148 36.052 232.236C33.6947 233.324 31.6093 234.82 29.796 236.724C28.028 238.628 26.6453 240.849 25.648 243.388C24.6507 245.881 24.152 248.556 24.152 251.412C24.152 254.313 24.6507 257.033 25.648 259.572C26.6453 262.065 28.028 264.264 29.796 266.168C31.6093 268.072 33.6947 269.568 36.052 270.656C38.4093 271.699 40.9253 272.22 43.6 272.22C45.912 272.22 48.088 271.835 50.128 271.064C52.2133 270.248 54.208 269.137 56.112 267.732C56.928 267.143 57.7213 266.893 58.492 266.984C59.308 267.029 59.988 267.347 60.532 267.936C61.076 268.48 61.348 269.251 61.348 270.248C61.348 270.701 61.2573 271.155 61.076 271.608C60.8947 272.016 60.6227 272.401 60.26 272.764C57.812 274.713 55.1827 276.187 52.372 277.184C49.6067 278.181 46.6827 278.68 43.6 278.68ZM75.4474 264.468C74.45 264.468 73.6114 264.151 72.9314 263.516C72.2967 262.836 71.9794 261.997 71.9794 261V228.36C71.9794 227.317 72.2967 226.479 72.9314 225.844C73.6114 225.209 74.45 224.892 75.4474 224.892C76.49 224.892 77.3287 225.209 77.9634 225.844C78.598 226.479 78.9154 227.317 78.9154 228.36V261C78.9154 261.997 78.598 262.836 77.9634 263.516C77.3287 264.151 76.49 264.468 75.4474 264.468ZM103.395 278.068C102.398 278.068 101.559 277.751 100.879 277.116C100.245 276.436 99.9274 275.597 99.9274 274.6V257.872C99.9274 255.288 99.4514 253.18 98.4994 251.548C97.5474 249.916 96.2554 248.715 94.6234 247.944C93.0367 247.128 91.2007 246.72 89.1154 246.72C87.2114 246.72 85.4887 247.105 83.9474 247.876C82.406 248.647 81.182 249.689 80.2754 251.004C79.3687 252.273 78.9154 253.747 78.9154 255.424H74.6314C74.6314 252.568 75.3114 250.029 76.6714 247.808C78.0767 245.541 79.9807 243.751 82.3834 242.436C84.786 241.121 87.4834 240.464 90.4754 240.464C93.6034 240.464 96.3914 241.144 98.8394 242.504C101.333 243.819 103.282 245.768 104.687 248.352C106.138 250.936 106.863 254.109 106.863 257.872V274.6C106.863 275.597 106.523 276.436 105.843 277.116C105.209 277.751 104.393 278.068 103.395 278.068ZM75.4474 278.068C74.45 278.068 73.6114 277.751 72.9314 277.116C72.2967 276.436 71.9794 275.597 71.9794 274.6V244.272C71.9794 243.229 72.2967 242.391 72.9314 241.756C73.6114 241.121 74.45 240.804 75.4474 240.804C76.49 240.804 77.3287 241.121 77.9634 241.756C78.598 242.391 78.9154 243.229 78.9154 244.272V274.6C78.9154 275.597 78.598 276.436 77.9634 277.116C77.3287 277.751 76.49 278.068 75.4474 278.068ZM121.729 254.744C121.729 252.024 122.387 249.599 123.701 247.468C125.061 245.292 126.875 243.569 129.141 242.3C131.408 241.031 133.901 240.396 136.621 240.396C139.341 240.396 141.359 240.849 142.673 241.756C144.033 242.617 144.555 243.66 144.237 244.884C144.101 245.519 143.829 246.017 143.421 246.38C143.059 246.697 142.628 246.901 142.129 246.992C141.631 247.083 141.087 247.06 140.497 246.924C137.596 246.335 134.989 246.289 132.677 246.788C130.365 247.287 128.529 248.216 127.169 249.576C125.855 250.936 125.197 252.659 125.197 254.744H121.729ZM121.797 278C120.709 278 119.871 277.728 119.281 277.184C118.692 276.595 118.397 275.733 118.397 274.6V244.204C118.397 243.116 118.692 242.277 119.281 241.688C119.871 241.099 120.709 240.804 121.797 240.804C122.931 240.804 123.769 241.099 124.313 241.688C124.903 242.232 125.197 243.071 125.197 244.204V274.6C125.197 275.688 124.903 276.527 124.313 277.116C123.769 277.705 122.931 278 121.797 278ZM165.609 278.272C161.937 278.272 158.696 277.479 155.885 275.892C153.074 274.26 150.853 272.039 149.221 269.228C147.634 266.372 146.841 263.108 146.841 259.436C146.841 255.719 147.634 252.455 149.221 249.644C150.853 246.788 153.074 244.567 155.885 242.98C158.696 241.348 161.937 240.532 165.609 240.532C169.236 240.532 172.454 241.348 175.265 242.98C178.076 244.567 180.274 246.788 181.861 249.644C183.493 252.455 184.309 255.719 184.309 259.436C184.309 263.108 183.516 266.372 181.929 269.228C180.342 272.039 178.144 274.26 175.333 275.892C172.522 277.479 169.281 278.272 165.609 278.272ZM165.609 272.152C167.966 272.152 170.052 271.608 171.865 270.52C173.678 269.432 175.084 267.936 176.081 266.032C177.124 264.128 177.645 261.929 177.645 259.436C177.645 256.943 177.124 254.744 176.081 252.84C175.084 250.891 173.678 249.372 171.865 248.284C170.052 247.196 167.966 246.652 165.609 246.652C163.252 246.652 161.166 247.196 159.353 248.284C157.54 249.372 156.112 250.891 155.069 252.84C154.026 254.744 153.505 256.943 153.505 259.436C153.505 261.929 154.026 264.128 155.069 266.032C156.112 267.936 157.54 269.432 159.353 270.52C161.166 271.608 163.252 272.152 165.609 272.152ZM226.048 278.068C225.05 278.068 224.212 277.751 223.532 277.116C222.897 276.436 222.58 275.597 222.58 274.6V257.872C222.58 255.288 222.104 253.18 221.152 251.548C220.2 249.916 218.908 248.715 217.276 247.944C215.689 247.128 213.853 246.72 211.768 246.72C209.864 246.72 208.141 247.105 206.6 247.876C205.058 248.647 203.834 249.689 202.928 251.004C202.021 252.273 201.568 253.747 201.568 255.424H197.284C197.284 252.568 197.964 250.029 199.324 247.808C200.729 245.541 202.633 243.751 205.036 242.436C207.438 241.121 210.136 240.464 213.128 240.464C216.256 240.464 219.044 241.144 221.492 242.504C223.985 243.819 225.934 245.768 227.34 248.352C228.79 250.936 229.516 254.109 229.516 257.872V274.6C229.516 275.597 229.176 276.436 228.496 277.116C227.861 277.751 227.045 278.068 226.048 278.068ZM198.1 278.068C197.102 278.068 196.264 277.751 195.584 277.116C194.949 276.436 194.632 275.597 194.632 274.6V244.272C194.632 243.229 194.949 242.391 195.584 241.756C196.264 241.121 197.102 240.804 198.1 240.804C199.142 240.804 199.981 241.121 200.616 241.756C201.25 242.391 201.568 243.229 201.568 244.272V274.6C201.568 275.597 201.25 276.436 200.616 277.116C199.981 277.751 199.142 278.068 198.1 278.068ZM257.847 278.272C254.175 278.272 250.934 277.479 248.123 275.892C245.313 274.26 243.091 272.039 241.459 269.228C239.873 266.372 239.079 263.108 239.079 259.436C239.079 255.719 239.873 252.455 241.459 249.644C243.091 246.788 245.313 244.567 248.123 242.98C250.934 241.348 254.175 240.532 257.847 240.532C261.474 240.532 264.693 241.348 267.503 242.98C270.314 244.567 272.513 246.788 274.099 249.644C275.731 252.455 276.547 255.719 276.547 259.436C276.547 263.108 275.754 266.372 274.167 269.228C272.581 272.039 270.382 274.26 267.571 275.892C264.761 277.479 261.519 278.272 257.847 278.272ZM257.847 272.152C260.205 272.152 262.29 271.608 264.103 270.52C265.917 269.432 267.322 267.936 268.319 266.032C269.362 264.128 269.883 261.929 269.883 259.436C269.883 256.943 269.362 254.744 268.319 252.84C267.322 250.891 265.917 249.372 264.103 248.284C262.29 247.196 260.205 246.652 257.847 246.652C255.49 246.652 253.405 247.196 251.591 248.284C249.778 249.372 248.35 250.891 247.307 252.84C246.265 254.744 245.743 256.943 245.743 259.436C245.743 261.929 246.265 264.128 247.307 266.032C248.35 267.936 249.778 269.432 251.591 270.52C253.405 271.608 255.49 272.152 257.847 272.152ZM291.018 278C290.021 278 289.182 277.66 288.502 276.98C287.867 276.3 287.55 275.461 287.55 274.464V228.428C287.55 227.431 287.89 226.592 288.57 225.912C289.25 225.232 290.066 224.892 291.018 224.892C292.015 224.892 292.854 225.232 293.534 225.912C294.214 226.592 294.554 227.431 294.554 228.428V270.928H319.17C320.167 270.928 321.006 271.268 321.686 271.948C322.366 272.628 322.706 273.467 322.706 274.464C322.706 275.461 322.366 276.3 321.686 276.98C321.006 277.66 320.167 278 319.17 278H291.018ZM346.003 278.272C342.694 278.272 339.724 277.456 337.095 275.824C334.466 274.147 332.38 271.903 330.839 269.092C329.343 266.236 328.595 263.017 328.595 259.436C328.595 255.855 329.411 252.636 331.043 249.78C332.72 246.924 334.964 244.68 337.775 243.048C340.631 241.371 343.827 240.532 347.363 240.532C350.899 240.532 354.072 241.371 356.883 243.048C359.694 244.68 361.915 246.924 363.547 249.78C365.224 252.636 366.063 255.855 366.063 259.436H363.411C363.411 263.017 362.64 266.236 361.099 269.092C359.603 271.903 357.54 274.147 354.911 275.824C352.282 277.456 349.312 278.272 346.003 278.272ZM347.363 272.152C349.675 272.152 351.738 271.608 353.551 270.52C355.364 269.387 356.792 267.868 357.835 265.964C358.878 264.015 359.399 261.839 359.399 259.436C359.399 256.988 358.878 254.812 357.835 252.908C356.792 250.959 355.364 249.44 353.551 248.352C351.738 247.219 349.675 246.652 347.363 246.652C345.096 246.652 343.034 247.219 341.175 248.352C339.362 249.44 337.911 250.959 336.823 252.908C335.78 254.812 335.259 256.988 335.259 259.436C335.259 261.839 335.78 264.015 336.823 265.964C337.911 267.868 339.362 269.387 341.175 270.52C343.034 271.608 345.096 272.152 347.363 272.152ZM362.595 278.068C361.598 278.068 360.759 277.751 360.079 277.116C359.444 276.436 359.127 275.597 359.127 274.6V264.196L360.419 256.988L366.063 259.436V274.6C366.063 275.597 365.723 276.436 365.043 277.116C364.408 277.751 363.592 278.068 362.595 278.068ZM379.854 293.912C378.856 293.912 378.018 293.572 377.338 292.892C376.703 292.257 376.386 291.441 376.386 290.444V259.436C376.431 255.855 377.27 252.636 378.902 249.78C380.534 246.924 382.755 244.68 385.566 243.048C388.376 241.371 391.55 240.532 395.086 240.532C398.667 240.532 401.863 241.371 404.674 243.048C407.484 244.68 409.706 246.924 411.338 249.78C413.015 252.636 413.854 255.855 413.854 259.436C413.854 263.017 413.083 266.236 411.542 269.092C410.046 271.903 407.983 274.147 405.354 275.824C402.724 277.456 399.755 278.272 396.446 278.272C393.771 278.272 391.3 277.728 389.034 276.64C386.812 275.507 384.908 273.988 383.322 272.084V290.444C383.322 291.441 383.004 292.257 382.37 292.892C381.735 293.572 380.896 293.912 379.854 293.912ZM395.086 272.152C397.398 272.152 399.46 271.608 401.274 270.52C403.087 269.387 404.515 267.868 405.558 265.964C406.646 264.015 407.19 261.839 407.19 259.436C407.19 256.988 406.646 254.812 405.558 252.908C404.515 250.959 403.087 249.44 401.274 248.352C399.46 247.219 397.398 246.652 395.086 246.652C392.819 246.652 390.756 247.219 388.898 248.352C387.084 249.44 385.656 250.959 384.614 252.908C383.571 254.812 383.05 256.988 383.05 259.436C383.05 261.839 383.571 264.015 384.614 265.964C385.656 267.868 387.084 269.387 388.898 270.52C390.756 271.608 392.819 272.152 395.086 272.152ZM437.73 278.272C434.557 278.272 431.61 277.796 428.89 276.844C426.215 275.847 424.13 274.6 422.634 273.104C421.954 272.379 421.659 271.563 421.75 270.656C421.886 269.704 422.339 268.933 423.11 268.344C424.017 267.619 424.901 267.324 425.762 267.46C426.669 267.551 427.439 267.936 428.074 268.616C428.845 269.477 430.069 270.293 431.746 271.064C433.469 271.789 435.373 272.152 437.458 272.152C440.087 272.152 442.082 271.721 443.442 270.86C444.847 269.999 445.573 268.888 445.618 267.528C445.663 266.168 445.006 264.989 443.646 263.992C442.331 262.995 439.906 262.179 436.37 261.544C431.791 260.637 428.459 259.277 426.374 257.464C424.334 255.651 423.314 253.429 423.314 250.8C423.314 248.488 423.994 246.584 425.354 245.088C426.714 243.547 428.459 242.413 430.59 241.688C432.721 240.917 434.942 240.532 437.254 240.532C440.246 240.532 442.898 241.008 445.21 241.96C447.522 242.912 449.358 244.227 450.718 245.904C451.353 246.629 451.647 247.4 451.602 248.216C451.557 248.987 451.171 249.644 450.446 250.188C449.721 250.687 448.859 250.845 447.862 250.664C446.865 250.483 446.026 250.075 445.346 249.44C444.213 248.352 442.989 247.604 441.674 247.196C440.359 246.788 438.841 246.584 437.118 246.584C435.123 246.584 433.423 246.924 432.018 247.604C430.658 248.284 429.978 249.281 429.978 250.596C429.978 251.412 430.182 252.16 430.59 252.84C431.043 253.475 431.905 254.064 433.174 254.608C434.443 255.107 436.302 255.605 438.75 256.104C442.15 256.784 444.825 257.645 446.774 258.688C448.769 259.731 450.197 260.955 451.058 262.36C451.919 263.72 452.35 265.307 452.35 267.12C452.35 269.205 451.783 271.087 450.65 272.764C449.562 274.441 447.93 275.779 445.754 276.776C443.623 277.773 440.949 278.272 437.73 278.272ZM478.596 278.272C474.833 278.272 471.479 277.479 468.532 275.892C465.631 274.26 463.341 272.039 461.664 269.228C460.032 266.372 459.216 263.108 459.216 259.436C459.216 255.719 459.987 252.455 461.528 249.644C463.115 246.788 465.291 244.567 468.056 242.98C470.821 241.348 473.995 240.532 477.576 240.532C481.112 240.532 484.149 241.325 486.688 242.912C489.227 244.453 491.153 246.607 492.468 249.372C493.828 252.092 494.508 255.243 494.508 258.824C494.508 259.685 494.213 260.411 493.624 261C493.035 261.544 492.287 261.816 491.38 261.816H463.976V256.376H491.176L488.388 258.28C488.343 256.013 487.889 253.996 487.028 252.228C486.167 250.415 484.943 248.987 483.356 247.944C481.769 246.901 479.843 246.38 477.576 246.38C474.992 246.38 472.771 246.947 470.912 248.08C469.099 249.213 467.716 250.777 466.764 252.772C465.812 254.721 465.336 256.943 465.336 259.436C465.336 261.929 465.903 264.151 467.036 266.1C468.169 268.049 469.733 269.591 471.728 270.724C473.723 271.857 476.012 272.424 478.596 272.424C480.001 272.424 481.429 272.175 482.88 271.676C484.376 271.132 485.577 270.52 486.484 269.84C487.164 269.341 487.889 269.092 488.66 269.092C489.476 269.047 490.179 269.273 490.768 269.772C491.539 270.452 491.947 271.2 491.992 272.016C492.037 272.832 491.675 273.535 490.904 274.124C489.363 275.348 487.436 276.345 485.124 277.116C482.857 277.887 480.681 278.272 478.596 278.272Z" fill="#D4AF37"/>
</svg>
