<svg width="512" height="512" viewBox="0 0 512 512" fill="none" xmlns="http://www.w3.org/2000/svg">
<rect width="512" height="512" fill="white"/>
<path d="M131 317.4C128.84 317.4 126.813 317 124.92 316.2C123.053 315.373 121.413 314.24 120 312.8C118.613 311.333 117.52 309.627 116.72 307.68C115.947 305.733 115.56 303.627 115.56 301.36C115.56 299.12 115.947 297.04 116.72 295.12C117.52 293.173 118.613 291.48 120 290.04C121.413 288.573 123.053 287.427 124.92 286.6C126.787 285.773 128.813 285.36 131 285.36C133.053 285.36 134.813 285.627 136.28 286.16C137.773 286.693 139.267 287.573 140.76 288.8C140.973 288.96 141.133 289.133 141.24 289.32C141.373 289.48 141.453 289.653 141.48 289.84C141.533 290 141.56 290.2 141.56 290.44C141.56 290.947 141.373 291.373 141 291.72C140.653 292.04 140.227 292.227 139.72 292.28C139.213 292.307 138.72 292.133 138.24 291.76C137.253 290.907 136.227 290.253 135.16 289.8C134.12 289.347 132.733 289.12 131 289.12C129.427 289.12 127.947 289.44 126.56 290.08C125.173 290.72 123.947 291.6 122.88 292.72C121.84 293.84 121.027 295.147 120.44 296.64C119.853 298.107 119.56 299.68 119.56 301.36C119.56 303.067 119.853 304.667 120.44 306.16C121.027 307.627 121.84 308.92 122.88 310.04C123.947 311.16 125.173 312.04 126.56 312.68C127.947 313.293 129.427 313.6 131 313.6C132.36 313.6 133.64 313.373 134.84 312.92C136.067 312.44 137.24 311.787 138.36 310.96C138.84 310.613 139.307 310.467 139.76 310.52C140.24 310.547 140.64 310.733 140.96 311.08C141.28 311.4 141.44 311.853 141.44 312.44C141.44 312.707 141.387 312.973 141.28 313.24C141.173 313.48 141.013 313.707 140.8 313.92C139.36 315.067 137.813 315.933 136.16 316.52C134.533 317.107 132.813 317.4 131 317.4ZM149.734 309.04C149.147 309.04 148.654 308.853 148.254 308.48C147.88 308.08 147.694 307.587 147.694 307V287.8C147.694 287.187 147.88 286.693 148.254 286.32C148.654 285.947 149.147 285.76 149.734 285.76C150.347 285.76 150.84 285.947 151.214 286.32C151.587 286.693 151.774 287.187 151.774 287.8V307C151.774 307.587 151.587 308.08 151.214 308.48C150.84 308.853 150.347 309.04 149.734 309.04ZM166.174 317.04C165.587 317.04 165.094 316.853 164.694 316.48C164.32 316.08 164.134 315.587 164.134 315V305.16C164.134 303.64 163.854 302.4 163.294 301.44C162.734 300.48 161.974 299.773 161.014 299.32C160.08 298.84 159 298.6 157.774 298.6C156.654 298.6 155.64 298.827 154.734 299.28C153.827 299.733 153.107 300.347 152.574 301.12C152.04 301.867 151.774 302.733 151.774 303.72H149.254C149.254 302.04 149.654 300.547 150.454 299.24C151.28 297.907 152.4 296.853 153.814 296.08C155.227 295.307 156.814 294.92 158.574 294.92C160.414 294.92 162.054 295.32 163.494 296.12C164.96 296.893 166.107 298.04 166.934 299.56C167.787 301.08 168.214 302.947 168.214 305.16V315C168.214 315.587 168.014 316.08 167.614 316.48C167.24 316.853 166.76 317.04 166.174 317.04ZM149.734 317.04C149.147 317.04 148.654 316.853 148.254 316.48C147.88 316.08 147.694 315.587 147.694 315V297.16C147.694 296.547 147.88 296.053 148.254 295.68C148.654 295.307 149.147 295.12 149.734 295.12C150.347 295.12 150.84 295.307 151.214 295.68C151.587 296.053 151.774 296.547 151.774 297.16V315C151.774 315.587 151.587 316.08 151.214 316.48C150.84 316.853 150.347 317.04 149.734 317.04ZM176.958 303.32C176.958 301.72 177.345 300.293 178.118 299.04C178.918 297.76 179.985 296.747 181.318 296C182.652 295.253 184.118 294.88 185.718 294.88C187.318 294.88 188.505 295.147 189.278 295.68C190.078 296.187 190.385 296.8 190.198 297.52C190.118 297.893 189.958 298.187 189.718 298.4C189.505 298.587 189.252 298.707 188.958 298.76C188.665 298.813 188.345 298.8 187.998 298.72C186.292 298.373 184.758 298.347 183.398 298.64C182.038 298.933 180.958 299.48 180.158 300.28C179.385 301.08 178.998 302.093 178.998 303.32H176.958ZM176.998 317C176.358 317 175.865 316.84 175.518 316.52C175.172 316.173 174.998 315.667 174.998 315V297.12C174.998 296.48 175.172 295.987 175.518 295.64C175.865 295.293 176.358 295.12 176.998 295.12C177.665 295.12 178.158 295.293 178.478 295.64C178.825 295.96 178.998 296.453 178.998 297.12V315C178.998 315.64 178.825 316.133 178.478 316.48C178.158 316.827 177.665 317 176.998 317ZM202.77 317.16C200.61 317.16 198.703 316.693 197.05 315.76C195.397 314.8 194.09 313.493 193.13 311.84C192.197 310.16 191.73 308.24 191.73 306.08C191.73 303.893 192.197 301.973 193.13 300.32C194.09 298.64 195.397 297.333 197.05 296.4C198.703 295.44 200.61 294.96 202.77 294.96C204.903 294.96 206.797 295.44 208.45 296.4C210.103 297.333 211.397 298.64 212.33 300.32C213.29 301.973 213.77 303.893 213.77 306.08C213.77 308.24 213.303 310.16 212.37 311.84C211.437 313.493 210.143 314.8 208.49 315.76C206.837 316.693 204.93 317.16 202.77 317.16ZM202.77 313.56C204.157 313.56 205.383 313.24 206.45 312.6C207.517 311.96 208.343 311.08 208.93 309.96C209.543 308.84 209.85 307.547 209.85 306.08C209.85 304.613 209.543 303.32 208.93 302.2C208.343 301.053 207.517 300.16 206.45 299.52C205.383 298.88 204.157 298.56 202.77 298.56C201.383 298.56 200.157 298.88 199.09 299.52C198.023 300.16 197.183 301.053 196.57 302.2C195.957 303.32 195.65 304.613 195.65 306.08C195.65 307.547 195.957 308.84 196.57 309.96C197.183 311.08 198.023 311.96 199.09 312.6C200.157 313.24 201.383 313.56 202.77 313.56ZM238.322 317.04C237.736 317.04 237.242 316.853 236.842 316.48C236.469 316.08 236.282 315.587 236.282 315V305.16C236.282 303.64 236.002 302.4 235.442 301.44C234.882 300.48 234.122 299.773 233.162 299.32C232.229 298.84 231.149 298.6 229.922 298.6C228.802 298.6 227.789 298.827 226.882 299.28C225.976 299.733 225.256 300.347 224.722 301.12C224.189 301.867 223.922 302.733 223.922 303.72H221.402C221.402 302.04 221.802 300.547 222.602 299.24C223.429 297.907 224.549 296.853 225.962 296.08C227.376 295.307 228.962 294.92 230.722 294.92C232.562 294.92 234.202 295.32 235.642 296.12C237.109 296.893 238.256 298.04 239.082 299.56C239.936 301.08 240.362 302.947 240.362 305.16V315C240.362 315.587 240.162 316.08 239.762 316.48C239.389 316.853 238.909 317.04 238.322 317.04ZM221.882 317.04C221.296 317.04 220.802 316.853 220.402 316.48C220.029 316.08 219.842 315.587 219.842 315V297.16C219.842 296.547 220.029 296.053 220.402 295.68C220.802 295.307 221.296 295.12 221.882 295.12C222.496 295.12 222.989 295.307 223.362 295.68C223.736 296.053 223.922 296.547 223.922 297.16V315C223.922 315.587 223.736 316.08 223.362 316.48C222.989 316.853 222.496 317.04 221.882 317.04ZM257.028 317.16C254.868 317.16 252.961 316.693 251.308 315.76C249.654 314.8 248.348 313.493 247.388 311.84C246.454 310.16 245.988 308.24 245.988 306.08C245.988 303.893 246.454 301.973 247.388 300.32C248.348 298.64 249.654 297.333 251.308 296.4C252.961 295.44 254.868 294.96 257.028 294.96C259.161 294.96 261.054 295.44 262.708 296.4C264.361 297.333 265.654 298.64 266.588 300.32C267.548 301.973 268.028 303.893 268.028 306.08C268.028 308.24 267.561 310.16 266.628 311.84C265.694 313.493 264.401 314.8 262.748 315.76C261.094 316.693 259.188 317.16 257.028 317.16ZM257.028 313.56C258.414 313.56 259.641 313.24 260.708 312.6C261.774 311.96 262.601 311.08 263.188 309.96C263.801 308.84 264.108 307.547 264.108 306.08C264.108 304.613 263.801 303.32 263.188 302.2C262.601 301.053 261.774 300.16 260.708 299.52C259.641 298.88 258.414 298.56 257.028 298.56C255.641 298.56 254.414 298.88 253.348 299.52C252.281 300.16 251.441 301.053 250.828 302.2C250.214 303.32 249.908 304.613 249.908 306.08C249.908 307.547 250.214 308.84 250.828 309.96C251.441 311.08 252.281 311.96 253.348 312.6C254.414 313.24 255.641 313.56 257.028 313.56ZM276.54 317C275.953 317 275.46 316.8 275.06 316.4C274.687 316 274.5 315.507 274.5 314.92V287.84C274.5 287.253 274.7 286.76 275.1 286.36C275.5 285.96 275.98 285.76 276.54 285.76C277.127 285.76 277.62 285.96 278.02 286.36C278.42 286.76 278.62 287.253 278.62 287.84V312.84H293.1C293.687 312.84 294.18 313.04 294.58 313.44C294.98 313.84 295.18 314.333 295.18 314.92C295.18 315.507 294.98 316 294.58 316.4C294.18 316.8 293.687 317 293.1 317H276.54ZM308.884 317.16C306.937 317.16 305.191 316.68 303.644 315.72C302.097 314.733 300.871 313.413 299.964 311.76C299.084 310.08 298.644 308.187 298.644 306.08C298.644 303.973 299.124 302.08 300.084 300.4C301.071 298.72 302.391 297.4 304.044 296.44C305.724 295.453 307.604 294.96 309.684 294.96C311.764 294.96 313.631 295.453 315.284 296.44C316.937 297.4 318.244 298.72 319.204 300.4C320.191 302.08 320.684 303.973 320.684 306.08H319.124C319.124 308.187 318.671 310.08 317.764 311.76C316.884 313.413 315.671 314.733 314.124 315.72C312.577 316.68 310.831 317.16 308.884 317.16ZM309.684 313.56C311.044 313.56 312.257 313.24 313.324 312.6C314.391 311.933 315.231 311.04 315.844 309.92C316.457 308.773 316.764 307.493 316.764 306.08C316.764 304.64 316.457 303.36 315.844 302.24C315.231 301.093 314.391 300.2 313.324 299.56C312.257 298.893 311.044 298.56 309.684 298.56C308.351 298.56 307.137 298.893 306.044 299.56C304.977 300.2 304.124 301.093 303.484 302.24C302.871 303.36 302.564 304.64 302.564 306.08C302.564 307.493 302.871 308.773 303.484 309.92C304.124 311.04 304.977 311.933 306.044 312.6C307.137 313.24 308.351 313.56 309.684 313.56ZM318.644 317.04C318.057 317.04 317.564 316.853 317.164 316.48C316.791 316.08 316.604 315.587 316.604 315V308.88L317.364 304.64L320.684 306.08V315C320.684 315.587 320.484 316.08 320.084 316.48C319.711 316.853 319.231 317.04 318.644 317.04ZM328.796 326.36C328.21 326.36 327.716 326.16 327.316 325.76C326.943 325.387 326.756 324.907 326.756 324.32V306.08C326.783 303.973 327.276 302.08 328.236 300.4C329.196 298.72 330.503 297.4 332.156 296.44C333.81 295.453 335.676 294.96 337.756 294.96C339.863 294.96 341.743 295.453 343.396 296.44C345.05 297.4 346.356 298.72 347.316 300.4C348.303 302.08 348.796 303.973 348.796 306.08C348.796 308.187 348.343 310.08 347.436 311.76C346.556 313.413 345.343 314.733 343.796 315.72C342.25 316.68 340.503 317.16 338.556 317.16C336.983 317.16 335.53 316.84 334.196 316.2C332.89 315.533 331.77 314.64 330.836 313.52V324.32C330.836 324.907 330.65 325.387 330.276 325.76C329.903 326.16 329.41 326.36 328.796 326.36ZM337.756 313.56C339.116 313.56 340.33 313.24 341.396 312.6C342.463 311.933 343.303 311.04 343.916 309.92C344.556 308.773 344.876 307.493 344.876 306.08C344.876 304.64 344.556 303.36 343.916 302.24C343.303 301.093 342.463 300.2 341.396 299.56C340.33 298.893 339.116 298.56 337.756 298.56C336.423 298.56 335.21 298.893 334.116 299.56C333.05 300.2 332.21 301.093 331.596 302.24C330.983 303.36 330.676 304.64 330.676 306.08C330.676 307.493 330.983 308.773 331.596 309.92C332.21 311.04 333.05 311.933 334.116 312.6C335.21 313.24 336.423 313.56 337.756 313.56ZM362.841 317.16C360.975 317.16 359.241 316.88 357.641 316.32C356.068 315.733 354.841 315 353.961 314.12C353.561 313.693 353.388 313.213 353.441 312.68C353.521 312.12 353.788 311.667 354.241 311.32C354.775 310.893 355.295 310.72 355.801 310.8C356.335 310.853 356.788 311.08 357.161 311.48C357.615 311.987 358.335 312.467 359.321 312.92C360.335 313.347 361.455 313.56 362.681 313.56C364.228 313.56 365.401 313.307 366.201 312.8C367.028 312.293 367.455 311.64 367.481 310.84C367.508 310.04 367.121 309.347 366.321 308.76C365.548 308.173 364.121 307.693 362.041 307.32C359.348 306.787 357.388 305.987 356.161 304.92C354.961 303.853 354.361 302.547 354.361 301C354.361 299.64 354.761 298.52 355.561 297.64C356.361 296.733 357.388 296.067 358.641 295.64C359.895 295.187 361.201 294.96 362.561 294.96C364.321 294.96 365.881 295.24 367.241 295.8C368.601 296.36 369.681 297.133 370.481 298.12C370.855 298.547 371.028 299 371.001 299.48C370.975 299.933 370.748 300.32 370.321 300.64C369.895 300.933 369.388 301.027 368.801 300.92C368.215 300.813 367.721 300.573 367.321 300.2C366.655 299.56 365.935 299.12 365.161 298.88C364.388 298.64 363.495 298.52 362.481 298.52C361.308 298.52 360.308 298.72 359.481 299.12C358.681 299.52 358.281 300.107 358.281 300.88C358.281 301.36 358.401 301.8 358.641 302.2C358.908 302.573 359.415 302.92 360.161 303.24C360.908 303.533 362.001 303.827 363.441 304.12C365.441 304.52 367.015 305.027 368.161 305.64C369.335 306.253 370.175 306.973 370.681 307.8C371.188 308.6 371.441 309.533 371.441 310.6C371.441 311.827 371.108 312.933 370.441 313.92C369.801 314.907 368.841 315.693 367.561 316.28C366.308 316.867 364.735 317.16 362.841 317.16ZM386.88 317.16C384.667 317.16 382.693 316.693 380.96 315.76C379.253 314.8 377.907 313.493 376.92 311.84C375.96 310.16 375.48 308.24 375.48 306.08C375.48 303.893 375.933 301.973 376.84 300.32C377.773 298.64 379.053 297.333 380.68 296.4C382.307 295.44 384.173 294.96 386.28 294.96C388.36 294.96 390.147 295.427 391.64 296.36C393.133 297.267 394.267 298.533 395.04 300.16C395.84 301.76 396.24 303.613 396.24 305.72C396.24 306.227 396.067 306.653 395.72 307C395.373 307.32 394.933 307.48 394.4 307.48H378.28V304.28H394.28L392.64 305.4C392.613 304.067 392.347 302.88 391.84 301.84C391.333 300.773 390.613 299.933 389.68 299.32C388.747 298.707 387.613 298.4 386.28 298.4C384.76 298.4 383.453 298.733 382.36 299.4C381.293 300.067 380.48 300.987 379.92 302.16C379.36 303.307 379.08 304.613 379.08 306.08C379.08 307.547 379.413 308.853 380.08 310C380.747 311.147 381.667 312.053 382.84 312.72C384.013 313.387 385.36 313.72 386.88 313.72C387.707 313.72 388.547 313.573 389.4 313.28C390.28 312.96 390.987 312.6 391.52 312.2C391.92 311.907 392.347 311.76 392.8 311.76C393.28 311.733 393.693 311.867 394.04 312.16C394.493 312.56 394.733 313 394.76 313.48C394.787 313.96 394.573 314.373 394.12 314.72C393.213 315.44 392.08 316.027 390.72 316.48C389.387 316.933 388.107 317.16 386.88 317.16Z" fill="#D4AF37"/>
<path d="M124.92 316.2L124.718 316.657L124.725 316.661L124.92 316.2ZM120 312.8L119.637 313.144L119.643 313.15L120 312.8ZM116.72 307.68L116.255 307.865L116.258 307.87L116.72 307.68ZM116.72 295.12L116.258 294.93L116.256 294.933L116.72 295.12ZM120 290.04L119.64 289.693L119.64 289.693L120 290.04ZM124.92 286.6L124.718 286.143H124.718L124.92 286.6ZM136.28 286.16L136.109 286.63L136.112 286.631L136.28 286.16ZM140.76 288.8L140.443 289.186L140.451 289.193L140.46 289.2L140.76 288.8ZM141.24 289.32L140.806 289.568L140.828 289.606L140.856 289.64L141.24 289.32ZM141.48 289.84L140.985 289.911L140.991 289.955L141.006 289.998L141.48 289.84ZM141 291.72L141.339 292.087L141.34 292.086L141 291.72ZM139.72 292.28L139.746 292.779L139.759 292.779L139.772 292.777L139.72 292.28ZM138.24 291.76L137.913 292.138L137.923 292.147L137.933 292.155L138.24 291.76ZM135.16 289.8L134.96 290.258L134.964 290.26L135.16 289.8ZM122.88 292.72L122.518 292.375L122.514 292.38L122.88 292.72ZM120.44 296.64L120.904 296.826L120.905 296.823L120.44 296.64ZM120.44 306.16L119.975 306.343L119.976 306.346L120.44 306.16ZM122.88 310.04L122.514 310.38L122.518 310.385L122.88 310.04ZM126.56 312.68L126.35 313.134L126.358 313.137L126.56 312.68ZM134.84 312.92L135.017 313.388L135.022 313.386L134.84 312.92ZM138.36 310.96L138.067 310.555L138.063 310.558L138.36 310.96ZM139.76 310.52L139.702 311.017L139.717 311.018L139.732 311.019L139.76 310.52ZM140.96 311.08L140.593 311.419L140.599 311.426L140.606 311.434L140.96 311.08ZM141.28 313.24L141.737 313.443L141.741 313.434L141.744 313.426L141.28 313.24ZM140.8 313.92L141.111 314.311L141.134 314.294L141.154 314.274L140.8 313.92ZM136.16 316.52L135.993 316.049L135.99 316.05L136.16 316.52ZM131 317.4V316.9C128.903 316.9 126.943 316.512 125.115 315.739L124.92 316.2L124.725 316.661C126.683 317.488 128.777 317.9 131 317.9V317.4ZM124.92 316.2L125.122 315.743C123.313 314.941 121.725 313.844 120.357 312.45L120 312.8L119.643 313.15C121.101 314.636 122.794 315.805 124.718 316.657L124.92 316.2ZM120 312.8L120.363 312.456C119.021 311.036 117.96 309.382 117.182 307.49L116.72 307.68L116.258 307.87C117.08 309.871 118.206 311.63 119.637 313.144L120 312.8ZM116.72 307.68L117.185 307.495C116.437 305.612 116.06 303.569 116.06 301.36H115.56H115.06C115.06 303.685 115.457 305.855 116.255 307.865L116.72 307.68ZM115.56 301.36H116.06C116.06 299.179 116.436 297.163 117.184 295.307L116.72 295.12L116.256 294.933C115.457 296.917 115.06 299.061 115.06 301.36H115.56ZM116.72 295.12L117.182 295.31C117.96 293.419 119.019 291.779 120.36 290.387L120 290.04L119.64 289.693C118.207 291.181 117.08 292.928 116.258 294.93L116.72 295.12ZM120 290.04L120.36 290.387C121.728 288.967 123.315 287.858 125.122 287.057L124.92 286.6L124.718 286.143C122.792 286.996 121.098 288.18 119.64 289.693L120 290.04ZM124.92 286.6L125.122 287.057C126.921 286.261 128.878 285.86 131 285.86V285.36V284.86C128.749 284.86 126.652 285.286 124.718 286.143L124.92 286.6ZM131 285.36V285.86C133.012 285.86 134.711 286.122 136.109 286.63L136.28 286.16L136.451 285.69C134.915 285.132 133.094 284.86 131 284.86V285.36ZM136.28 286.16L136.112 286.631C137.541 287.141 138.984 287.989 140.443 289.186L140.76 288.8L141.077 288.414C139.549 287.158 138.006 286.246 136.448 285.689L136.28 286.16ZM140.76 288.8L140.46 289.2C140.631 289.329 140.74 289.453 140.806 289.568L141.24 289.32L141.674 289.072C141.526 288.814 141.315 288.591 141.06 288.4L140.76 288.8ZM141.24 289.32L140.856 289.64C140.936 289.737 140.973 289.825 140.985 289.911L141.48 289.84L141.975 289.769C141.934 289.481 141.81 289.223 141.624 289L141.24 289.32ZM141.48 289.84L141.006 289.998C141.036 290.091 141.06 290.233 141.06 290.44H141.56H142.06C142.06 290.167 142.03 289.909 141.954 289.682L141.48 289.84ZM141.56 290.44H141.06C141.06 290.807 140.932 291.101 140.66 291.354L141 291.72L141.34 292.086C141.815 291.646 142.06 291.087 142.06 290.44H141.56ZM141 291.72L140.661 291.353C140.4 291.594 140.076 291.74 139.668 291.783L139.72 292.28L139.772 292.777C140.377 292.714 140.907 292.486 141.339 292.087L141 291.72ZM139.72 292.28L139.694 291.781C139.33 291.8 138.952 291.68 138.547 291.365L138.24 291.76L137.933 292.155C138.488 292.586 139.097 292.813 139.746 292.779L139.72 292.28ZM138.24 291.76L138.567 291.382C137.546 290.499 136.476 289.816 135.356 289.34L135.16 289.8L134.964 290.26C135.978 290.691 136.961 291.315 137.913 292.138L138.24 291.76ZM135.16 289.8L135.36 289.342C134.232 288.85 132.769 288.62 131 288.62V289.12V289.62C132.697 289.62 134.008 289.843 134.96 290.258L135.16 289.8ZM131 289.12V288.62C129.357 288.62 127.805 288.955 126.35 289.626L126.56 290.08L126.77 290.534C128.088 289.925 129.497 289.62 131 289.62V289.12ZM126.56 290.08L126.35 289.626C124.906 290.293 123.628 291.21 122.518 292.375L122.88 292.72L123.242 293.065C124.266 291.99 125.441 291.147 126.77 290.534L126.56 290.08ZM122.88 292.72L122.514 292.38C121.429 293.548 120.583 294.909 119.975 296.457L120.44 296.64L120.905 296.823C121.47 295.385 122.251 294.132 123.246 293.06L122.88 292.72ZM120.44 296.64L119.976 296.454C119.364 297.984 119.06 299.62 119.06 301.36H119.56H120.06C120.06 299.74 120.343 298.23 120.904 296.826L120.44 296.64ZM119.56 301.36H119.06C119.06 303.125 119.364 304.788 119.975 306.343L120.44 306.16L120.905 305.977C120.343 304.546 120.06 303.008 120.06 301.36H119.56ZM120.44 306.16L119.976 306.346C120.584 307.868 121.43 309.214 122.514 310.38L122.88 310.04L123.246 309.7C122.25 308.626 121.469 307.386 120.904 305.974L120.44 306.16ZM122.88 310.04L122.518 310.385C123.628 311.55 124.906 312.467 126.35 313.134L126.56 312.68L126.77 312.226C125.441 311.613 124.266 310.77 123.242 309.695L122.88 310.04ZM126.56 312.68L126.358 313.137C127.811 313.78 129.36 314.1 131 314.1V313.6V313.1C129.494 313.1 128.083 312.807 126.762 312.223L126.56 312.68ZM131 313.6V314.1C132.417 314.1 133.757 313.864 135.017 313.388L134.84 312.92L134.663 312.452C133.523 312.883 132.303 313.1 131 313.1V313.6ZM134.84 312.92L135.022 313.386C136.292 312.889 137.504 312.214 138.657 311.362L138.36 310.96L138.063 310.558C136.976 311.36 135.841 311.991 134.658 312.454L134.84 312.92ZM138.36 310.96L138.653 311.365C139.062 311.07 139.406 310.982 139.702 311.017L139.76 310.52L139.818 310.023C139.207 309.952 138.618 310.157 138.067 310.555L138.36 310.96ZM139.76 310.52L139.732 311.019C140.085 311.039 140.363 311.17 140.593 311.419L140.96 311.08L141.327 310.741C140.917 310.297 140.395 310.054 139.788 310.021L139.76 310.52ZM140.96 311.08L140.606 311.434C140.807 311.634 140.94 311.945 140.94 312.44H141.44H141.94C141.94 311.762 141.753 311.166 141.314 310.726L140.96 311.08ZM141.44 312.44H140.94C140.94 312.638 140.901 312.842 140.816 313.054L141.28 313.24L141.744 313.426C141.873 313.105 141.94 312.775 141.94 312.44H141.44ZM141.28 313.24L140.823 313.037C140.745 313.213 140.623 313.39 140.446 313.566L140.8 313.92L141.154 314.274C141.404 314.023 141.602 313.747 141.737 313.443L141.28 313.24ZM140.8 313.92L140.489 313.529C139.09 314.643 137.591 315.482 135.993 316.049L136.16 316.52L136.327 316.991C138.035 316.385 139.63 315.491 141.111 314.311L140.8 313.92ZM136.16 316.52L135.99 316.05C134.421 316.616 132.758 316.9 131 316.9V317.4V317.9C132.868 317.9 134.646 317.598 136.33 316.99L136.16 316.52ZM148.254 308.48L147.888 308.821L147.9 308.834L147.913 308.846L148.254 308.48ZM148.254 286.32L147.913 285.954L147.906 285.96L147.9 285.966L148.254 286.32ZM151.214 308.48L151.567 308.834L151.573 308.827L151.579 308.821L151.214 308.48ZM164.694 316.48L164.328 316.821L164.34 316.834L164.353 316.846L164.694 316.48ZM163.294 301.44L162.862 301.692L163.294 301.44ZM161.014 299.32L160.785 299.765L160.793 299.769L160.8 299.772L161.014 299.32ZM154.734 299.28L154.51 298.833V298.833L154.734 299.28ZM152.574 301.12L152.981 301.411L152.985 301.404L152.574 301.12ZM151.774 303.72V304.22H152.274V303.72H151.774ZM149.254 303.72H148.754V304.22H149.254V303.72ZM150.454 299.24L150.029 298.977L150.027 298.979L150.454 299.24ZM153.814 296.08L154.054 296.519L153.814 296.08ZM163.494 296.12L163.251 296.557L163.261 296.562L163.494 296.12ZM166.934 299.56L166.494 299.799L166.498 299.805L166.934 299.56ZM167.614 316.48L167.26 316.126L167.614 316.48ZM148.254 316.48L147.888 316.821L147.9 316.834L147.913 316.846L148.254 316.48ZM148.254 295.68L147.913 295.314L147.906 295.32L147.9 295.326L148.254 295.68ZM151.214 316.48L151.567 316.834L151.573 316.827L151.579 316.821L151.214 316.48ZM149.734 309.04V308.54C149.264 308.54 148.895 308.395 148.595 308.114L148.254 308.48L147.913 308.846C148.412 309.312 149.03 309.54 149.734 309.54V309.04ZM148.254 308.48L148.619 308.139C148.339 307.838 148.194 307.47 148.194 307H147.694H147.194C147.194 307.703 147.422 308.322 147.888 308.821L148.254 308.48ZM147.694 307H148.194V287.8H147.694H147.194V307H147.694ZM147.694 287.8H148.194C148.194 287.296 148.343 286.938 148.607 286.674L148.254 286.32L147.9 285.966C147.418 286.449 147.194 287.077 147.194 287.8H147.694ZM148.254 286.32L148.595 286.686C148.895 286.405 149.264 286.26 149.734 286.26V285.76V285.26C149.03 285.26 148.412 285.488 147.913 285.954L148.254 286.32ZM149.734 285.76V286.26C150.238 286.26 150.596 286.409 150.86 286.674L151.214 286.32L151.567 285.966C151.085 285.484 150.457 285.26 149.734 285.26V285.76ZM151.214 286.32L150.86 286.674C151.125 286.938 151.274 287.296 151.274 287.8H151.774H152.274C152.274 287.077 152.05 286.449 151.567 285.966L151.214 286.32ZM151.774 287.8H151.274V307H151.774H152.274V287.8H151.774ZM151.774 307H151.274C151.274 307.47 151.129 307.838 150.848 308.139L151.214 308.48L151.579 308.821C152.046 308.322 152.274 307.703 152.274 307H151.774ZM151.214 308.48L150.86 308.126C150.596 308.391 150.238 308.54 149.734 308.54V309.04V309.54C150.457 309.54 151.085 309.316 151.567 308.834L151.214 308.48ZM166.174 317.04V316.54C165.704 316.54 165.335 316.395 165.035 316.114L164.694 316.48L164.353 316.846C164.852 317.312 165.47 317.54 166.174 317.54V317.04ZM164.694 316.48L165.059 316.139C164.779 315.838 164.634 315.47 164.634 315H164.134H163.634C163.634 315.703 163.862 316.322 164.328 316.821L164.694 316.48ZM164.134 315H164.634V305.16H164.134H163.634V315H164.134ZM164.134 305.16H164.634C164.634 303.583 164.344 302.248 163.726 301.188L163.294 301.44L162.862 301.692C163.364 302.552 163.634 303.697 163.634 305.16H164.134ZM163.294 301.44L163.726 301.188C163.117 300.145 162.283 299.366 161.227 298.868L161.014 299.32L160.8 299.772C161.664 300.18 162.35 300.815 162.862 301.692L163.294 301.44ZM161.014 299.32L161.242 298.875C160.227 298.353 159.067 298.1 157.774 298.1V298.6V299.1C158.934 299.1 159.934 299.327 160.785 299.765L161.014 299.32ZM157.774 298.6V298.1C156.584 298.1 155.493 298.341 154.51 298.833L154.734 299.28L154.957 299.727C155.788 299.312 156.723 299.1 157.774 299.1V298.6ZM154.734 299.28L154.51 298.833C153.534 299.321 152.747 299.988 152.162 300.836L152.574 301.12L152.985 301.404C153.467 300.705 154.12 300.146 154.957 299.727L154.734 299.28ZM152.574 301.12L152.167 300.829C151.568 301.667 151.274 302.637 151.274 303.72H151.774H152.274C152.274 302.829 152.513 302.066 152.981 301.411L152.574 301.12ZM151.774 303.72V303.22H149.254V303.72V304.22H151.774V303.72ZM149.254 303.72H149.754C149.754 302.123 150.133 300.722 150.88 299.501L150.454 299.24L150.027 298.979C149.175 300.372 148.754 301.957 148.754 303.72H149.254ZM150.454 299.24L150.879 299.503C151.659 298.246 152.714 297.252 154.054 296.519L153.814 296.08L153.574 295.641C152.087 296.455 150.902 297.568 150.029 298.977L150.454 299.24ZM153.814 296.08L154.054 296.519C155.387 295.789 156.89 295.42 158.574 295.42V294.92V294.42C156.738 294.42 155.067 294.824 153.574 295.641L153.814 296.08ZM158.574 294.92V295.42C160.339 295.42 161.894 295.803 163.251 296.557L163.494 296.12L163.737 295.683C162.214 294.837 160.489 294.42 158.574 294.42V294.92ZM163.494 296.12L163.261 296.562C164.636 297.288 165.713 298.362 166.495 299.799L166.934 299.56L167.373 299.321C166.501 297.718 165.285 296.499 163.727 295.678L163.494 296.12ZM166.934 299.56L166.498 299.805C167.299 301.232 167.714 303.01 167.714 305.16H168.214H168.714C168.714 302.884 168.275 300.928 167.37 299.315L166.934 299.56ZM168.214 305.16H167.714V315H168.214H168.714V305.16H168.214ZM168.214 315H167.714C167.714 315.46 167.563 315.824 167.26 316.126L167.614 316.48L167.967 316.834C168.465 316.336 168.714 315.714 168.714 315H168.214ZM167.614 316.48L167.26 316.126C166.991 316.395 166.644 316.54 166.174 316.54V317.04V317.54C166.877 317.54 167.489 317.311 167.967 316.834L167.614 316.48ZM149.734 317.04V316.54C149.264 316.54 148.895 316.395 148.595 316.114L148.254 316.48L147.913 316.846C148.412 317.312 149.03 317.54 149.734 317.54V317.04ZM148.254 316.48L148.619 316.139C148.339 315.838 148.194 315.47 148.194 315H147.694H147.194C147.194 315.703 147.422 316.322 147.888 316.821L148.254 316.48ZM147.694 315H148.194V297.16H147.694H147.194V315H147.694ZM147.694 297.16H148.194C148.194 296.656 148.343 296.298 148.607 296.034L148.254 295.68L147.9 295.326C147.418 295.809 147.194 296.437 147.194 297.16H147.694ZM148.254 295.68L148.595 296.046C148.895 295.765 149.264 295.62 149.734 295.62V295.12V294.62C149.03 294.62 148.412 294.848 147.913 295.314L148.254 295.68ZM149.734 295.12V295.62C150.238 295.62 150.596 295.769 150.86 296.034L151.214 295.68L151.567 295.326C151.085 294.844 150.457 294.62 149.734 294.62V295.12ZM151.214 295.68L150.86 296.034C151.125 296.298 151.274 296.656 151.274 297.16H151.774H152.274C152.274 296.437 152.05 295.809 151.567 295.326L151.214 295.68ZM151.774 297.16H151.274V315H151.774H152.274V297.16H151.774ZM151.774 315H151.274C151.274 315.47 151.129 315.838 150.848 316.139L151.214 316.48L151.579 316.821C152.046 316.322 152.274 315.703 152.274 315H151.774ZM151.214 316.48L150.86 316.126C150.596 316.391 150.238 316.54 149.734 316.54V317.04V317.54C150.457 317.54 151.085 317.316 151.567 316.834L151.214 316.48ZM176.958 303.32H176.458V303.82H176.958V303.32ZM178.118 299.04L177.694 298.775L177.693 298.777L178.118 299.04ZM181.318 296L181.074 295.564L181.318 296ZM189.278 295.68L188.995 296.092L189.003 296.097L189.011 296.102L189.278 295.68ZM190.198 297.52L189.714 297.395L189.712 297.405L189.71 297.415L190.198 297.52ZM189.718 298.4L190.048 298.776L190.051 298.774L189.718 298.4ZM188.958 298.76L188.869 298.268L188.958 298.76ZM187.998 298.72L188.111 298.233L188.098 298.23L187.998 298.72ZM180.158 300.28L179.805 299.926L179.799 299.932L180.158 300.28ZM178.998 303.32V303.82H179.498V303.32H178.998ZM175.518 316.52L175.165 316.874L175.172 316.881L175.179 316.887L175.518 316.52ZM175.518 295.64L175.872 295.994L175.518 295.64ZM178.478 295.64L178.111 295.979L178.125 295.994L178.139 296.007L178.478 295.64ZM178.478 316.48L178.125 316.126L178.118 316.134L178.111 316.141L178.478 316.48ZM176.958 303.32H177.458C177.458 301.804 177.824 300.47 178.544 299.303L178.118 299.04L177.693 298.777C176.867 300.116 176.458 301.636 176.458 303.32H176.958ZM178.118 299.04L178.542 299.305C179.297 298.097 180.302 297.142 181.563 296.436L181.318 296L181.074 295.564C179.668 296.351 178.54 297.423 177.694 298.775L178.118 299.04ZM181.318 296L181.563 296.436C182.818 295.733 184.2 295.38 185.718 295.38V294.88V294.38C184.037 294.38 182.486 294.773 181.074 295.564L181.318 296ZM185.718 294.88V295.38C187.281 295.38 188.345 295.644 188.995 296.092L189.278 295.68L189.562 295.268C188.665 294.65 187.356 294.38 185.718 294.38V294.88ZM189.278 295.68L189.011 296.102C189.362 296.325 189.561 296.544 189.661 296.744C189.756 296.933 189.78 297.141 189.714 297.395L190.198 297.52L190.682 297.645C190.803 297.179 190.768 296.721 190.556 296.296C190.349 295.883 189.995 295.542 189.546 295.258L189.278 295.68ZM190.198 297.52L189.71 297.415C189.647 297.705 189.533 297.896 189.386 298.026L189.718 298.4L190.051 298.774C190.384 298.477 190.589 298.082 190.687 297.625L190.198 297.52ZM189.718 298.4L189.389 298.024C189.247 298.148 189.078 298.23 188.869 298.268L188.958 298.76L189.048 299.252C189.425 299.183 189.763 299.026 190.048 298.776L189.718 298.4ZM188.958 298.76L188.869 298.268C188.654 298.307 188.404 298.3 188.111 298.233L187.998 298.72L187.886 299.207C188.286 299.3 188.676 299.32 189.048 299.252L188.958 298.76ZM187.998 298.72L188.098 298.23C186.34 297.873 184.735 297.84 183.293 298.151L183.398 298.64L183.504 299.129C184.782 298.853 186.243 298.874 187.899 299.21L187.998 298.72ZM183.398 298.64L183.293 298.151C181.861 298.46 180.687 299.044 179.805 299.926L180.158 300.28L180.512 300.634C181.23 299.916 182.216 299.406 183.504 299.129L183.398 298.64ZM180.158 300.28L179.799 299.932C178.926 300.836 178.498 301.978 178.498 303.32H178.998H179.498C179.498 302.208 179.844 301.324 180.518 300.628L180.158 300.28ZM178.998 303.32V302.82H176.958V303.32V303.82H178.998V303.32ZM176.998 317V316.5C176.439 316.5 176.083 316.361 175.858 316.153L175.518 316.52L175.179 316.887C175.647 317.319 176.278 317.5 176.998 317.5V317ZM175.518 316.52L175.872 316.166C175.649 315.943 175.498 315.583 175.498 315H174.998H174.498C174.498 315.75 174.695 316.403 175.165 316.874L175.518 316.52ZM174.998 315H175.498V297.12H174.998H174.498V315H174.998ZM174.998 297.12H175.498C175.498 296.57 175.645 296.22 175.872 295.994L175.518 295.64L175.165 295.286C174.698 295.753 174.498 296.39 174.498 297.12H174.998ZM175.518 295.64L175.872 295.994C176.099 295.767 176.449 295.62 176.998 295.62V295.12V294.62C176.268 294.62 175.631 294.82 175.165 295.286L175.518 295.64ZM176.998 295.12V295.62C177.585 295.62 177.919 295.772 178.111 295.979L178.478 295.64L178.846 295.301C178.397 294.815 177.746 294.62 176.998 294.62V295.12ZM178.478 295.64L178.139 296.007C178.347 296.199 178.498 296.534 178.498 297.12H178.998H179.498C179.498 296.373 179.303 295.721 178.818 295.273L178.478 295.64ZM178.998 297.12H178.498V315H178.998H179.498V297.12H178.998ZM178.998 315H178.498C178.498 315.55 178.352 315.9 178.125 316.126L178.478 316.48L178.832 316.834C179.299 316.367 179.498 315.73 179.498 315H178.998ZM178.478 316.48L178.111 316.141C177.919 316.348 177.585 316.5 176.998 316.5V317V317.5C177.746 317.5 178.397 317.305 178.846 316.819L178.478 316.48ZM197.05 315.76L196.799 316.192L196.804 316.195L197.05 315.76ZM193.13 311.84L192.693 312.083L192.698 312.091L193.13 311.84ZM193.13 300.32L192.696 300.072L192.695 300.074L193.13 300.32ZM197.05 296.4L197.296 296.835L197.301 296.832L197.05 296.4ZM208.45 296.4L208.199 296.832L208.204 296.835L208.45 296.4ZM212.33 300.32L211.893 300.563L211.898 300.571L212.33 300.32ZM212.37 311.84L212.805 312.086L212.807 312.083L212.37 311.84ZM208.49 315.76L208.736 316.195L208.741 316.192L208.49 315.76ZM206.45 312.6L206.193 312.171L206.45 312.6ZM208.93 309.96L208.491 309.72L208.487 309.728L208.93 309.96ZM208.93 302.2L208.485 302.428L208.491 302.44L208.93 302.2ZM206.45 299.52L206.193 299.949L206.45 299.52ZM199.09 299.52L199.347 299.949L199.09 299.52ZM196.57 302.2L197.009 302.44L197.011 302.436L196.57 302.2ZM196.57 309.96L197.009 309.72L196.57 309.96ZM199.09 312.6L198.833 313.029L199.09 312.6ZM202.77 317.16V316.66C200.684 316.66 198.864 316.21 197.296 315.325L197.05 315.76L196.804 316.195C198.542 317.177 200.536 317.66 202.77 317.66V317.16ZM197.05 315.76L197.301 315.328C195.723 314.411 194.479 313.167 193.562 311.589L193.13 311.84L192.698 312.091C193.701 313.82 195.07 315.189 196.799 316.192L197.05 315.76ZM193.13 311.84L193.567 311.597C192.68 310 192.23 308.166 192.23 306.08H191.73H191.23C191.23 308.314 191.713 310.32 192.693 312.083L193.13 311.84ZM191.73 306.08H192.23C192.23 303.966 192.68 302.133 193.565 300.566L193.13 300.32L192.695 300.074C191.713 301.813 191.23 303.82 191.23 306.08H191.73ZM193.13 300.32L193.564 300.568C194.48 298.965 195.723 297.724 197.296 296.835L197.05 296.4L196.804 295.965C195.071 296.943 193.7 298.315 192.696 300.072L193.13 300.32ZM197.05 296.4L197.301 296.832C198.869 295.922 200.687 295.46 202.77 295.46V294.96V294.46C200.533 294.46 198.538 294.958 196.799 295.968L197.05 296.4ZM202.77 294.96V295.46C204.826 295.46 206.63 295.922 208.199 296.832L208.45 296.4L208.701 295.968C206.963 294.958 204.981 294.46 202.77 294.46V294.96ZM208.45 296.4L208.204 296.835C209.776 297.723 211.004 298.962 211.893 300.563L212.33 300.32L212.767 300.077C211.79 298.318 210.43 296.944 208.696 295.965L208.45 296.4ZM212.33 300.32L211.898 300.571C212.807 302.138 213.27 303.969 213.27 306.08H213.77H214.27C214.27 303.818 213.773 301.809 212.762 300.069L212.33 300.32ZM213.77 306.08H213.27C213.27 308.166 212.82 310 211.933 311.597L212.37 311.84L212.807 312.083C213.787 310.32 214.27 308.314 214.27 306.08H213.77ZM212.37 311.84L211.935 311.594C211.045 313.169 209.816 314.412 208.239 315.328L208.49 315.76L208.741 316.192C210.471 315.188 211.828 313.817 212.805 312.086L212.37 311.84ZM208.49 315.76L208.244 315.325C206.676 316.21 204.856 316.66 202.77 316.66V317.16V317.66C205.004 317.66 206.998 317.177 208.736 316.195L208.49 315.76ZM202.77 313.56V314.06C204.237 314.06 205.554 313.721 206.707 313.029L206.45 312.6L206.193 312.171C205.212 312.759 204.077 313.06 202.77 313.06V313.56ZM206.45 312.6L206.707 313.029C207.854 312.341 208.744 311.392 209.373 310.192L208.93 309.96L208.487 309.728C207.942 310.768 207.179 311.579 206.193 312.171L206.45 312.6ZM208.93 309.96L209.369 310.2C210.028 308.996 210.35 307.618 210.35 306.08H209.85H209.35C209.35 307.475 209.059 308.684 208.491 309.72L208.93 309.96ZM209.85 306.08H210.35C210.35 304.542 210.028 303.164 209.369 301.96L208.93 302.2L208.491 302.44C209.059 303.476 209.35 304.685 209.35 306.08H209.85ZM208.93 302.2L209.375 301.972C208.747 300.745 207.857 299.781 206.707 299.091L206.45 299.52L206.193 299.949C207.176 300.539 207.939 301.361 208.485 302.428L208.93 302.2ZM206.45 299.52L206.707 299.091C205.554 298.399 204.237 298.06 202.77 298.06V298.56V299.06C204.077 299.06 205.212 299.361 206.193 299.949L206.45 299.52ZM202.77 298.56V298.06C201.303 298.06 199.986 298.399 198.833 299.091L199.09 299.52L199.347 299.949C200.328 299.361 201.463 299.06 202.77 299.06V298.56ZM199.09 299.52L198.833 299.091C197.685 299.78 196.783 300.742 196.129 301.964L196.57 302.2L197.011 302.436C197.584 301.365 198.362 300.54 199.347 299.949L199.09 299.52ZM196.57 302.2L196.131 301.96C195.472 303.164 195.15 304.542 195.15 306.08H195.65H196.15C196.15 304.685 196.441 303.476 197.009 302.44L196.57 302.2ZM195.65 306.08H195.15C195.15 307.618 195.472 308.996 196.131 310.2L196.57 309.96L197.009 309.72C196.441 308.684 196.15 307.475 196.15 306.08H195.65ZM196.57 309.96L196.131 310.2C196.786 311.396 197.688 312.342 198.833 313.029L199.09 312.6L199.347 312.171C198.359 311.578 197.58 310.764 197.009 309.72L196.57 309.96ZM199.09 312.6L198.833 313.029C199.986 313.721 201.303 314.06 202.77 314.06V313.56V313.06C201.463 313.06 200.328 312.759 199.347 312.171L199.09 312.6ZM236.842 316.48L236.477 316.821L236.488 316.834L236.501 316.846L236.842 316.48ZM235.442 301.44L235.01 301.692L235.442 301.44ZM233.162 299.32L232.934 299.765L232.941 299.769L232.949 299.772L233.162 299.32ZM226.882 299.28L226.659 298.833V298.833L226.882 299.28ZM224.722 301.12L225.129 301.411L225.134 301.404L224.722 301.12ZM223.922 303.72V304.22H224.422V303.72H223.922ZM221.402 303.72H220.902V304.22H221.402V303.72ZM222.602 299.24L222.177 298.977L222.176 298.979L222.602 299.24ZM225.962 296.08L226.202 296.519L225.962 296.08ZM235.642 296.12L235.399 296.557L235.409 296.562L235.642 296.12ZM239.082 299.56L238.643 299.799L238.646 299.805L239.082 299.56ZM239.762 316.48L239.409 316.126H239.409L239.762 316.48ZM220.402 316.48L220.037 316.821L220.048 316.834L220.061 316.846L220.402 316.48ZM220.402 295.68L220.061 295.314L220.055 295.32L220.049 295.326L220.402 295.68ZM223.362 316.48L223.716 316.834L223.722 316.827L223.728 316.821L223.362 316.48ZM238.322 317.04V316.54C237.852 316.54 237.484 316.395 237.183 316.114L236.842 316.48L236.501 316.846C237.001 317.312 237.619 317.54 238.322 317.54V317.04ZM236.842 316.48L237.208 316.139C236.927 315.838 236.782 315.47 236.782 315H236.282H235.782C235.782 315.703 236.01 316.322 236.477 316.821L236.842 316.48ZM236.282 315H236.782V305.16H236.282H235.782V315H236.282ZM236.282 305.16H236.782C236.782 303.583 236.492 302.248 235.874 301.188L235.442 301.44L235.01 301.692C235.512 302.552 235.782 303.697 235.782 305.16H236.282ZM235.442 301.44L235.874 301.188C235.266 300.145 234.431 299.366 233.376 298.868L233.162 299.32L232.949 299.772C233.813 300.18 234.499 300.815 235.01 301.692L235.442 301.44ZM233.162 299.32L233.391 298.875C232.376 298.353 231.215 298.1 229.922 298.1V298.6V299.1C231.083 299.1 232.082 299.327 232.934 299.765L233.162 299.32ZM229.922 298.6V298.1C228.733 298.1 227.642 298.341 226.659 298.833L226.882 299.28L227.106 299.727C227.936 299.312 228.872 299.1 229.922 299.1V298.6ZM226.882 299.28L226.659 298.833C225.683 299.321 224.896 299.988 224.311 300.836L224.722 301.12L225.134 301.404C225.615 300.705 226.268 300.146 227.106 299.727L226.882 299.28ZM224.722 301.12L224.315 300.829C223.717 301.667 223.422 302.637 223.422 303.72H223.922H224.422C224.422 302.829 224.661 302.066 225.129 301.411L224.722 301.12ZM223.922 303.72V303.22H221.402V303.72V304.22H223.922V303.72ZM221.402 303.72H221.902C221.902 302.123 222.281 300.722 223.029 299.501L222.602 299.24L222.176 298.979C221.323 300.372 220.902 301.957 220.902 303.72H221.402ZM222.602 299.24L223.027 299.503C223.807 298.246 224.862 297.252 226.202 296.519L225.962 296.08L225.722 295.641C224.235 296.455 223.051 297.568 222.177 298.977L222.602 299.24ZM225.962 296.08L226.202 296.519C227.535 295.789 229.038 295.42 230.722 295.42V294.92V294.42C228.886 294.42 227.216 294.824 225.722 295.641L225.962 296.08ZM230.722 294.92V295.42C232.487 295.42 234.042 295.803 235.399 296.557L235.642 296.12L235.885 295.683C234.362 294.837 232.637 294.42 230.722 294.42V294.92ZM235.642 296.12L235.409 296.562C236.784 297.288 237.861 298.362 238.643 299.799L239.082 299.56L239.521 299.321C238.65 297.718 237.433 296.499 235.875 295.678L235.642 296.12ZM239.082 299.56L238.646 299.805C239.448 301.232 239.862 303.01 239.862 305.16H240.362H240.862C240.862 302.884 240.423 300.928 239.518 299.315L239.082 299.56ZM240.362 305.16H239.862V315H240.362H240.862V305.16H240.362ZM240.362 315H239.862C239.862 315.46 239.711 315.824 239.409 316.126L239.762 316.48L240.116 316.834C240.613 316.336 240.862 315.714 240.862 315H240.362ZM239.762 316.48L239.409 316.126C239.14 316.395 238.792 316.54 238.322 316.54V317.04V317.54C239.025 317.54 239.638 317.311 240.116 316.834L239.762 316.48ZM221.882 317.04V316.54C221.412 316.54 221.044 316.395 220.743 316.114L220.402 316.48L220.061 316.846C220.561 317.312 221.179 317.54 221.882 317.54V317.04ZM220.402 316.48L220.768 316.139C220.487 315.838 220.342 315.47 220.342 315H219.842H219.342C219.342 315.703 219.57 316.322 220.037 316.821L220.402 316.48ZM219.842 315H220.342V297.16H219.842H219.342V315H219.842ZM219.842 297.16H220.342C220.342 296.656 220.491 296.298 220.756 296.034L220.402 295.68L220.049 295.326C219.566 295.809 219.342 296.437 219.342 297.16H219.842ZM220.402 295.68L220.743 296.046C221.044 295.765 221.412 295.62 221.882 295.62V295.12V294.62C221.179 294.62 220.561 294.848 220.061 295.314L220.402 295.68ZM221.882 295.12V295.62C222.386 295.62 222.744 295.769 223.009 296.034L223.362 295.68L223.716 295.326C223.233 294.844 222.605 294.62 221.882 294.62V295.12ZM223.362 295.68L223.009 296.034C223.273 296.298 223.422 296.656 223.422 297.16H223.922H224.422C224.422 296.437 224.198 295.809 223.716 295.326L223.362 295.68ZM223.922 297.16H223.422V315H223.922H224.422V297.16H223.922ZM223.922 315H223.422C223.422 315.47 223.277 315.838 222.997 316.139L223.362 316.48L223.728 316.821C224.194 316.322 224.422 315.703 224.422 315H223.922ZM223.362 316.48L223.009 316.126C222.744 316.391 222.386 316.54 221.882 316.54V317.04V317.54C222.605 317.54 223.233 317.316 223.716 316.834L223.362 316.48ZM251.308 315.76L251.057 316.192L251.062 316.195L251.308 315.76ZM247.388 311.84L246.951 312.083L246.955 312.091L247.388 311.84ZM247.388 300.32L246.954 300.072L246.952 300.074L247.388 300.32ZM251.308 296.4L251.554 296.835L251.559 296.832L251.308 296.4ZM262.708 296.4L262.457 296.832L262.462 296.835L262.708 296.4ZM266.588 300.32L266.151 300.563L266.155 300.571L266.588 300.32ZM266.628 311.84L267.063 312.086L267.065 312.083L266.628 311.84ZM262.748 315.76L262.994 316.195L262.999 316.192L262.748 315.76ZM260.708 312.6L260.451 312.171L260.708 312.6ZM263.188 309.96L262.749 309.72L262.745 309.728L263.188 309.96ZM263.188 302.2L262.743 302.428L262.749 302.44L263.188 302.2ZM260.708 299.52L260.451 299.949L260.708 299.52ZM253.348 299.52L253.605 299.949L253.348 299.52ZM250.828 302.2L251.266 302.44L251.269 302.436L250.828 302.2ZM250.828 309.96L251.266 309.72L250.828 309.96ZM253.348 312.6L253.091 313.029L253.348 312.6ZM257.028 317.16V316.66C254.942 316.66 253.122 316.21 251.554 315.325L251.308 315.76L251.062 316.195C252.8 317.177 254.794 317.66 257.028 317.66V317.16ZM251.308 315.76L251.559 315.328C249.981 314.411 248.737 313.167 247.82 311.589L247.388 311.84L246.955 312.091C247.959 313.82 249.328 315.189 251.057 316.192L251.308 315.76ZM247.388 311.84L247.825 311.597C246.938 310 246.488 308.166 246.488 306.08H245.988H245.488C245.488 308.314 245.971 310.32 246.951 312.083L247.388 311.84ZM245.988 306.08H246.488C246.488 303.966 246.938 302.133 247.823 300.566L247.388 300.32L246.952 300.074C245.971 301.813 245.488 303.82 245.488 306.08H245.988ZM247.388 300.32L247.822 300.568C248.738 298.965 249.98 297.724 251.554 296.835L251.308 296.4L251.062 295.965C249.329 296.943 247.958 298.315 246.954 300.072L247.388 300.32ZM251.308 296.4L251.559 296.832C253.126 295.922 254.944 295.46 257.028 295.46V294.96V294.46C254.791 294.46 252.796 294.958 251.057 295.968L251.308 296.4ZM257.028 294.96V295.46C259.083 295.46 260.888 295.922 262.457 296.832L262.708 296.4L262.959 295.968C261.221 294.958 259.239 294.46 257.028 294.46V294.96ZM262.708 296.4L262.462 296.835C264.034 297.723 265.262 298.962 266.151 300.563L266.588 300.32L267.025 300.077C266.047 298.318 264.688 296.944 262.954 295.965L262.708 296.4ZM266.588 300.32L266.155 300.571C267.065 302.138 267.528 303.969 267.528 306.08H268.028H268.528C268.528 303.818 268.031 301.809 267.02 300.069L266.588 300.32ZM268.028 306.08H267.528C267.528 308.166 267.078 310 266.191 311.597L266.628 311.84L267.065 312.083C268.044 310.32 268.528 308.314 268.528 306.08H268.028ZM266.628 311.84L266.192 311.594C265.303 313.169 264.074 314.412 262.497 315.328L262.748 315.76L262.999 316.192C264.729 315.188 266.086 313.817 267.063 312.086L266.628 311.84ZM262.748 315.76L262.502 315.325C260.934 316.21 259.114 316.66 257.028 316.66V317.16V317.66C259.262 317.66 261.255 317.177 262.994 316.195L262.748 315.76ZM257.028 313.56V314.06C258.494 314.06 259.812 313.721 260.965 313.029L260.708 312.6L260.451 312.171C259.47 312.759 258.335 313.06 257.028 313.06V313.56ZM260.708 312.6L260.965 313.029C262.112 312.341 263.002 311.392 263.631 310.192L263.188 309.96L262.745 309.728C262.2 310.768 261.437 311.579 260.451 312.171L260.708 312.6ZM263.188 309.96L263.626 310.2C264.286 308.996 264.608 307.618 264.608 306.08H264.108H263.608C263.608 307.475 263.317 308.684 262.749 309.72L263.188 309.96ZM264.108 306.08H264.608C264.608 304.542 264.286 303.164 263.626 301.96L263.188 302.2L262.749 302.44C263.317 303.476 263.608 304.685 263.608 306.08H264.108ZM263.188 302.2L263.633 301.972C263.005 300.745 262.115 299.781 260.965 299.091L260.708 299.52L260.451 299.949C261.434 300.539 262.197 301.361 262.743 302.428L263.188 302.2ZM260.708 299.52L260.965 299.091C259.812 298.399 258.494 298.06 257.028 298.06V298.56V299.06C258.335 299.06 259.47 299.361 260.451 299.949L260.708 299.52ZM257.028 298.56V298.06C255.561 298.06 254.244 298.399 253.091 299.091L253.348 299.52L253.605 299.949C254.585 299.361 255.721 299.06 257.028 299.06V298.56ZM253.348 299.52L253.091 299.091C251.943 299.78 251.041 300.742 250.387 301.964L250.828 302.2L251.269 302.436C251.841 301.365 252.62 300.54 253.605 299.949L253.348 299.52ZM250.828 302.2L250.389 301.96C249.73 303.164 249.408 304.542 249.408 306.08H249.908H250.408C250.408 304.685 250.699 303.476 251.266 302.44L250.828 302.2ZM249.908 306.08H249.408C249.408 307.618 249.73 308.996 250.389 310.2L250.828 309.96L251.266 309.72C250.699 308.684 250.408 307.475 250.408 306.08H249.908ZM250.828 309.96L250.389 310.2C251.044 311.396 251.946 312.342 253.091 313.029L253.348 312.6L253.605 312.171C252.617 311.578 251.838 310.764 251.266 309.72L250.828 309.96ZM253.348 312.6L253.091 313.029C254.244 313.721 255.561 314.06 257.028 314.06V313.56V313.06C255.721 313.06 254.585 312.759 253.605 312.171L253.348 312.6ZM275.06 316.4L274.694 316.741L274.7 316.747L274.706 316.754L275.06 316.4ZM275.1 286.36L274.746 286.006L275.1 286.36ZM278.62 312.84H278.12V313.34H278.62V312.84ZM294.58 313.44L294.934 313.086H294.934L294.58 313.44ZM294.58 316.4L294.934 316.754L294.934 316.754L294.58 316.4ZM276.54 317V316.5C276.08 316.5 275.716 316.349 275.414 316.046L275.06 316.4L274.706 316.754C275.204 317.251 275.826 317.5 276.54 317.5V317ZM275.06 316.4L275.426 316.059C275.145 315.758 275 315.39 275 314.92H274.5H274C274 315.623 274.228 316.242 274.694 316.741L275.06 316.4ZM274.5 314.92H275V287.84H274.5H274V314.92H274.5ZM274.5 287.84H275C275 287.38 275.151 287.016 275.454 286.714L275.1 286.36L274.746 286.006C274.249 286.504 274 287.126 274 287.84H274.5ZM275.1 286.36L275.454 286.714C275.761 286.406 276.114 286.26 276.54 286.26V285.76V285.26C275.846 285.26 275.239 285.514 274.746 286.006L275.1 286.36ZM276.54 285.76V286.26C277 286.26 277.364 286.411 277.666 286.714L278.02 286.36L278.374 286.006C277.876 285.509 277.254 285.26 276.54 285.26V285.76ZM278.02 286.36L277.666 286.714C277.969 287.016 278.12 287.38 278.12 287.84H278.62H279.12C279.12 287.126 278.871 286.504 278.374 286.006L278.02 286.36ZM278.62 287.84H278.12V312.84H278.62H279.12V287.84H278.62ZM278.62 312.84V313.34H293.1V312.84V312.34H278.62V312.84ZM293.1 312.84V313.34C293.56 313.34 293.924 313.491 294.226 313.794L294.58 313.44L294.934 313.086C294.436 312.589 293.814 312.34 293.1 312.34V312.84ZM294.58 313.44L294.226 313.794C294.529 314.096 294.68 314.46 294.68 314.92H295.18H295.68C295.68 314.206 295.431 313.584 294.934 313.086L294.58 313.44ZM295.18 314.92H294.68C294.68 315.38 294.529 315.744 294.226 316.046L294.58 316.4L294.934 316.754C295.431 316.256 295.68 315.634 295.68 314.92H295.18ZM294.58 316.4L294.226 316.046C293.924 316.349 293.56 316.5 293.1 316.5V317V317.5C293.814 317.5 294.436 317.251 294.934 316.754L294.58 316.4ZM293.1 317V316.5H276.54V317V317.5H293.1V317ZM303.644 315.72L303.375 316.142L303.38 316.145L303.644 315.72ZM299.964 311.76L299.521 311.992L299.526 312L299.964 311.76ZM300.084 300.4L299.653 300.147L299.65 300.152L300.084 300.4ZM304.044 296.44L304.295 296.872L304.297 296.871L304.044 296.44ZM315.284 296.44L315.028 296.869L315.033 296.872L315.284 296.44ZM319.204 300.4L318.77 300.648L318.773 300.653L319.204 300.4ZM320.684 306.08V306.58H321.184V306.08H320.684ZM319.124 306.08V305.58H318.624V306.08H319.124ZM317.764 311.76L317.324 311.523L317.323 311.525L317.764 311.76ZM314.124 315.72L314.388 316.145L314.393 316.142L314.124 315.72ZM313.324 312.6L313.581 313.029L313.589 313.024L313.324 312.6ZM315.844 309.92L316.283 310.16L316.285 310.156L315.844 309.92ZM315.844 302.24L315.403 302.476L315.406 302.48L315.844 302.24ZM313.324 299.56L313.059 299.984L313.067 299.989L313.324 299.56ZM306.044 299.56L306.301 299.989L306.304 299.987L306.044 299.56ZM303.484 302.24L303.047 301.996L303.046 302L303.484 302.24ZM303.484 309.92L303.043 310.156L303.05 310.168L303.484 309.92ZM306.044 312.6L305.779 313.024L305.785 313.028L305.791 313.032L306.044 312.6ZM317.164 316.48L316.799 316.821L316.81 316.834L316.823 316.846L317.164 316.48ZM316.604 308.88L316.112 308.792L316.104 308.836V308.88H316.604ZM317.364 304.64L317.563 304.181L316.983 303.93L316.872 304.552L317.364 304.64ZM320.684 306.08H321.184V305.752L320.883 305.621L320.684 306.08ZM320.084 316.48L320.438 316.834L320.084 316.48ZM308.884 317.16V316.66C307.024 316.66 305.37 316.203 303.908 315.295L303.644 315.72L303.38 316.145C305.012 317.157 306.851 317.66 308.884 317.66V317.16ZM303.644 315.72L303.913 315.298C302.439 314.358 301.27 313.101 300.402 311.52L299.964 311.76L299.526 312C300.472 313.725 301.756 315.108 303.375 316.142L303.644 315.72ZM299.964 311.76L300.407 311.528C299.568 309.927 299.144 308.115 299.144 306.08H298.644H298.144C298.144 308.258 298.6 310.233 299.521 311.992L299.964 311.76ZM298.644 306.08H299.144C299.144 304.052 299.605 302.246 300.518 300.648L300.084 300.4L299.65 300.152C298.643 301.914 298.144 303.894 298.144 306.08H298.644ZM300.084 300.4L300.515 300.653C301.459 299.046 302.718 297.788 304.295 296.872L304.044 296.44L303.793 296.008C302.064 297.012 300.682 298.394 299.653 300.147L300.084 300.4ZM304.044 296.44L304.297 296.871C305.895 295.933 307.687 295.46 309.684 295.46V294.96V294.46C307.521 294.46 305.553 294.974 303.791 296.009L304.044 296.44ZM309.684 294.96V295.46C311.681 295.46 313.458 295.933 315.028 296.869L315.284 296.44L315.54 296.011C313.803 294.974 311.847 294.46 309.684 294.46V294.96ZM315.284 296.44L315.033 296.872C316.609 297.788 317.853 299.044 318.77 300.648L319.204 300.4L319.638 300.152C318.635 298.396 317.266 297.012 315.535 296.008L315.284 296.44ZM319.204 300.4L318.773 300.653C319.711 302.25 320.184 304.055 320.184 306.08H320.684H321.184C321.184 303.892 320.671 301.91 319.635 300.147L319.204 300.4ZM320.684 306.08V305.58H319.124V306.08V306.58H320.684V306.08ZM319.124 306.08H318.624C318.624 308.113 318.187 309.923 317.324 311.523L317.764 311.76L318.204 311.997C319.154 310.237 319.624 308.261 319.624 306.08H319.124ZM317.764 311.76L317.323 311.525C316.482 313.104 315.328 314.359 313.855 315.298L314.124 315.72L314.393 316.142C316.014 315.108 317.286 313.723 318.205 311.995L317.764 311.76ZM314.124 315.72L313.86 315.295C312.398 316.203 310.744 316.66 308.884 316.66V317.16V317.66C310.917 317.66 312.756 317.157 314.388 316.145L314.124 315.72ZM309.684 313.56V314.06C311.126 314.06 312.43 313.72 313.581 313.029L313.324 312.6L313.067 312.171C312.085 312.76 310.962 313.06 309.684 313.06V313.56ZM313.324 312.6L313.589 313.024C314.73 312.311 315.629 311.354 316.283 310.16L315.844 309.92L315.406 309.68C314.833 310.726 314.052 311.555 313.059 312.176L313.324 312.6ZM315.844 309.92L316.285 310.156C316.94 308.93 317.264 307.568 317.264 306.08H316.764H316.264C316.264 307.418 315.974 308.616 315.403 309.684L315.844 309.92ZM316.764 306.08H317.264C317.264 304.567 316.941 303.202 316.283 302L315.844 302.24L315.406 302.48C315.974 303.518 316.264 304.713 316.264 306.08H316.764ZM315.844 302.24L316.285 302.004C315.631 300.782 314.729 299.82 313.581 299.131L313.324 299.56L313.067 299.989C314.052 300.58 314.83 301.405 315.403 302.476L315.844 302.24ZM313.324 299.56L313.589 299.136C312.436 298.416 311.13 298.06 309.684 298.06V298.56V299.06C310.958 299.06 312.078 299.371 313.059 299.984L313.324 299.56ZM309.684 298.56V298.06C308.263 298.06 306.959 298.417 305.784 299.133L306.044 299.56L306.304 299.987C307.316 299.37 308.439 299.06 309.684 299.06V298.56ZM306.044 299.56L305.787 299.131C304.641 299.819 303.728 300.778 303.047 301.996L303.484 302.24L303.921 302.484C304.521 301.409 305.314 300.581 306.301 299.989L306.044 299.56ZM303.484 302.24L303.046 302C302.387 303.202 302.064 304.567 302.064 306.08H302.564H303.064C303.064 304.713 303.355 303.518 303.923 302.48L303.484 302.24ZM302.564 306.08H302.064C302.064 307.568 302.388 308.93 303.043 310.156L303.484 309.92L303.925 309.684C303.354 308.616 303.064 307.418 303.064 306.08H302.564ZM303.484 309.92L303.05 310.168C303.73 311.358 304.641 312.312 305.779 313.024L306.044 312.6L306.309 312.176C305.314 311.554 304.518 310.722 303.918 309.672L303.484 309.92ZM306.044 312.6L305.791 313.032C306.965 313.719 308.267 314.06 309.684 314.06V313.56V313.06C308.435 313.06 307.309 312.761 306.297 312.168L306.044 312.6ZM318.644 317.04V316.54C318.174 316.54 317.806 316.395 317.505 316.114L317.164 316.48L316.823 316.846C317.323 317.312 317.941 317.54 318.644 317.54V317.04ZM317.164 316.48L317.53 316.139C317.249 315.838 317.104 315.47 317.104 315H316.604H316.104C316.104 315.703 316.332 316.322 316.799 316.821L317.164 316.48ZM316.604 315H317.104V308.88H316.604H316.104V315H316.604ZM316.604 308.88L317.096 308.968L317.856 304.728L317.364 304.64L316.872 304.552L316.112 308.792L316.604 308.88ZM317.364 304.64L317.165 305.099L320.485 306.539L320.684 306.08L320.883 305.621L317.563 304.181L317.364 304.64ZM320.684 306.08H320.184V315H320.684H321.184V306.08H320.684ZM320.684 315H320.184C320.184 315.46 320.033 315.824 319.731 316.126L320.084 316.48L320.438 316.834C320.935 316.336 321.184 315.714 321.184 315H320.684ZM320.084 316.48L319.731 316.126C319.462 316.395 319.114 316.54 318.644 316.54V317.04V317.54C319.347 317.54 319.96 317.311 320.438 316.834L320.084 316.48ZM327.316 325.76L326.963 326.114L327.316 325.76ZM326.756 306.08L326.256 306.074V306.08H326.756ZM332.156 296.44L332.407 296.872L332.412 296.869L332.156 296.44ZM343.396 296.44L343.14 296.869L343.145 296.872L343.396 296.44ZM347.316 300.4L346.882 300.648L346.885 300.653L347.316 300.4ZM347.436 311.76L346.996 311.523L346.995 311.525L347.436 311.76ZM343.796 315.72L344.06 316.145L344.065 316.142L343.796 315.72ZM334.196 316.2L333.969 316.646L333.98 316.651L334.196 316.2ZM330.836 313.52L331.22 313.2L330.336 312.139V313.52H330.836ZM330.276 325.76L329.923 325.406L329.917 325.413L329.911 325.419L330.276 325.76ZM341.396 312.6L341.654 313.029L341.661 313.024L341.396 312.6ZM343.916 309.92L343.48 309.676L343.478 309.68L343.916 309.92ZM343.916 302.24L343.475 302.476L343.482 302.488L343.916 302.24ZM341.396 299.56L341.131 299.984L341.139 299.989L341.396 299.56ZM334.116 299.56L334.374 299.989L334.377 299.987L334.116 299.56ZM331.596 302.24L332.035 302.48L332.037 302.476L331.596 302.24ZM331.596 309.92L331.155 310.156L331.158 310.16L331.596 309.92ZM334.116 312.6L333.851 313.024L333.857 313.028L333.864 313.032L334.116 312.6ZM328.796 326.36V325.86C328.337 325.86 327.972 325.709 327.67 325.406L327.316 325.76L326.963 326.114C327.46 326.611 328.082 326.86 328.796 326.86V326.36ZM327.316 325.76L327.67 325.406C327.401 325.138 327.256 324.79 327.256 324.32H326.756H326.256C326.256 325.023 326.485 325.636 326.963 326.114L327.316 325.76ZM326.756 324.32H327.256V306.08H326.756H326.256V324.32H326.756ZM326.756 306.08L327.256 306.086C327.282 304.057 327.756 302.248 328.67 300.648L328.236 300.4L327.802 300.152C326.796 301.912 326.284 303.89 326.256 306.074L326.756 306.08ZM328.236 300.4L328.67 300.648C329.587 299.044 330.831 297.788 332.407 296.872L332.156 296.44L331.905 296.008C330.175 297.012 328.805 298.396 327.802 300.152L328.236 300.4ZM332.156 296.44L332.412 296.869C333.982 295.933 335.759 295.46 337.756 295.46V294.96V294.46C335.594 294.46 333.637 294.974 331.9 296.011L332.156 296.44ZM337.756 294.96V295.46C339.781 295.46 341.571 295.933 343.14 296.869L343.396 296.44L343.652 296.011C341.914 294.973 339.944 294.46 337.756 294.46V294.96ZM343.396 296.44L343.145 296.872C344.721 297.788 345.965 299.044 346.882 300.648L347.316 300.4L347.75 300.152C346.747 298.396 345.378 297.012 343.647 296.008L343.396 296.44ZM347.316 300.4L346.885 300.653C347.823 302.25 348.296 304.055 348.296 306.08H348.796H349.296C349.296 303.892 348.783 301.91 347.747 300.147L347.316 300.4ZM348.796 306.08H348.296C348.296 308.113 347.86 309.923 346.996 311.523L347.436 311.76L347.876 311.997C348.826 310.237 349.296 308.261 349.296 306.08H348.796ZM347.436 311.76L346.995 311.525C346.154 313.104 345 314.359 343.527 315.298L343.796 315.72L344.065 316.142C345.686 315.108 346.958 313.723 347.878 311.995L347.436 311.76ZM343.796 315.72L343.533 315.295C342.071 316.203 340.416 316.66 338.556 316.66V317.16V317.66C340.589 317.66 342.429 317.157 344.06 316.145L343.796 315.72ZM338.556 317.16V316.66C337.053 316.66 335.674 316.355 334.413 315.749L334.196 316.2L333.98 316.651C335.385 317.325 336.913 317.66 338.556 317.66V317.16ZM334.196 316.2L334.423 315.755C333.177 315.118 332.11 314.268 331.22 313.2L330.836 313.52L330.452 313.84C331.429 315.012 332.603 315.948 333.969 316.645L334.196 316.2ZM330.836 313.52H330.336V324.32H330.836H331.336V313.52H330.836ZM330.836 324.32H330.336C330.336 324.79 330.191 325.138 329.923 325.406L330.276 325.76L330.63 326.114C331.108 325.636 331.336 325.023 331.336 324.32H330.836ZM330.276 325.76L329.911 325.419C329.644 325.705 329.29 325.86 328.796 325.86V326.36V326.86C329.53 326.86 330.162 326.615 330.642 326.101L330.276 325.76ZM337.756 313.56V314.06C339.198 314.06 340.502 313.72 341.654 313.029L341.396 312.6L341.139 312.171C340.157 312.76 339.034 313.06 337.756 313.06V313.56ZM341.396 312.6L341.661 313.024C342.802 312.311 343.701 311.354 344.355 310.16L343.916 309.92L343.478 309.68C342.905 310.726 342.124 311.555 341.131 312.176L341.396 312.6ZM343.916 309.92L344.353 310.164C345.038 308.937 345.376 307.572 345.376 306.08H344.876H344.376C344.376 307.415 344.075 308.61 343.48 309.676L343.916 309.92ZM344.876 306.08H345.376C345.376 304.563 345.038 303.196 344.35 301.992L343.916 302.24L343.482 302.488C344.074 303.524 344.376 304.717 344.376 306.08H344.876ZM343.916 302.24L344.357 302.004C343.703 300.782 342.801 299.82 341.654 299.131L341.396 299.56L341.139 299.989C342.125 300.58 342.903 301.405 343.475 302.476L343.916 302.24ZM341.396 299.56L341.661 299.136C340.509 298.416 339.202 298.06 337.756 298.06V298.56V299.06C339.03 299.06 340.15 299.371 341.131 299.984L341.396 299.56ZM337.756 298.56V298.06C336.335 298.06 335.031 298.417 333.856 299.133L334.116 299.56L334.377 299.987C335.388 299.37 336.511 299.06 337.756 299.06V298.56ZM334.116 299.56L333.859 299.131C332.711 299.82 331.809 300.782 331.155 302.004L331.596 302.24L332.037 302.476C332.61 301.405 333.388 300.58 334.374 299.989L334.116 299.56ZM331.596 302.24L331.158 302C330.499 303.202 330.176 304.567 330.176 306.08H330.676H331.176C331.176 304.713 331.467 303.518 332.035 302.48L331.596 302.24ZM330.676 306.08H330.176C330.176 307.568 330.5 308.93 331.155 310.156L331.596 309.92L332.037 309.684C331.466 308.616 331.176 307.418 331.176 306.08H330.676ZM331.596 309.92L331.158 310.16C331.812 311.354 332.711 312.311 333.851 313.024L334.116 312.6L334.381 312.176C333.388 311.555 332.608 310.726 332.035 309.68L331.596 309.92ZM334.116 312.6L333.864 313.032C335.038 313.719 336.339 314.06 337.756 314.06V313.56V313.06C336.507 313.06 335.381 312.761 334.369 312.168L334.116 312.6ZM357.641 316.32L357.467 316.789L357.476 316.792L357.641 316.32ZM353.961 314.12L353.596 314.462L353.602 314.468L353.608 314.474L353.961 314.12ZM353.441 312.68L352.946 312.609L352.945 312.62L352.944 312.63L353.441 312.68ZM354.241 311.32L354.545 311.717L354.554 311.71L354.241 311.32ZM355.801 310.8L355.723 311.294L355.737 311.296L355.751 311.298L355.801 310.8ZM357.161 311.48L357.534 311.147L357.527 311.139L357.161 311.48ZM359.321 312.92L359.113 313.374L359.12 313.378L359.127 313.381L359.321 312.92ZM366.201 312.8L365.94 312.374L365.934 312.378L366.201 312.8ZM367.481 310.84L367.981 310.857L367.481 310.84ZM366.321 308.76L366.019 309.158L366.026 309.163L366.321 308.76ZM362.041 307.32L361.944 307.811L361.953 307.812L362.041 307.32ZM356.161 304.92L355.829 305.294L355.833 305.297L356.161 304.92ZM355.561 297.64L355.931 297.976L355.936 297.971L355.561 297.64ZM358.641 295.64L358.802 296.113L358.811 296.11L358.641 295.64ZM367.241 295.8L367.432 295.338L367.241 295.8ZM370.481 298.12L370.093 298.435L370.099 298.442L370.105 298.449L370.481 298.12ZM371.001 299.48L371.5 299.509L371.5 299.508L371.001 299.48ZM370.321 300.64L370.605 301.052L370.613 301.046L370.621 301.04L370.321 300.64ZM368.801 300.92L368.712 301.412L368.801 300.92ZM367.321 300.2L366.975 300.561L366.98 300.566L367.321 300.2ZM365.161 298.88L365.013 299.358L365.161 298.88ZM359.481 299.12L359.263 298.67L359.258 298.673L359.481 299.12ZM358.641 302.2L358.213 302.457L358.223 302.474L358.234 302.491L358.641 302.2ZM360.161 303.24L359.964 303.7L359.971 303.703L359.978 303.705L360.161 303.24ZM363.441 304.12L363.341 304.61L363.343 304.61L363.441 304.12ZM368.161 305.64L367.925 306.081L367.93 306.083L368.161 305.64ZM370.681 307.8L370.255 308.061L370.259 308.068L370.681 307.8ZM370.441 313.92L370.027 313.64L370.022 313.648L370.441 313.92ZM367.561 316.28L367.353 315.825L367.349 315.827L367.561 316.28ZM362.841 317.16V316.66C361.025 316.66 359.348 316.388 357.806 315.848L357.641 316.32L357.476 316.792C359.134 317.372 360.924 317.66 362.841 317.66V317.16ZM357.641 316.32L357.816 315.852C356.288 315.282 355.13 314.581 354.315 313.766L353.961 314.12L353.608 314.474C354.553 315.419 355.848 316.185 357.467 316.788L357.641 316.32ZM353.961 314.12L354.326 313.778C354.015 313.446 353.901 313.105 353.939 312.73L353.441 312.68L352.944 312.63C352.875 313.321 353.108 313.941 353.596 314.462L353.961 314.12ZM353.441 312.68L353.936 312.751C353.998 312.322 354.195 311.985 354.545 311.717L354.241 311.32L353.938 310.923C353.381 311.348 353.045 311.918 352.946 312.609L353.441 312.68ZM354.241 311.32L354.554 311.71C355.015 311.341 355.397 311.242 355.723 311.294L355.801 310.8L355.879 310.306C355.192 310.198 354.534 310.446 353.929 310.93L354.241 311.32ZM355.801 310.8L355.751 311.298C356.161 311.339 356.503 311.508 356.796 311.821L357.161 311.48L357.527 311.139C357.073 310.652 356.508 310.368 355.851 310.302L355.801 310.8ZM357.161 311.48L356.789 311.813C357.307 312.393 358.096 312.908 359.113 313.374L359.321 312.92L359.53 312.466C358.573 312.026 357.922 311.581 357.534 311.147L357.161 311.48ZM359.321 312.92L359.127 313.381C360.209 313.836 361.396 314.06 362.681 314.06V313.56V313.06C361.514 313.06 360.46 312.857 359.515 312.459L359.321 312.92ZM362.681 313.56V314.06C364.269 314.06 365.553 313.802 366.469 313.222L366.201 312.8L365.934 312.378C365.25 312.811 364.187 313.06 362.681 313.06V313.56ZM366.201 312.8L366.463 313.226C367.398 312.653 367.947 311.862 367.981 310.857L367.481 310.84L366.982 310.823C366.962 311.418 366.658 311.934 365.94 312.374L366.201 312.8ZM367.481 310.84L367.981 310.857C368.014 309.851 367.514 309.015 366.617 308.357L366.321 308.76L366.026 309.163C366.728 309.679 367.001 310.229 366.982 310.823L367.481 310.84ZM366.321 308.76L366.623 308.362C365.748 307.697 364.216 307.202 362.13 306.828L362.041 307.32L361.953 307.812C364.026 308.184 365.348 308.649 366.019 309.158L366.321 308.76ZM362.041 307.32L362.138 306.83C359.479 306.303 357.619 305.525 356.489 304.543L356.161 304.92L355.833 305.297C357.157 306.448 359.217 307.27 361.944 307.81L362.041 307.32ZM356.161 304.92L356.493 304.546C355.396 303.57 354.861 302.398 354.861 301H354.361H353.861C353.861 302.696 354.527 304.136 355.829 305.294L356.161 304.92ZM354.361 301H354.861C354.861 299.745 355.227 298.751 355.931 297.976L355.561 297.64L355.191 297.304C354.296 298.289 353.861 299.535 353.861 301H354.361ZM355.561 297.64L355.936 297.971C356.673 297.136 357.623 296.515 358.802 296.113L358.641 295.64L358.48 295.167C357.152 295.619 356.049 296.331 355.186 297.309L355.561 297.64ZM358.641 295.64L358.811 296.11C360.009 295.677 361.258 295.46 362.561 295.46V294.96V294.46C361.144 294.46 359.78 294.696 358.471 295.17L358.641 295.64ZM362.561 294.96V295.46C364.269 295.46 365.762 295.732 367.051 296.262L367.241 295.8L367.432 295.338C366.001 294.748 364.374 294.46 362.561 294.46V294.96ZM367.241 295.8L367.051 296.262C368.346 296.796 369.353 297.523 370.093 298.435L370.481 298.12L370.87 297.805C370.009 296.744 368.857 295.924 367.432 295.338L367.241 295.8ZM370.481 298.12L370.105 298.449C370.409 298.796 370.52 299.126 370.502 299.452L371.001 299.48L371.5 299.508C371.536 298.874 371.3 298.297 370.858 297.791L370.481 298.12ZM371.001 299.48L370.502 299.451C370.486 299.731 370.353 299.991 370.021 300.24L370.321 300.64L370.621 301.04C371.143 300.649 371.464 300.136 371.5 299.509L371.001 299.48ZM370.321 300.64L370.038 300.228C369.737 300.435 369.369 300.515 368.891 300.428L368.801 300.92L368.712 301.412C369.407 301.538 370.052 301.432 370.605 301.052L370.321 300.64ZM368.801 300.92L368.891 300.428C368.39 300.337 367.986 300.137 367.662 299.834L367.321 300.2L366.98 300.566C367.456 301.01 368.04 301.29 368.712 301.412L368.801 300.92ZM367.321 300.2L367.668 299.839C366.953 299.153 366.167 298.669 365.309 298.402L365.161 298.88L365.013 299.358C365.702 299.571 366.356 299.967 366.975 300.561L367.321 300.2ZM365.161 298.88L365.309 298.402C364.478 298.144 363.533 298.02 362.481 298.02V298.52V299.02C363.456 299.02 364.298 299.136 365.013 299.358L365.161 298.88ZM362.481 298.52V298.02C361.253 298.02 360.174 298.229 359.263 298.67L359.481 299.12L359.699 299.57C360.442 299.211 361.363 299.02 362.481 299.02V298.52ZM359.481 299.12L359.258 298.673C358.801 298.901 358.427 299.199 358.168 299.578C357.906 299.962 357.781 300.402 357.781 300.88H358.281H358.781C358.781 300.584 358.856 300.345 358.994 300.142C359.135 299.935 359.362 299.739 359.705 299.567L359.481 299.12ZM358.281 300.88H357.781C357.781 301.448 357.924 301.977 358.213 302.457L358.641 302.2L359.07 301.943C358.878 301.623 358.781 301.272 358.781 300.88H358.281ZM358.641 302.2L358.234 302.491C358.581 302.976 359.19 303.368 359.964 303.7L360.161 303.24L360.358 302.78C359.639 302.472 359.235 302.171 359.048 301.909L358.641 302.2ZM360.161 303.24L359.978 303.705C360.766 304.015 361.892 304.315 363.341 304.61L363.441 304.12L363.541 303.63C362.11 303.339 361.05 303.052 360.344 302.775L360.161 303.24ZM363.441 304.12L363.343 304.61C365.319 305.005 366.839 305.5 367.925 306.081L368.161 305.64L368.397 305.199C367.19 304.553 365.563 304.035 363.539 303.63L363.441 304.12ZM368.161 305.64L367.93 306.083C369.051 306.669 369.81 307.335 370.255 308.061L370.681 307.8L371.108 307.539C370.539 306.612 369.618 305.837 368.393 305.197L368.161 305.64ZM370.681 307.8L370.259 308.068C370.709 308.778 370.941 309.616 370.941 310.6H371.441H371.941C371.941 309.451 371.667 308.422 371.104 307.532L370.681 307.8ZM371.441 310.6H370.941C370.941 311.73 370.636 312.739 370.027 313.64L370.441 313.92L370.856 314.2C371.58 313.128 371.941 311.923 371.941 310.6H371.441ZM370.441 313.92L370.022 313.648C369.443 314.54 368.564 315.27 367.353 315.825L367.561 316.28L367.77 316.735C369.119 316.116 370.16 315.273 370.861 314.192L370.441 313.92ZM367.561 316.28L367.349 315.827C366.182 316.374 364.687 316.66 362.841 316.66V317.16V317.66C364.782 317.66 366.434 317.36 367.773 316.733L367.561 316.28ZM380.96 315.76L380.715 316.196L380.723 316.2L380.96 315.76ZM376.92 311.84L376.486 312.088L376.491 312.096L376.92 311.84ZM376.84 300.32L376.403 300.077L376.402 300.08L376.84 300.32ZM380.68 296.4L380.929 296.834L380.934 296.831L380.68 296.4ZM391.64 296.36L391.375 296.784L391.381 296.787L391.64 296.36ZM395.04 300.16L394.588 300.375L394.593 300.384L395.04 300.16ZM395.72 307L396.059 307.367L396.066 307.361L396.074 307.354L395.72 307ZM378.28 307.48H377.78V307.98H378.28V307.48ZM378.28 304.28V303.78H377.78V304.28H378.28ZM394.28 304.28L394.562 304.693L395.899 303.78H394.28V304.28ZM392.64 305.4L392.14 305.41L392.159 306.334L392.922 305.813L392.64 305.4ZM391.84 301.84L391.388 302.055L391.391 302.059L391.84 301.84ZM382.36 299.4L382.1 298.973L382.095 298.976L382.36 299.4ZM379.92 302.16L380.369 302.379L380.371 302.375L379.92 302.16ZM380.08 310L379.648 310.251L380.08 310ZM382.84 312.72L383.087 312.285L382.84 312.72ZM389.4 313.28L389.563 313.753L389.571 313.75L389.4 313.28ZM391.52 312.2L391.224 311.797L391.22 311.8L391.52 312.2ZM392.8 311.76V312.26H392.814L392.828 312.259L392.8 311.76ZM394.04 312.16L394.371 311.785L394.363 311.778L394.04 312.16ZM394.76 313.48L395.259 313.452L394.76 313.48ZM394.12 314.72L393.816 314.323L393.809 314.328L394.12 314.72ZM390.72 316.48L390.562 316.006L390.559 316.007L390.72 316.48ZM386.88 317.16V316.66C384.739 316.66 382.849 316.209 381.197 315.32L380.96 315.76L380.723 316.2C382.538 317.177 384.594 317.66 386.88 317.66V317.16ZM380.96 315.76L381.205 315.324C379.573 314.406 378.291 313.161 377.349 311.584L376.92 311.84L376.491 312.096C377.523 313.826 378.934 315.194 380.715 316.196L380.96 315.76ZM376.92 311.84L377.354 311.592C376.442 309.996 375.98 308.163 375.98 306.08H375.48H374.98C374.98 308.317 375.478 310.324 376.486 312.088L376.92 311.84ZM375.48 306.08H375.98C375.98 303.964 376.418 302.129 377.278 300.56L376.84 300.32L376.402 300.08C375.448 301.818 374.98 303.823 374.98 306.08H375.48ZM376.84 300.32L377.277 300.563C378.167 298.96 379.383 297.721 380.929 296.834L380.68 296.4L380.431 295.966C378.724 296.946 377.379 298.32 376.403 300.077L376.84 300.32ZM380.68 296.4L380.934 296.831C382.475 295.921 384.252 295.46 386.28 295.46V294.96V294.46C384.095 294.46 382.138 294.959 380.426 295.969L380.68 296.4ZM386.28 294.96V295.46C388.283 295.46 389.975 295.909 391.375 296.784L391.64 296.36L391.905 295.936C390.319 294.945 388.437 294.46 386.28 294.46V294.96ZM391.64 296.36L391.381 296.787C392.788 297.642 393.856 298.833 394.588 300.375L395.04 300.16L395.492 299.945C394.678 298.233 393.479 296.892 391.899 295.933L391.64 296.36ZM395.04 300.16L394.593 300.384C395.352 301.903 395.74 303.677 395.74 305.72H396.24H396.74C396.74 303.549 396.328 301.617 395.487 299.936L395.04 300.16ZM396.24 305.72H395.74C395.74 306.099 395.616 306.397 395.366 306.646L395.72 307L396.074 307.354C396.517 306.91 396.74 306.354 396.74 305.72H396.24ZM395.72 307L395.381 306.633C395.139 306.856 394.825 306.98 394.4 306.98V307.48V307.98C395.041 307.98 395.608 307.784 396.059 307.367L395.72 307ZM394.4 307.48V306.98H378.28V307.48V307.98H394.4V307.48ZM378.28 307.48H378.78V304.28H378.28H377.78V307.48H378.28ZM378.28 304.28V304.78H394.28V304.28V303.78H378.28V304.28ZM394.28 304.28L393.998 303.867L392.358 304.987L392.64 305.4L392.922 305.813L394.562 304.693L394.28 304.28ZM392.64 305.4L393.14 305.39C393.112 303.995 392.832 302.735 392.289 301.621L391.84 301.84L391.391 302.059C391.861 303.025 392.115 304.138 392.14 305.41L392.64 305.4ZM391.84 301.84L392.292 301.625C391.748 300.481 390.969 299.569 389.955 298.902L389.68 299.32L389.405 299.738C390.258 300.298 390.919 301.066 391.388 302.055L391.84 301.84ZM389.68 299.32L389.955 298.902C388.925 298.226 387.692 297.9 386.28 297.9V298.4V298.9C387.535 298.9 388.568 299.188 389.405 299.738L389.68 299.32ZM386.28 298.4V297.9C384.685 297.9 383.285 298.25 382.1 298.973L382.36 299.4L382.62 299.827C383.622 299.216 384.835 298.9 386.28 298.9V298.4ZM382.36 299.4L382.095 298.976C380.945 299.695 380.068 300.688 379.469 301.945L379.92 302.16L380.371 302.375C380.892 301.285 381.642 300.438 382.625 299.824L382.36 299.4ZM379.92 302.16L379.471 301.941C378.873 303.165 378.58 304.549 378.58 306.08H379.08H379.58C379.58 304.678 379.847 303.448 380.369 302.379L379.92 302.16ZM379.08 306.08H378.58C378.58 307.625 378.932 309.02 379.648 310.251L380.08 310L380.512 309.749C379.895 308.686 379.58 307.468 379.58 306.08H379.08ZM380.08 310L379.648 310.251C380.36 311.476 381.344 312.445 382.593 313.155L382.84 312.72L383.087 312.285C381.989 311.661 381.134 310.818 380.512 309.749L380.08 310ZM382.84 312.72L382.593 313.155C383.851 313.869 385.285 314.22 386.88 314.22V313.72V313.22C385.435 313.22 384.176 312.904 383.087 312.285L382.84 312.72ZM386.88 313.72V314.22C387.767 314.22 388.662 314.063 389.563 313.753L389.4 313.28L389.237 312.807C388.432 313.084 387.647 313.22 386.88 313.22V313.72ZM389.4 313.28L389.571 313.75C390.48 313.419 391.235 313.039 391.82 312.6L391.52 312.2L391.22 311.8C390.738 312.161 390.08 312.501 389.229 312.81L389.4 313.28ZM391.52 312.2L391.816 312.603C392.138 312.367 392.463 312.26 392.8 312.26V311.76V311.26C392.23 311.26 391.702 311.447 391.224 311.797L391.52 312.2ZM392.8 311.76L392.828 312.259C393.188 312.239 393.474 312.336 393.717 312.542L394.04 312.16L394.363 311.778C393.913 311.397 393.372 311.227 392.772 311.261L392.8 311.76ZM394.04 312.16L393.709 312.535C394.09 312.87 394.243 313.194 394.261 313.508L394.76 313.48L395.259 313.452C395.223 312.806 394.897 312.25 394.371 311.785L394.04 312.16ZM394.76 313.48L394.261 313.508C394.276 313.79 394.166 314.055 393.816 314.323L394.12 314.72L394.424 315.117C394.98 314.692 395.297 314.13 395.259 313.452L394.76 313.48ZM394.12 314.72L393.809 314.328C392.958 315.005 391.879 315.567 390.562 316.006L390.72 316.48L390.878 316.954C392.281 316.487 393.469 315.875 394.431 315.112L394.12 314.72ZM390.72 316.48L390.559 316.007C389.27 316.445 388.044 316.66 386.88 316.66V317.16V317.66C388.169 317.66 389.503 317.422 390.881 316.953L390.72 316.48Z" fill="#D4AF37"/>
<path d="M256 234.667C266.631 234.667 275.25 226.048 275.25 215.417C275.25 204.785 266.631 196.167 256 196.167C245.369 196.167 236.75 204.785 236.75 215.417C236.75 226.048 245.369 234.667 256 234.667Z" stroke="#D4AF37" stroke-width="8"/>
<path d="M241.742 266.75H270.258C290.284 266.75 300.301 266.75 307.494 262.034C310.598 260.001 313.271 257.375 315.36 254.308C320.167 247.25 320.167 237.413 320.167 217.752C320.167 198.092 320.167 188.255 315.36 181.197C313.271 178.129 310.598 175.504 307.494 173.471C302.874 170.436 297.086 169.351 288.224 168.966C283.996 168.966 280.358 165.822 279.53 161.748C278.897 158.763 277.254 156.088 274.877 154.176C272.5 152.263 269.536 151.23 266.485 151.25H245.515C239.175 151.25 233.715 155.645 232.47 161.748C231.642 165.822 228.004 168.966 223.775 168.966C214.92 169.351 209.133 170.442 204.506 173.471C201.404 175.505 198.733 178.13 196.646 181.197C191.833 188.255 191.833 198.085 191.833 217.752C191.833 237.419 191.833 247.243 196.639 254.308C198.718 257.362 201.388 259.987 204.506 262.034C211.699 266.75 221.716 266.75 241.742 266.75Z" stroke="#D4AF37" stroke-width="8"/>
<path d="M300.917 196.167H294.5" stroke="#D4AF37" stroke-width="8" stroke-linecap="round"/>
</svg>
